<mxfile host="app.diagrams.net" modified="2023-06-08T07:29:14.324Z" agent="Mozilla/5.0 (Windows NT 10.0; Win64; x64) AppleWebKit/537.36 (KHTML, like Gecko) Chrome/114.0.0.0 Safari/537.36" etag="fAYWm3_wr65SxWy3DSoc" version="21.3.7" type="device" pages="2">
  <diagram name="第 1 页" id="6fULXbA34NMs9F-8oooE">
    <mxGraphModel dx="2082" dy="-165" grid="0" gridSize="10" guides="1" tooltips="1" connect="0" arrows="1" fold="1" page="0" pageScale="1" pageWidth="1169" pageHeight="827" background="none" math="0" shadow="0">
      <root>
        <mxCell id="0" />
        <mxCell id="1" parent="0" />
        <mxCell id="McqmEu5ErEsOY60lvEX7-29" value="注册开始" style="strokeWidth=2;html=1;shape=mxgraph.flowchart.start_1;whiteSpace=wrap;" parent="1" vertex="1">
          <mxGeometry x="10" y="870" width="100" height="40" as="geometry" />
        </mxCell>
        <mxCell id="McqmEu5ErEsOY60lvEX7-30" value="" style="endArrow=classic;html=1;rounded=0;exitX=0.5;exitY=1;exitDx=0;exitDy=0;exitPerimeter=0;" parent="1" source="McqmEu5ErEsOY60lvEX7-29" edge="1">
          <mxGeometry width="50" height="50" relative="1" as="geometry">
            <mxPoint x="40" y="990" as="sourcePoint" />
            <mxPoint x="60" y="980" as="targetPoint" />
          </mxGeometry>
        </mxCell>
        <mxCell id="McqmEu5ErEsOY60lvEX7-31" value="用户输入" style="shape=parallelogram;html=1;strokeWidth=2;perimeter=parallelogramPerimeter;whiteSpace=wrap;rounded=1;arcSize=12;size=0.23;" parent="1" vertex="1">
          <mxGeometry x="10" y="980" width="100" height="60" as="geometry" />
        </mxCell>
        <mxCell id="McqmEu5ErEsOY60lvEX7-33" value="" style="endArrow=classic;html=1;rounded=0;" parent="1" edge="1">
          <mxGeometry width="50" height="50" relative="1" as="geometry">
            <mxPoint x="60" y="1040" as="sourcePoint" />
            <mxPoint x="60" y="1100" as="targetPoint" />
          </mxGeometry>
        </mxCell>
        <mxCell id="McqmEu5ErEsOY60lvEX7-34" value="验证表单" style="rounded=1;whiteSpace=wrap;html=1;absoluteArcSize=1;arcSize=14;strokeWidth=2;" parent="1" vertex="1">
          <mxGeometry x="10" y="1100" width="100" height="40" as="geometry" />
        </mxCell>
        <mxCell id="McqmEu5ErEsOY60lvEX7-35" value="" style="endArrow=classic;html=1;rounded=0;entryX=0.5;entryY=0;entryDx=0;entryDy=0;entryPerimeter=0;exitX=0.5;exitY=1;exitDx=0;exitDy=0;" parent="1" source="McqmEu5ErEsOY60lvEX7-34" target="McqmEu5ErEsOY60lvEX7-36" edge="1">
          <mxGeometry width="50" height="50" relative="1" as="geometry">
            <mxPoint x="64" y="1140" as="sourcePoint" />
            <mxPoint x="64" y="1220" as="targetPoint" />
          </mxGeometry>
        </mxCell>
        <mxCell id="McqmEu5ErEsOY60lvEX7-39" value="" style="edgeStyle=orthogonalEdgeStyle;rounded=0;orthogonalLoop=1;jettySize=auto;html=1;" parent="1" source="McqmEu5ErEsOY60lvEX7-36" target="McqmEu5ErEsOY60lvEX7-38" edge="1">
          <mxGeometry relative="1" as="geometry" />
        </mxCell>
        <mxCell id="McqmEu5ErEsOY60lvEX7-36" value="表单字段验证通过" style="strokeWidth=2;html=1;shape=mxgraph.flowchart.decision;whiteSpace=wrap;" parent="1" vertex="1">
          <mxGeometry x="10" y="1220" width="100" height="100" as="geometry" />
        </mxCell>
        <mxCell id="McqmEu5ErEsOY60lvEX7-42" value="" style="edgeStyle=orthogonalEdgeStyle;rounded=0;orthogonalLoop=1;jettySize=auto;html=1;" parent="1" source="McqmEu5ErEsOY60lvEX7-38" target="McqmEu5ErEsOY60lvEX7-41" edge="1">
          <mxGeometry relative="1" as="geometry" />
        </mxCell>
        <mxCell id="McqmEu5ErEsOY60lvEX7-38" value="发送HTTP请求" style="whiteSpace=wrap;html=1;strokeWidth=2;" parent="1" vertex="1">
          <mxGeometry y="1380" width="120" height="60" as="geometry" />
        </mxCell>
        <mxCell id="McqmEu5ErEsOY60lvEX7-40" value="Y" style="text;html=1;align=center;verticalAlign=middle;resizable=0;points=[];autosize=1;strokeColor=none;fillColor=none;" parent="1" vertex="1">
          <mxGeometry x="60" y="1330" width="30" height="30" as="geometry" />
        </mxCell>
        <mxCell id="McqmEu5ErEsOY60lvEX7-44" value="" style="edgeStyle=orthogonalEdgeStyle;rounded=0;orthogonalLoop=1;jettySize=auto;html=1;exitX=0.5;exitY=1;exitDx=0;exitDy=0;" parent="1" source="McqmEu5ErEsOY60lvEX7-41" target="McqmEu5ErEsOY60lvEX7-43" edge="1">
          <mxGeometry relative="1" as="geometry" />
        </mxCell>
        <mxCell id="McqmEu5ErEsOY60lvEX7-41" value="邮箱是否已经注册" style="rhombus;whiteSpace=wrap;html=1;strokeWidth=2;" parent="1" vertex="1">
          <mxGeometry x="10" y="1490" width="100" height="90" as="geometry" />
        </mxCell>
        <mxCell id="McqmEu5ErEsOY60lvEX7-46" value="" style="edgeStyle=orthogonalEdgeStyle;rounded=0;orthogonalLoop=1;jettySize=auto;html=1;" parent="1" source="McqmEu5ErEsOY60lvEX7-43" target="McqmEu5ErEsOY60lvEX7-45" edge="1">
          <mxGeometry relative="1" as="geometry" />
        </mxCell>
        <mxCell id="McqmEu5ErEsOY60lvEX7-92" style="edgeStyle=orthogonalEdgeStyle;rounded=0;orthogonalLoop=1;jettySize=auto;html=1;entryX=1;entryY=0.5;entryDx=0;entryDy=0;" parent="1" source="McqmEu5ErEsOY60lvEX7-45" target="McqmEu5ErEsOY60lvEX7-68" edge="1">
          <mxGeometry relative="1" as="geometry">
            <mxPoint x="490" y="1320" as="targetPoint" />
            <Array as="points">
              <mxPoint x="490" y="1320" />
            </Array>
          </mxGeometry>
        </mxCell>
        <mxCell id="McqmEu5ErEsOY60lvEX7-93" style="edgeStyle=orthogonalEdgeStyle;rounded=0;orthogonalLoop=1;jettySize=auto;html=1;exitX=1;exitY=0.5;exitDx=0;exitDy=0;entryX=0.5;entryY=1;entryDx=0;entryDy=0;" parent="1" source="McqmEu5ErEsOY60lvEX7-45" target="McqmEu5ErEsOY60lvEX7-50" edge="1">
          <mxGeometry relative="1" as="geometry" />
        </mxCell>
        <mxCell id="McqmEu5ErEsOY60lvEX7-45" value="验证两次密码是否相同" style="rhombus;whiteSpace=wrap;html=1;strokeWidth=2;" parent="1" vertex="1">
          <mxGeometry x="420" y="1550.5" width="140" height="105" as="geometry" />
        </mxCell>
        <mxCell id="McqmEu5ErEsOY60lvEX7-48" value="Y" style="text;html=1;align=center;verticalAlign=middle;resizable=0;points=[];autosize=1;strokeColor=none;fillColor=none;" parent="1" vertex="1">
          <mxGeometry x="130" y="1500" width="30" height="30" as="geometry" />
        </mxCell>
        <mxCell id="McqmEu5ErEsOY60lvEX7-49" value="Y" style="text;html=1;align=center;verticalAlign=middle;resizable=0;points=[];autosize=1;strokeColor=none;fillColor=none;" parent="1" vertex="1">
          <mxGeometry x="360" y="1565" width="30" height="30" as="geometry" />
        </mxCell>
        <mxCell id="McqmEu5ErEsOY60lvEX7-54" value="" style="edgeStyle=orthogonalEdgeStyle;rounded=0;orthogonalLoop=1;jettySize=auto;html=1;" parent="1" source="McqmEu5ErEsOY60lvEX7-50" target="McqmEu5ErEsOY60lvEX7-53" edge="1">
          <mxGeometry relative="1" as="geometry" />
        </mxCell>
        <mxCell id="McqmEu5ErEsOY60lvEX7-50" value="存入数据库" style="rounded=1;whiteSpace=wrap;html=1;strokeWidth=2;" parent="1" vertex="1">
          <mxGeometry x="610" y="1480" width="120" height="40" as="geometry" />
        </mxCell>
        <mxCell id="McqmEu5ErEsOY60lvEX7-52" value="Y" style="text;html=1;align=center;verticalAlign=middle;resizable=0;points=[];autosize=1;strokeColor=none;fillColor=none;" parent="1" vertex="1">
          <mxGeometry x="600" y="1570" width="30" height="30" as="geometry" />
        </mxCell>
        <mxCell id="McqmEu5ErEsOY60lvEX7-53" value="返回token" style="rounded=1;whiteSpace=wrap;html=1;strokeWidth=2;" parent="1" vertex="1">
          <mxGeometry x="610" y="1310" width="120" height="40" as="geometry" />
        </mxCell>
        <mxCell id="McqmEu5ErEsOY60lvEX7-59" value="注册成功" style="strokeWidth=2;html=1;shape=mxgraph.flowchart.start_1;whiteSpace=wrap;" parent="1" vertex="1">
          <mxGeometry x="250" y="870" width="100" height="40" as="geometry" />
        </mxCell>
        <mxCell id="McqmEu5ErEsOY60lvEX7-62" value="重新输入" style="rounded=1;whiteSpace=wrap;html=1;absoluteArcSize=1;arcSize=14;strokeWidth=2;" parent="1" vertex="1">
          <mxGeometry x="130" y="1170" width="100" height="50" as="geometry" />
        </mxCell>
        <mxCell id="McqmEu5ErEsOY60lvEX7-63" value="" style="endArrow=classic;html=1;rounded=0;" parent="1" edge="1">
          <mxGeometry width="50" height="50" relative="1" as="geometry">
            <mxPoint x="110" y="1270" as="sourcePoint" />
            <mxPoint x="170" y="1220" as="targetPoint" />
            <Array as="points">
              <mxPoint x="170" y="1270" />
            </Array>
          </mxGeometry>
        </mxCell>
        <mxCell id="McqmEu5ErEsOY60lvEX7-64" value="N" style="text;html=1;align=center;verticalAlign=middle;resizable=0;points=[];autosize=1;strokeColor=none;fillColor=none;" parent="1" vertex="1">
          <mxGeometry x="120" y="1238" width="30" height="30" as="geometry" />
        </mxCell>
        <mxCell id="McqmEu5ErEsOY60lvEX7-66" value="" style="endArrow=classic;html=1;rounded=0;entryX=1;entryY=0.5;entryDx=0;entryDy=0;" parent="1" target="McqmEu5ErEsOY60lvEX7-34" edge="1">
          <mxGeometry width="50" height="50" relative="1" as="geometry">
            <mxPoint x="170" y="1170" as="sourcePoint" />
            <mxPoint x="220" y="1120" as="targetPoint" />
            <Array as="points">
              <mxPoint x="170" y="1120" />
            </Array>
          </mxGeometry>
        </mxCell>
        <mxCell id="McqmEu5ErEsOY60lvEX7-96" style="edgeStyle=orthogonalEdgeStyle;rounded=0;orthogonalLoop=1;jettySize=auto;html=1;exitX=0.5;exitY=0;exitDx=0;exitDy=0;entryX=0.5;entryY=1;entryDx=0;entryDy=0;" parent="1" source="McqmEu5ErEsOY60lvEX7-68" target="McqmEu5ErEsOY60lvEX7-82" edge="1">
          <mxGeometry relative="1" as="geometry" />
        </mxCell>
        <mxCell id="McqmEu5ErEsOY60lvEX7-68" value="抛出错误" style="rounded=1;whiteSpace=wrap;html=1;absoluteArcSize=1;arcSize=14;strokeWidth=2;" parent="1" vertex="1">
          <mxGeometry x="250" y="1300" width="150" height="40" as="geometry" />
        </mxCell>
        <mxCell id="McqmEu5ErEsOY60lvEX7-69" value="" style="endArrow=classic;html=1;rounded=0;exitX=1;exitY=0.5;exitDx=0;exitDy=0;" parent="1" source="McqmEu5ErEsOY60lvEX7-41" edge="1">
          <mxGeometry width="50" height="50" relative="1" as="geometry">
            <mxPoint x="190" y="1430" as="sourcePoint" />
            <mxPoint x="250" y="1317" as="targetPoint" />
            <Array as="points">
              <mxPoint x="210" y="1535" />
              <mxPoint x="210" y="1317" />
            </Array>
          </mxGeometry>
        </mxCell>
        <mxCell id="McqmEu5ErEsOY60lvEX7-70" value="N" style="text;html=1;align=center;verticalAlign=middle;resizable=0;points=[];autosize=1;strokeColor=none;fillColor=none;" parent="1" vertex="1">
          <mxGeometry x="130" y="1570" width="30" height="30" as="geometry" />
        </mxCell>
        <mxCell id="McqmEu5ErEsOY60lvEX7-71" value="" style="endArrow=classic;html=1;rounded=0;exitX=0.5;exitY=0;exitDx=0;exitDy=0;entryX=0.203;entryY=1;entryDx=0;entryDy=0;entryPerimeter=0;" parent="1" source="McqmEu5ErEsOY60lvEX7-43" target="McqmEu5ErEsOY60lvEX7-68" edge="1">
          <mxGeometry width="50" height="50" relative="1" as="geometry">
            <mxPoint x="120" y="1675" as="sourcePoint" />
            <mxPoint x="280" y="1350" as="targetPoint" />
            <Array as="points" />
          </mxGeometry>
        </mxCell>
        <mxCell id="McqmEu5ErEsOY60lvEX7-76" value="N" style="text;html=1;align=center;verticalAlign=middle;resizable=0;points=[];autosize=1;strokeColor=none;fillColor=none;" parent="1" vertex="1">
          <mxGeometry x="290" y="1500" width="30" height="30" as="geometry" />
        </mxCell>
        <mxCell id="McqmEu5ErEsOY60lvEX7-77" value="" style="endArrow=classic;html=1;rounded=0;exitX=0.5;exitY=0;exitDx=0;exitDy=0;entryX=1;entryY=0.5;entryDx=0;entryDy=0;" parent="1" source="McqmEu5ErEsOY60lvEX7-53" target="McqmEu5ErEsOY60lvEX7-82" edge="1">
          <mxGeometry width="50" height="50" relative="1" as="geometry">
            <mxPoint x="360" y="1870" as="sourcePoint" />
            <mxPoint x="670" y="1230" as="targetPoint" />
            <Array as="points">
              <mxPoint x="670" y="1170" />
            </Array>
          </mxGeometry>
        </mxCell>
        <mxCell id="McqmEu5ErEsOY60lvEX7-87" style="edgeStyle=orthogonalEdgeStyle;rounded=0;orthogonalLoop=1;jettySize=auto;html=1;exitX=0.5;exitY=0;exitDx=0;exitDy=0;entryX=0.5;entryY=1;entryDx=0;entryDy=0;entryPerimeter=0;" parent="1" source="McqmEu5ErEsOY60lvEX7-79" target="McqmEu5ErEsOY60lvEX7-59" edge="1">
          <mxGeometry relative="1" as="geometry" />
        </mxCell>
        <mxCell id="McqmEu5ErEsOY60lvEX7-88" style="edgeStyle=orthogonalEdgeStyle;rounded=0;orthogonalLoop=1;jettySize=auto;html=1;exitX=1;exitY=0.5;exitDx=0;exitDy=0;entryX=0;entryY=0.5;entryDx=0;entryDy=0;entryPerimeter=0;" parent="1" source="McqmEu5ErEsOY60lvEX7-79" target="McqmEu5ErEsOY60lvEX7-86" edge="1">
          <mxGeometry relative="1" as="geometry" />
        </mxCell>
        <mxCell id="McqmEu5ErEsOY60lvEX7-79" value="状态码是否为200" style="rhombus;whiteSpace=wrap;html=1;" parent="1" vertex="1">
          <mxGeometry x="250" y="980" width="100" height="90" as="geometry" />
        </mxCell>
        <mxCell id="McqmEu5ErEsOY60lvEX7-85" style="edgeStyle=orthogonalEdgeStyle;rounded=0;orthogonalLoop=1;jettySize=auto;html=1;entryX=0.5;entryY=1;entryDx=0;entryDy=0;" parent="1" source="McqmEu5ErEsOY60lvEX7-82" target="McqmEu5ErEsOY60lvEX7-79" edge="1">
          <mxGeometry relative="1" as="geometry" />
        </mxCell>
        <mxCell id="McqmEu5ErEsOY60lvEX7-82" value="接收HTTP响应" style="shape=parallelogram;html=1;strokeWidth=2;perimeter=parallelogramPerimeter;whiteSpace=wrap;rounded=1;arcSize=12;size=0.23;" parent="1" vertex="1">
          <mxGeometry x="390" y="1140" width="110" height="60" as="geometry" />
        </mxCell>
        <mxCell id="McqmEu5ErEsOY60lvEX7-86" value="注册失败" style="strokeWidth=2;html=1;shape=mxgraph.flowchart.start_1;whiteSpace=wrap;" parent="1" vertex="1">
          <mxGeometry x="440" y="1005.5" width="100" height="39" as="geometry" />
        </mxCell>
        <mxCell id="McqmEu5ErEsOY60lvEX7-89" value="Y" style="text;html=1;align=center;verticalAlign=middle;resizable=0;points=[];autosize=1;strokeColor=none;fillColor=none;" parent="1" vertex="1">
          <mxGeometry x="300" y="930" width="30" height="30" as="geometry" />
        </mxCell>
        <mxCell id="McqmEu5ErEsOY60lvEX7-90" value="N" style="text;html=1;align=center;verticalAlign=middle;resizable=0;points=[];autosize=1;strokeColor=none;fillColor=none;" parent="1" vertex="1">
          <mxGeometry x="369" y="995" width="30" height="30" as="geometry" />
        </mxCell>
        <mxCell id="McqmEu5ErEsOY60lvEX7-43" value="邮箱验证码是否正确" style="rhombus;whiteSpace=wrap;html=1;strokeWidth=2;" parent="1" vertex="1">
          <mxGeometry x="220" y="1558" width="120" height="90" as="geometry" />
        </mxCell>
        <mxCell id="McqmEu5ErEsOY60lvEX7-94" value="N" style="text;html=1;align=center;verticalAlign=middle;resizable=0;points=[];autosize=1;strokeColor=none;fillColor=none;" parent="1" vertex="1">
          <mxGeometry x="500" y="1500" width="30" height="30" as="geometry" />
        </mxCell>
        <mxCell id="6It8izAJIYI-ex1_182m-316" value="&lt;font style=&quot;font-size: 20px;&quot;&gt;志愿者服务管理系统&lt;/font&gt;" style="rounded=0;whiteSpace=wrap;html=1;" parent="1" vertex="1">
          <mxGeometry x="-790" y="827" width="200" height="80" as="geometry" />
        </mxCell>
        <mxCell id="6It8izAJIYI-ex1_182m-317" value="" style="endArrow=none;html=1;rounded=0;" parent="1" edge="1">
          <mxGeometry width="50" height="50" relative="1" as="geometry">
            <mxPoint x="-690" y="987" as="sourcePoint" />
            <mxPoint x="-690.5" y="907" as="targetPoint" />
          </mxGeometry>
        </mxCell>
        <mxCell id="6It8izAJIYI-ex1_182m-318" value="&lt;p style=&quot;line-height: 120%;&quot;&gt;&lt;span style=&quot;background-color: initial;text-orientation: upright;writing-mode: vertical-rl;/* display: flex; *//* flex-direction: column; */&quot;&gt;&lt;font style=&quot;font-size: 14px;&quot;&gt;创建团队模块&lt;/font&gt;&lt;/span&gt;&lt;/p&gt;" style="rounded=0;whiteSpace=wrap;html=1;align=center;" parent="1" vertex="1">
          <mxGeometry x="-629" y="1948" width="40" height="160" as="geometry" />
        </mxCell>
        <mxCell id="6It8izAJIYI-ex1_182m-319" value="&lt;p style=&quot;line-height: 120%;&quot;&gt;&lt;span style=&quot;background-color: initial;text-orientation: upright;writing-mode: vertical-rl;/* display: flex; *//* flex-direction: column; */&quot;&gt;&lt;font style=&quot;font-size: 14px;&quot;&gt;团队活动管理模块&lt;/font&gt;&lt;/span&gt;&lt;/p&gt;" style="rounded=0;whiteSpace=wrap;html=1;align=center;" parent="1" vertex="1">
          <mxGeometry x="-450" y="1947" width="40" height="160" as="geometry" />
        </mxCell>
        <mxCell id="6It8izAJIYI-ex1_182m-320" value="&lt;p style=&quot;line-height: 120%;&quot;&gt;&lt;span style=&quot;background-color: initial;text-orientation: upright;writing-mode: vertical-rl;/* display: flex; *//* flex-direction: column; */&quot;&gt;&lt;font style=&quot;font-size: 14px;&quot;&gt;团员管理模块&lt;/font&gt;&lt;/span&gt;&lt;/p&gt;" style="rounded=0;whiteSpace=wrap;html=1;align=center;" parent="1" vertex="1">
          <mxGeometry x="-510" y="1947" width="40" height="160" as="geometry" />
        </mxCell>
        <mxCell id="6It8izAJIYI-ex1_182m-321" value="&lt;p style=&quot;line-height: 120%;&quot;&gt;&lt;span style=&quot;background-color: initial;text-orientation: upright;writing-mode: vertical-rl;/* display: flex; *//* flex-direction: column; */&quot;&gt;&lt;font style=&quot;font-size: 14px;&quot;&gt;编辑团队信息模块&lt;/font&gt;&lt;/span&gt;&lt;/p&gt;" style="rounded=0;whiteSpace=wrap;html=1;align=center;" parent="1" vertex="1">
          <mxGeometry x="-570" y="1947" width="40" height="160" as="geometry" />
        </mxCell>
        <mxCell id="6It8izAJIYI-ex1_182m-325" value="&lt;p style=&quot;line-height: 120%;&quot;&gt;&lt;span style=&quot;background-color: initial;text-orientation: upright;writing-mode: vertical-rl;/* display: flex; *//* flex-direction: column; */&quot;&gt;&lt;font style=&quot;font-size: 14px;&quot;&gt;团队数据模块&lt;/font&gt;&lt;/span&gt;&lt;/p&gt;" style="rounded=0;whiteSpace=wrap;html=1;align=center;" parent="1" vertex="1">
          <mxGeometry x="-388" y="1948" width="40" height="160" as="geometry" />
        </mxCell>
        <mxCell id="6It8izAJIYI-ex1_182m-327" value="&lt;p style=&quot;line-height: 120%;&quot;&gt;&lt;span style=&quot;background-color: initial;text-orientation: upright;writing-mode: vertical-rl;/* display: flex; *//* flex-direction: column; */&quot;&gt;&lt;font style=&quot;font-size: 14px;&quot;&gt;团队日志模块&lt;/font&gt;&lt;/span&gt;&lt;/p&gt;" style="rounded=0;whiteSpace=wrap;html=1;align=center;" parent="1" vertex="1">
          <mxGeometry x="-328" y="1947" width="40" height="160" as="geometry" />
        </mxCell>
        <mxCell id="6It8izAJIYI-ex1_182m-328" value="&lt;p style=&quot;line-height: 120%;&quot;&gt;&lt;span style=&quot;background-color: initial;text-orientation: upright;writing-mode: vertical-rl;/* display: flex; *//* flex-direction: column; */&quot;&gt;&lt;font style=&quot;font-size: 18px;&quot;&gt;系统管理模块&lt;/font&gt;&lt;/span&gt;&lt;/p&gt;" style="rounded=0;whiteSpace=wrap;html=1;align=center;" parent="1" vertex="1">
          <mxGeometry x="-730" y="987" width="80" height="160" as="geometry" />
        </mxCell>
        <mxCell id="6It8izAJIYI-ex1_182m-329" value="&lt;p style=&quot;line-height: 120%;&quot;&gt;&lt;span style=&quot;background-color: initial;text-orientation: upright;writing-mode: vertical-rl;/* display: flex; *//* flex-direction: column; */&quot;&gt;&lt;font style=&quot;font-size: 14px;&quot;&gt;最新展示模块&lt;/font&gt;&lt;/span&gt;&lt;/p&gt;" style="rounded=0;whiteSpace=wrap;html=1;align=center;" parent="1" vertex="1">
          <mxGeometry x="-1130" y="1467" width="40" height="160" as="geometry" />
        </mxCell>
        <mxCell id="6It8izAJIYI-ex1_182m-330" value="&lt;p style=&quot;line-height: 120%;&quot;&gt;&lt;span style=&quot;background-color: initial;text-orientation: upright;writing-mode: vertical-rl;/* display: flex; *//* flex-direction: column; */&quot;&gt;&lt;font style=&quot;font-size: 14px;&quot;&gt;轮播图模块&lt;/font&gt;&lt;/span&gt;&lt;/p&gt;" style="rounded=0;whiteSpace=wrap;html=1;align=center;" parent="1" vertex="1">
          <mxGeometry x="-1070" y="1467" width="40" height="160" as="geometry" />
        </mxCell>
        <mxCell id="6It8izAJIYI-ex1_182m-331" value="&lt;p style=&quot;line-height: 120%;&quot;&gt;&lt;span style=&quot;background-color: initial;text-orientation: upright;writing-mode: vertical-rl;/* display: flex; *//* flex-direction: column; */&quot;&gt;&lt;font style=&quot;font-size: 14px;&quot;&gt;热门展示模块&lt;/font&gt;&lt;/span&gt;&lt;/p&gt;" style="rounded=0;whiteSpace=wrap;html=1;align=center;" parent="1" vertex="1">
          <mxGeometry x="-1010" y="1467" width="40" height="160" as="geometry" />
        </mxCell>
        <mxCell id="6It8izAJIYI-ex1_182m-332" value="&lt;p style=&quot;line-height: 120%;&quot;&gt;&lt;span style=&quot;background-color: initial;text-orientation: upright;writing-mode: vertical-rl;/* display: flex; *//* flex-direction: column; */&quot;&gt;&lt;font style=&quot;font-size: 14px;&quot;&gt;搜索模块&lt;/font&gt;&lt;/span&gt;&lt;/p&gt;" style="rounded=0;whiteSpace=wrap;html=1;align=center;" parent="1" vertex="1">
          <mxGeometry x="-950" y="1467" width="40" height="160" as="geometry" />
        </mxCell>
        <mxCell id="6It8izAJIYI-ex1_182m-333" value="&lt;p style=&quot;line-height: 120%;&quot;&gt;&lt;span style=&quot;background-color: initial;text-orientation: upright;writing-mode: vertical-rl;/* display: flex; *//* flex-direction: column; */&quot;&gt;&lt;font style=&quot;font-size: 16px;&quot;&gt;权限管理模块&lt;/font&gt;&lt;/span&gt;&lt;/p&gt;" style="rounded=0;whiteSpace=wrap;html=1;align=center;" parent="1" vertex="1">
          <mxGeometry x="-470" y="1227" width="40" height="160" as="geometry" />
        </mxCell>
        <mxCell id="6It8izAJIYI-ex1_182m-334" value="&lt;p style=&quot;line-height: 120%;&quot;&gt;&lt;span style=&quot;background-color: initial;text-orientation: upright;writing-mode: vertical-rl;/* display: flex; *//* flex-direction: column; */&quot;&gt;&lt;font style=&quot;font-size: 16px;&quot;&gt;系统首页模块&lt;/font&gt;&lt;/span&gt;&lt;/p&gt;" style="rounded=0;whiteSpace=wrap;html=1;align=center;" parent="1" vertex="1">
          <mxGeometry x="-1030" y="1227" width="40" height="160" as="geometry" />
        </mxCell>
        <mxCell id="6It8izAJIYI-ex1_182m-335" value="&lt;p style=&quot;line-height: 120%;&quot;&gt;&lt;span style=&quot;background-color: initial;text-orientation: upright;writing-mode: vertical-rl;/* display: flex; *//* flex-direction: column; */&quot;&gt;&lt;font style=&quot;font-size: 16px;&quot;&gt;团队管理模块&lt;/font&gt;&lt;/span&gt;&lt;/p&gt;" style="rounded=0;whiteSpace=wrap;html=1;align=center;" parent="1" vertex="1">
          <mxGeometry x="-630" y="1227" width="40" height="160" as="geometry" />
        </mxCell>
        <mxCell id="6It8izAJIYI-ex1_182m-336" value="" style="endArrow=none;html=1;rounded=0;exitX=0.5;exitY=0;exitDx=0;exitDy=0;entryX=0.5;entryY=0;entryDx=0;entryDy=0;" parent="1" source="6It8izAJIYI-ex1_182m-334" edge="1">
          <mxGeometry width="50" height="50" relative="1" as="geometry">
            <mxPoint x="-1010" y="1187" as="sourcePoint" />
            <mxPoint x="-370" y="1227" as="targetPoint" />
            <Array as="points">
              <mxPoint x="-1010" y="1187" />
              <mxPoint x="-530" y="1187" />
              <mxPoint x="-420" y="1187" />
              <mxPoint x="-370" y="1187" />
            </Array>
          </mxGeometry>
        </mxCell>
        <mxCell id="6It8izAJIYI-ex1_182m-337" value="" style="endArrow=none;html=1;rounded=0;" parent="1" edge="1">
          <mxGeometry width="50" height="50" relative="1" as="geometry">
            <mxPoint x="-930" y="1227" as="sourcePoint" />
            <mxPoint x="-930" y="1187" as="targetPoint" />
          </mxGeometry>
        </mxCell>
        <mxCell id="6It8izAJIYI-ex1_182m-338" value="" style="endArrow=none;html=1;rounded=0;exitX=0.5;exitY=0;exitDx=0;exitDy=0;" parent="1" edge="1">
          <mxGeometry width="50" height="50" relative="1" as="geometry">
            <mxPoint x="-850.5" y="1227" as="sourcePoint" />
            <mxPoint x="-850.5" y="1187" as="targetPoint" />
          </mxGeometry>
        </mxCell>
        <mxCell id="6It8izAJIYI-ex1_182m-339" value="" style="endArrow=none;html=1;rounded=0;exitX=0.5;exitY=0;exitDx=0;exitDy=0;" parent="1" edge="1">
          <mxGeometry width="50" height="50" relative="1" as="geometry">
            <mxPoint x="-610.5" y="1227" as="sourcePoint" />
            <mxPoint x="-610.5" y="1187" as="targetPoint" />
          </mxGeometry>
        </mxCell>
        <mxCell id="6It8izAJIYI-ex1_182m-340" value="" style="endArrow=none;html=1;rounded=0;entryX=0.5;entryY=0;entryDx=0;entryDy=0;" parent="1" edge="1">
          <mxGeometry width="50" height="50" relative="1" as="geometry">
            <mxPoint x="-690" y="1187" as="sourcePoint" />
            <mxPoint x="-690" y="1227" as="targetPoint" />
          </mxGeometry>
        </mxCell>
        <mxCell id="6It8izAJIYI-ex1_182m-341" value="" style="endArrow=none;html=1;rounded=0;entryX=0.5;entryY=0;entryDx=0;entryDy=0;" parent="1" edge="1">
          <mxGeometry width="50" height="50" relative="1" as="geometry">
            <mxPoint x="-770" y="1187" as="sourcePoint" />
            <mxPoint x="-770" y="1227" as="targetPoint" />
          </mxGeometry>
        </mxCell>
        <mxCell id="6It8izAJIYI-ex1_182m-342" value="" style="endArrow=none;html=1;rounded=0;entryX=0.5;entryY=0;entryDx=0;entryDy=0;" parent="1" edge="1">
          <mxGeometry width="50" height="50" relative="1" as="geometry">
            <mxPoint x="-530" y="1187" as="sourcePoint" />
            <mxPoint x="-530" y="1227" as="targetPoint" />
          </mxGeometry>
        </mxCell>
        <mxCell id="6It8izAJIYI-ex1_182m-343" value="" style="endArrow=none;html=1;rounded=0;entryX=0.5;entryY=0;entryDx=0;entryDy=0;" parent="1" target="6It8izAJIYI-ex1_182m-333" edge="1">
          <mxGeometry width="50" height="50" relative="1" as="geometry">
            <mxPoint x="-450" y="1187" as="sourcePoint" />
            <mxPoint x="-450" y="1237" as="targetPoint" />
          </mxGeometry>
        </mxCell>
        <mxCell id="6It8izAJIYI-ex1_182m-344" value="" style="endArrow=none;html=1;rounded=0;entryX=0.5;entryY=1;entryDx=0;entryDy=0;" parent="1" target="6It8izAJIYI-ex1_182m-328" edge="1">
          <mxGeometry width="50" height="50" relative="1" as="geometry">
            <mxPoint x="-690" y="1187" as="sourcePoint" />
            <mxPoint x="-570" y="1177" as="targetPoint" />
          </mxGeometry>
        </mxCell>
        <mxCell id="6It8izAJIYI-ex1_182m-345" value="" style="endArrow=none;html=1;rounded=0;" parent="1" edge="1">
          <mxGeometry width="50" height="50" relative="1" as="geometry">
            <mxPoint x="-1010" y="1427" as="sourcePoint" />
            <mxPoint x="-1010" y="1387" as="targetPoint" />
          </mxGeometry>
        </mxCell>
        <mxCell id="6It8izAJIYI-ex1_182m-346" value="&lt;p style=&quot;line-height: 120%;&quot;&gt;&lt;span style=&quot;background-color: initial;text-orientation: upright;writing-mode: vertical-rl;/* display: flex; *//* flex-direction: column; */&quot;&gt;&lt;font style=&quot;font-size: 14px;&quot;&gt;登录模块&lt;/font&gt;&lt;/span&gt;&lt;/p&gt;" style="rounded=0;whiteSpace=wrap;html=1;align=center;" parent="1" vertex="1">
          <mxGeometry x="-470" y="1467" width="40" height="160" as="geometry" />
        </mxCell>
        <mxCell id="6It8izAJIYI-ex1_182m-347" value="&lt;p style=&quot;line-height: 120%;&quot;&gt;&lt;span style=&quot;background-color: initial;text-orientation: upright;writing-mode: vertical-rl;/* display: flex; *//* flex-direction: column; */&quot;&gt;&lt;font style=&quot;font-size: 14px;&quot;&gt;个人信息管理模块&lt;/font&gt;&lt;/span&gt;&lt;/p&gt;" style="rounded=0;whiteSpace=wrap;html=1;align=center;" parent="1" vertex="1">
          <mxGeometry x="-290" y="1467" width="40" height="160" as="geometry" />
        </mxCell>
        <mxCell id="6It8izAJIYI-ex1_182m-348" value="&lt;p style=&quot;line-height: 120%;&quot;&gt;&lt;span style=&quot;background-color: initial;text-orientation: upright;writing-mode: vertical-rl;/* display: flex; *//* flex-direction: column; */&quot;&gt;&lt;font style=&quot;font-size: 14px;&quot;&gt;权限管理模块&lt;/font&gt;&lt;/span&gt;&lt;/p&gt;" style="rounded=0;whiteSpace=wrap;html=1;align=center;" parent="1" vertex="1">
          <mxGeometry x="-350" y="1467" width="40" height="160" as="geometry" />
        </mxCell>
        <mxCell id="6It8izAJIYI-ex1_182m-349" value="&lt;p style=&quot;line-height: 120%;&quot;&gt;&lt;span style=&quot;background-color: initial;text-orientation: upright;writing-mode: vertical-rl;/* display: flex; *//* flex-direction: column; */&quot;&gt;&lt;font style=&quot;font-size: 14px;&quot;&gt;注册模块&lt;/font&gt;&lt;/span&gt;&lt;/p&gt;" style="rounded=0;whiteSpace=wrap;html=1;align=center;" parent="1" vertex="1">
          <mxGeometry x="-410" y="1467" width="40" height="160" as="geometry" />
        </mxCell>
        <mxCell id="6It8izAJIYI-ex1_182m-350" value="&lt;p style=&quot;line-height: 120%;&quot;&gt;&lt;span style=&quot;background-color: initial;text-orientation: upright;writing-mode: vertical-rl;/* display: flex; *//* flex-direction: column; */&quot;&gt;&lt;font style=&quot;font-size: 14px;&quot;&gt;发布活动模块&lt;/font&gt;&lt;/span&gt;&lt;/p&gt;" style="rounded=0;whiteSpace=wrap;html=1;align=center;" parent="1" vertex="1">
          <mxGeometry x="-1150" y="1947" width="40" height="160" as="geometry" />
        </mxCell>
        <mxCell id="6It8izAJIYI-ex1_182m-351" value="&lt;p style=&quot;line-height: 120%;&quot;&gt;&lt;span style=&quot;background-color: initial;text-orientation: upright;writing-mode: vertical-rl;/* display: flex; *//* flex-direction: column; */&quot;&gt;&lt;font style=&quot;font-size: 14px;&quot;&gt;报名活动模块&lt;/font&gt;&lt;/span&gt;&lt;/p&gt;" style="rounded=0;whiteSpace=wrap;html=1;align=center;" parent="1" vertex="1">
          <mxGeometry x="-970" y="1947" width="40" height="160" as="geometry" />
        </mxCell>
        <mxCell id="6It8izAJIYI-ex1_182m-352" value="&lt;p style=&quot;line-height: 120%;&quot;&gt;&lt;span style=&quot;background-color: initial;text-orientation: upright;writing-mode: vertical-rl;/* display: flex; *//* flex-direction: column; */&quot;&gt;&lt;font style=&quot;font-size: 14px;&quot;&gt;审核活动模块&lt;/font&gt;&lt;/span&gt;&lt;/p&gt;" style="rounded=0;whiteSpace=wrap;html=1;align=center;" parent="1" vertex="1">
          <mxGeometry x="-1030" y="1947" width="40" height="160" as="geometry" />
        </mxCell>
        <mxCell id="6It8izAJIYI-ex1_182m-353" value="&lt;p style=&quot;line-height: 120%;&quot;&gt;&lt;span style=&quot;background-color: initial;text-orientation: upright;writing-mode: vertical-rl;/* display: flex; *//* flex-direction: column; */&quot;&gt;&lt;font style=&quot;font-size: 14px;&quot;&gt;编辑活动模块&lt;/font&gt;&lt;/span&gt;&lt;/p&gt;" style="rounded=0;whiteSpace=wrap;html=1;align=center;" parent="1" vertex="1">
          <mxGeometry x="-1090" y="1947" width="40" height="160" as="geometry" />
        </mxCell>
        <mxCell id="6It8izAJIYI-ex1_182m-354" value="&lt;p style=&quot;line-height: 120%;&quot;&gt;&lt;span style=&quot;background-color: initial;text-orientation: upright;writing-mode: vertical-rl;/* display: flex; *//* flex-direction: column; */&quot;&gt;&lt;font style=&quot;font-size: 14px;&quot;&gt;浏览活动模块&lt;/font&gt;&lt;/span&gt;&lt;/p&gt;" style="rounded=0;whiteSpace=wrap;html=1;align=center;" parent="1" vertex="1">
          <mxGeometry x="-910" y="1947" width="40" height="160" as="geometry" />
        </mxCell>
        <mxCell id="6It8izAJIYI-ex1_182m-355" value="&lt;p style=&quot;line-height: 120%;&quot;&gt;&lt;span style=&quot;background-color: initial;text-orientation: upright;writing-mode: vertical-rl;/* display: flex; *//* flex-direction: column; */&quot;&gt;&lt;font style=&quot;font-size: 14px;&quot;&gt;评论模块&lt;/font&gt;&lt;/span&gt;&lt;/p&gt;" style="rounded=0;whiteSpace=wrap;html=1;align=center;" parent="1" vertex="1">
          <mxGeometry x="-790" y="1947" width="40" height="160" as="geometry" />
        </mxCell>
        <mxCell id="6It8izAJIYI-ex1_182m-356" value="&lt;p style=&quot;line-height: 120%;&quot;&gt;&lt;span style=&quot;background-color: initial;text-orientation: upright;writing-mode: vertical-rl;/* display: flex; *//* flex-direction: column; */&quot;&gt;&lt;font style=&quot;font-size: 14px;&quot;&gt;收藏点赞模块&lt;/font&gt;&lt;/span&gt;&lt;/p&gt;" style="rounded=0;whiteSpace=wrap;html=1;align=center;" parent="1" vertex="1">
          <mxGeometry x="-850" y="1947" width="40" height="160" as="geometry" />
        </mxCell>
        <mxCell id="6It8izAJIYI-ex1_182m-357" value="" style="endArrow=none;html=1;rounded=0;exitX=0.5;exitY=0;exitDx=0;exitDy=0;" parent="1" source="6It8izAJIYI-ex1_182m-329" edge="1">
          <mxGeometry width="50" height="50" relative="1" as="geometry">
            <mxPoint x="-1120" y="1427" as="sourcePoint" />
            <mxPoint x="-930" y="1427" as="targetPoint" />
            <Array as="points">
              <mxPoint x="-1110" y="1427" />
            </Array>
          </mxGeometry>
        </mxCell>
        <mxCell id="6It8izAJIYI-ex1_182m-358" value="" style="endArrow=none;html=1;rounded=0;" parent="1" edge="1">
          <mxGeometry width="50" height="50" relative="1" as="geometry">
            <mxPoint x="-1050" y="1467" as="sourcePoint" />
            <mxPoint x="-1050" y="1427" as="targetPoint" />
          </mxGeometry>
        </mxCell>
        <mxCell id="6It8izAJIYI-ex1_182m-359" value="" style="endArrow=none;html=1;rounded=0;" parent="1" edge="1">
          <mxGeometry width="50" height="50" relative="1" as="geometry">
            <mxPoint x="-930" y="1467" as="sourcePoint" />
            <mxPoint x="-930" y="1427" as="targetPoint" />
          </mxGeometry>
        </mxCell>
        <mxCell id="6It8izAJIYI-ex1_182m-360" value="" style="endArrow=none;html=1;rounded=0;" parent="1" edge="1">
          <mxGeometry width="50" height="50" relative="1" as="geometry">
            <mxPoint x="-990" y="1467" as="sourcePoint" />
            <mxPoint x="-990" y="1427" as="targetPoint" />
          </mxGeometry>
        </mxCell>
        <mxCell id="6It8izAJIYI-ex1_182m-361" value="" style="endArrow=none;html=1;rounded=0;" parent="1" edge="1">
          <mxGeometry width="50" height="50" relative="1" as="geometry">
            <mxPoint x="-850" y="1667" as="sourcePoint" />
            <mxPoint x="-850.5" y="1387" as="targetPoint" />
          </mxGeometry>
        </mxCell>
        <mxCell id="6It8izAJIYI-ex1_182m-362" value="" style="endArrow=none;html=1;rounded=0;exitX=0.5;exitY=1;exitDx=0;exitDy=0;" parent="1" source="6It8izAJIYI-ex1_182m-382" edge="1">
          <mxGeometry width="50" height="50" relative="1" as="geometry">
            <mxPoint x="-770" y="1427" as="sourcePoint" />
            <mxPoint x="-530" y="1667" as="targetPoint" />
          </mxGeometry>
        </mxCell>
        <mxCell id="6It8izAJIYI-ex1_182m-363" value="" style="endArrow=none;html=1;rounded=0;entryX=0.5;entryY=0;entryDx=0;entryDy=0;" parent="1" target="6It8izAJIYI-ex1_182m-346" edge="1">
          <mxGeometry width="50" height="50" relative="1" as="geometry">
            <mxPoint x="-270" y="1427" as="sourcePoint" />
            <mxPoint x="-190" y="1487" as="targetPoint" />
            <Array as="points">
              <mxPoint x="-450" y="1427" />
            </Array>
          </mxGeometry>
        </mxCell>
        <mxCell id="6It8izAJIYI-ex1_182m-364" value="" style="endArrow=none;html=1;rounded=0;" parent="1" edge="1">
          <mxGeometry width="50" height="50" relative="1" as="geometry">
            <mxPoint x="-390" y="1467" as="sourcePoint" />
            <mxPoint x="-390" y="1427" as="targetPoint" />
          </mxGeometry>
        </mxCell>
        <mxCell id="6It8izAJIYI-ex1_182m-365" value="" style="endArrow=none;html=1;rounded=0;" parent="1" edge="1">
          <mxGeometry width="50" height="50" relative="1" as="geometry">
            <mxPoint x="-331" y="1467" as="sourcePoint" />
            <mxPoint x="-331" y="1427" as="targetPoint" />
          </mxGeometry>
        </mxCell>
        <mxCell id="6It8izAJIYI-ex1_182m-366" value="" style="endArrow=none;html=1;rounded=0;" parent="1" edge="1">
          <mxGeometry width="50" height="50" relative="1" as="geometry">
            <mxPoint x="-270.5" y="1467" as="sourcePoint" />
            <mxPoint x="-270.5" y="1427" as="targetPoint" />
          </mxGeometry>
        </mxCell>
        <mxCell id="6It8izAJIYI-ex1_182m-367" value="&lt;p style=&quot;line-height: 120%;&quot;&gt;&lt;span style=&quot;background-color: initial;text-orientation: upright;writing-mode: vertical-rl;/* display: flex; *//* flex-direction: column; */&quot;&gt;&lt;font style=&quot;font-size: 14px;&quot;&gt;发布动态模块&lt;/font&gt;&lt;/span&gt;&lt;/p&gt;" style="rounded=0;whiteSpace=wrap;html=1;align=center;" parent="1" vertex="1">
          <mxGeometry x="-1110" y="1707" width="40" height="160" as="geometry" />
        </mxCell>
        <mxCell id="6It8izAJIYI-ex1_182m-368" value="&lt;p style=&quot;line-height: 120%;&quot;&gt;&lt;span style=&quot;background-color: initial;text-orientation: upright;writing-mode: vertical-rl;/* display: flex; *//* flex-direction: column; */&quot;&gt;&lt;font style=&quot;font-size: 14px;&quot;&gt;编辑动态模块&lt;/font&gt;&lt;/span&gt;&lt;/p&gt;" style="rounded=0;whiteSpace=wrap;html=1;align=center;" parent="1" vertex="1">
          <mxGeometry x="-1050" y="1707" width="40" height="160" as="geometry" />
        </mxCell>
        <mxCell id="6It8izAJIYI-ex1_182m-369" value="&lt;p style=&quot;line-height: 120%;&quot;&gt;&lt;span style=&quot;background-color: initial;text-orientation: upright;writing-mode: vertical-rl;/* display: flex; *//* flex-direction: column; */&quot;&gt;&lt;font style=&quot;font-size: 14px;&quot;&gt;浏览动态模块&lt;/font&gt;&lt;/span&gt;&lt;/p&gt;" style="rounded=0;whiteSpace=wrap;html=1;align=center;" parent="1" vertex="1">
          <mxGeometry x="-990" y="1707" width="40" height="160" as="geometry" />
        </mxCell>
        <mxCell id="6It8izAJIYI-ex1_182m-370" value="&lt;p style=&quot;line-height: 120%;&quot;&gt;&lt;span style=&quot;background-color: initial;text-orientation: upright;writing-mode: vertical-rl;/* display: flex; *//* flex-direction: column; */&quot;&gt;&lt;font style=&quot;font-size: 14px;&quot;&gt;评论模块&lt;/font&gt;&lt;/span&gt;&lt;/p&gt;" style="rounded=0;whiteSpace=wrap;html=1;align=center;" parent="1" vertex="1">
          <mxGeometry x="-870" y="1707" width="40" height="160" as="geometry" />
        </mxCell>
        <mxCell id="6It8izAJIYI-ex1_182m-371" value="&lt;p style=&quot;line-height: 120%;&quot;&gt;&lt;span style=&quot;background-color: initial;text-orientation: upright;writing-mode: vertical-rl;/* display: flex; *//* flex-direction: column; */&quot;&gt;&lt;font style=&quot;font-size: 14px;&quot;&gt;收藏点赞模块&lt;/font&gt;&lt;/span&gt;&lt;/p&gt;" style="rounded=0;whiteSpace=wrap;html=1;align=center;" parent="1" vertex="1">
          <mxGeometry x="-930" y="1707" width="40" height="160" as="geometry" />
        </mxCell>
        <mxCell id="6It8izAJIYI-ex1_182m-372" value="&lt;p style=&quot;line-height: 120%;&quot;&gt;&lt;span style=&quot;background-color: initial;text-orientation: upright;writing-mode: vertical-rl;/* display: flex; *//* flex-direction: column; */&quot;&gt;&lt;font style=&quot;font-size: 14px;&quot;&gt;发布资源模块&lt;/font&gt;&lt;/span&gt;&lt;/p&gt;" style="rounded=0;whiteSpace=wrap;html=1;align=center;" parent="1" vertex="1">
          <mxGeometry x="-550" y="1707" width="40" height="160" as="geometry" />
        </mxCell>
        <mxCell id="6It8izAJIYI-ex1_182m-373" value="&lt;p style=&quot;line-height: 120%;&quot;&gt;&lt;span style=&quot;background-color: initial;text-orientation: upright;writing-mode: vertical-rl;/* display: flex; *//* flex-direction: column; */&quot;&gt;&lt;font style=&quot;font-size: 14px;&quot;&gt;编辑资源模块&lt;/font&gt;&lt;/span&gt;&lt;/p&gt;" style="rounded=0;whiteSpace=wrap;html=1;align=center;" parent="1" vertex="1">
          <mxGeometry x="-490" y="1707" width="40" height="160" as="geometry" />
        </mxCell>
        <mxCell id="6It8izAJIYI-ex1_182m-374" value="&lt;p style=&quot;line-height: 120%;&quot;&gt;&lt;span style=&quot;background-color: initial;text-orientation: upright;writing-mode: vertical-rl;/* display: flex; *//* flex-direction: column; */&quot;&gt;&lt;font style=&quot;font-size: 14px;&quot;&gt;浏览资源模块&lt;/font&gt;&lt;/span&gt;&lt;/p&gt;" style="rounded=0;whiteSpace=wrap;html=1;align=center;" parent="1" vertex="1">
          <mxGeometry x="-429" y="1707" width="40" height="160" as="geometry" />
        </mxCell>
        <mxCell id="6It8izAJIYI-ex1_182m-375" value="&lt;p style=&quot;line-height: 120%;&quot;&gt;&lt;span style=&quot;background-color: initial;text-orientation: upright;writing-mode: vertical-rl;/* display: flex; *//* flex-direction: column; */&quot;&gt;&lt;font style=&quot;font-size: 14px;&quot;&gt;学习评论模块&lt;/font&gt;&lt;/span&gt;&lt;/p&gt;" style="rounded=0;whiteSpace=wrap;html=1;align=center;" parent="1" vertex="1">
          <mxGeometry x="-310" y="1707" width="40" height="160" as="geometry" />
        </mxCell>
        <mxCell id="6It8izAJIYI-ex1_182m-376" value="&lt;p style=&quot;line-height: 120%;&quot;&gt;&lt;span style=&quot;background-color: initial;text-orientation: upright;writing-mode: vertical-rl;/* display: flex; *//* flex-direction: column; */&quot;&gt;&lt;font style=&quot;font-size: 14px;&quot;&gt;收藏点赞模块&lt;/font&gt;&lt;/span&gt;&lt;/p&gt;" style="rounded=0;whiteSpace=wrap;html=1;align=center;" parent="1" vertex="1">
          <mxGeometry x="-370" y="1707" width="40" height="160" as="geometry" />
        </mxCell>
        <mxCell id="6It8izAJIYI-ex1_182m-377" value="&lt;p style=&quot;line-height: 120%;&quot;&gt;&lt;span style=&quot;background-color: initial;text-orientation: upright;writing-mode: vertical-rl;/* display: flex; *//* flex-direction: column; */&quot;&gt;&lt;font style=&quot;font-size: 14px;&quot;&gt;学习记录模块&lt;/font&gt;&lt;/span&gt;&lt;/p&gt;" style="rounded=0;whiteSpace=wrap;html=1;align=center;" parent="1" vertex="1">
          <mxGeometry x="-250" y="1707" width="40" height="160" as="geometry" />
        </mxCell>
        <mxCell id="6It8izAJIYI-ex1_182m-378" value="&lt;p style=&quot;line-height: 120%;&quot;&gt;&lt;span style=&quot;background-color: initial;text-orientation: upright;writing-mode: vertical-rl;/* display: flex; *//* flex-direction: column; */&quot;&gt;&lt;font style=&quot;font-size: 16px;&quot;&gt;系统日志模块&lt;/font&gt;&lt;/span&gt;&lt;/p&gt;" style="rounded=0;whiteSpace=wrap;html=1;align=center;" parent="1" vertex="1">
          <mxGeometry x="-950" y="1227" width="40" height="160" as="geometry" />
        </mxCell>
        <mxCell id="6It8izAJIYI-ex1_182m-379" value="&lt;p style=&quot;line-height: 120%;&quot;&gt;&lt;span style=&quot;background-color: initial;text-orientation: upright;writing-mode: vertical-rl;/* display: flex; *//* flex-direction: column; */&quot;&gt;&lt;font style=&quot;font-size: 16px;&quot;&gt;用户管理模块&lt;/font&gt;&lt;/span&gt;&lt;/p&gt;" style="rounded=0;whiteSpace=wrap;html=1;align=center;" parent="1" vertex="1">
          <mxGeometry x="-390" y="1227" width="40" height="160" as="geometry" />
        </mxCell>
        <mxCell id="6It8izAJIYI-ex1_182m-380" value="" style="endArrow=none;html=1;rounded=0;" parent="1" edge="1">
          <mxGeometry width="50" height="50" relative="1" as="geometry">
            <mxPoint x="-370.6700000000001" y="1427" as="sourcePoint" />
            <mxPoint x="-370.6700000000001" y="1387" as="targetPoint" />
          </mxGeometry>
        </mxCell>
        <mxCell id="6It8izAJIYI-ex1_182m-381" value="&lt;p style=&quot;line-height: 120%;&quot;&gt;&lt;span style=&quot;background-color: initial;text-orientation: upright;writing-mode: vertical-rl;/* display: flex; *//* flex-direction: column; */&quot;&gt;&lt;font style=&quot;font-size: 16px;&quot;&gt;系统数据模块&lt;/font&gt;&lt;/span&gt;&lt;/p&gt;" style="rounded=0;whiteSpace=wrap;html=1;align=center;" parent="1" vertex="1">
          <mxGeometry x="-710" y="1227" width="40" height="160" as="geometry" />
        </mxCell>
        <mxCell id="6It8izAJIYI-ex1_182m-382" value="&lt;p style=&quot;line-height: 120%;&quot;&gt;&lt;span style=&quot;background-color: initial;text-orientation: upright;writing-mode: vertical-rl;/* display: flex; *//* flex-direction: column; */&quot;&gt;&lt;font style=&quot;font-size: 16px;&quot;&gt;学习管理模块&lt;/font&gt;&lt;/span&gt;&lt;/p&gt;" style="rounded=0;whiteSpace=wrap;html=1;align=center;" parent="1" vertex="1">
          <mxGeometry x="-550" y="1227" width="40" height="160" as="geometry" />
        </mxCell>
        <mxCell id="6It8izAJIYI-ex1_182m-383" value="&lt;p style=&quot;line-height: 120%;&quot;&gt;&lt;span style=&quot;background-color: initial;text-orientation: upright;writing-mode: vertical-rl;/* display: flex; *//* flex-direction: column; */&quot;&gt;&lt;font style=&quot;font-size: 16px;&quot;&gt;活动管理模块&lt;/font&gt;&lt;/span&gt;&lt;/p&gt;" style="rounded=0;whiteSpace=wrap;html=1;align=center;" parent="1" vertex="1">
          <mxGeometry x="-790" y="1227" width="40" height="160" as="geometry" />
        </mxCell>
        <mxCell id="6It8izAJIYI-ex1_182m-384" value="&lt;p style=&quot;line-height: 120%;&quot;&gt;&lt;span style=&quot;background-color: initial;text-orientation: upright;writing-mode: vertical-rl;/* display: flex; *//* flex-direction: column; */&quot;&gt;&lt;font style=&quot;font-size: 16px;&quot;&gt;志愿动态管理模块&lt;/font&gt;&lt;/span&gt;&lt;/p&gt;" style="rounded=0;whiteSpace=wrap;html=1;align=center;" parent="1" vertex="1">
          <mxGeometry x="-870" y="1227" width="40" height="160" as="geometry" />
        </mxCell>
        <mxCell id="6It8izAJIYI-ex1_182m-385" value="" style="endArrow=none;html=1;rounded=0;exitX=0.5;exitY=0;exitDx=0;exitDy=0;" parent="1" edge="1">
          <mxGeometry width="50" height="50" relative="1" as="geometry">
            <mxPoint x="-1030.67" y="1707" as="sourcePoint" />
            <mxPoint x="-1030.67" y="1667" as="targetPoint" />
          </mxGeometry>
        </mxCell>
        <mxCell id="6It8izAJIYI-ex1_182m-386" value="" style="endArrow=none;html=1;rounded=0;exitX=0.5;exitY=0;exitDx=0;exitDy=0;" parent="1" source="6It8izAJIYI-ex1_182m-367" edge="1">
          <mxGeometry width="50" height="50" relative="1" as="geometry">
            <mxPoint x="-990" y="1687" as="sourcePoint" />
            <mxPoint x="-850" y="1667" as="targetPoint" />
            <Array as="points">
              <mxPoint x="-1090" y="1667" />
            </Array>
          </mxGeometry>
        </mxCell>
        <mxCell id="6It8izAJIYI-ex1_182m-387" value="" style="endArrow=none;html=1;rounded=0;exitX=0.5;exitY=0;exitDx=0;exitDy=0;" parent="1" edge="1">
          <mxGeometry width="50" height="50" relative="1" as="geometry">
            <mxPoint x="-970.6700000000001" y="1707" as="sourcePoint" />
            <mxPoint x="-970.6700000000001" y="1667" as="targetPoint" />
          </mxGeometry>
        </mxCell>
        <mxCell id="6It8izAJIYI-ex1_182m-388" value="" style="endArrow=none;html=1;rounded=0;exitX=0.5;exitY=0;exitDx=0;exitDy=0;" parent="1" edge="1">
          <mxGeometry width="50" height="50" relative="1" as="geometry">
            <mxPoint x="-911.3299999999999" y="1707" as="sourcePoint" />
            <mxPoint x="-911.3299999999999" y="1667" as="targetPoint" />
          </mxGeometry>
        </mxCell>
        <mxCell id="6It8izAJIYI-ex1_182m-389" value="" style="endArrow=none;html=1;rounded=0;exitX=0.5;exitY=0;exitDx=0;exitDy=0;" parent="1" edge="1">
          <mxGeometry width="50" height="50" relative="1" as="geometry">
            <mxPoint x="-850" y="1707" as="sourcePoint" />
            <mxPoint x="-850" y="1667" as="targetPoint" />
          </mxGeometry>
        </mxCell>
        <mxCell id="6It8izAJIYI-ex1_182m-390" value="" style="endArrow=none;html=1;rounded=0;entryX=0.5;entryY=0;entryDx=0;entryDy=0;" parent="1" target="6It8izAJIYI-ex1_182m-377" edge="1">
          <mxGeometry width="50" height="50" relative="1" as="geometry">
            <mxPoint x="-530" y="1667" as="sourcePoint" />
            <mxPoint x="-660" y="1607" as="targetPoint" />
            <Array as="points">
              <mxPoint x="-230" y="1667" />
            </Array>
          </mxGeometry>
        </mxCell>
        <mxCell id="6It8izAJIYI-ex1_182m-391" value="" style="endArrow=none;html=1;rounded=0;exitX=0.5;exitY=0;exitDx=0;exitDy=0;" parent="1" edge="1">
          <mxGeometry width="50" height="50" relative="1" as="geometry">
            <mxPoint x="-291.3299999999999" y="1707" as="sourcePoint" />
            <mxPoint x="-291.3299999999999" y="1667" as="targetPoint" />
          </mxGeometry>
        </mxCell>
        <mxCell id="6It8izAJIYI-ex1_182m-392" value="" style="endArrow=none;html=1;rounded=0;exitX=0.5;exitY=0;exitDx=0;exitDy=0;" parent="1" edge="1">
          <mxGeometry width="50" height="50" relative="1" as="geometry">
            <mxPoint x="-350" y="1707" as="sourcePoint" />
            <mxPoint x="-350" y="1667" as="targetPoint" />
          </mxGeometry>
        </mxCell>
        <mxCell id="6It8izAJIYI-ex1_182m-393" value="" style="endArrow=none;html=1;rounded=0;exitX=0.5;exitY=0;exitDx=0;exitDy=0;" parent="1" edge="1">
          <mxGeometry width="50" height="50" relative="1" as="geometry">
            <mxPoint x="-409.6700000000001" y="1707" as="sourcePoint" />
            <mxPoint x="-409.6700000000001" y="1667" as="targetPoint" />
          </mxGeometry>
        </mxCell>
        <mxCell id="6It8izAJIYI-ex1_182m-394" value="" style="endArrow=none;html=1;rounded=0;exitX=0.5;exitY=0;exitDx=0;exitDy=0;" parent="1" edge="1">
          <mxGeometry width="50" height="50" relative="1" as="geometry">
            <mxPoint x="-470" y="1707" as="sourcePoint" />
            <mxPoint x="-470" y="1667" as="targetPoint" />
          </mxGeometry>
        </mxCell>
        <mxCell id="6It8izAJIYI-ex1_182m-395" value="" style="endArrow=none;html=1;rounded=0;exitX=0.5;exitY=0;exitDx=0;exitDy=0;" parent="1" edge="1">
          <mxGeometry width="50" height="50" relative="1" as="geometry">
            <mxPoint x="-530" y="1707" as="sourcePoint" />
            <mxPoint x="-530" y="1667" as="targetPoint" />
          </mxGeometry>
        </mxCell>
        <mxCell id="6It8izAJIYI-ex1_182m-396" value="" style="endArrow=none;html=1;rounded=0;entryX=0.5;entryY=1;entryDx=0;entryDy=0;" parent="1" target="6It8izAJIYI-ex1_182m-383" edge="1">
          <mxGeometry width="50" height="50" relative="1" as="geometry">
            <mxPoint x="-770" y="1907" as="sourcePoint" />
            <mxPoint x="-670" y="1627" as="targetPoint" />
          </mxGeometry>
        </mxCell>
        <mxCell id="6It8izAJIYI-ex1_182m-397" value="" style="endArrow=none;html=1;rounded=0;entryX=0.5;entryY=1;entryDx=0;entryDy=0;" parent="1" edge="1">
          <mxGeometry width="50" height="50" relative="1" as="geometry">
            <mxPoint x="-309" y="1907" as="sourcePoint" />
            <mxPoint x="-610.6700000000001" y="1387" as="targetPoint" />
            <Array as="points">
              <mxPoint x="-611" y="1905" />
            </Array>
          </mxGeometry>
        </mxCell>
        <mxCell id="6It8izAJIYI-ex1_182m-398" value="" style="endArrow=none;html=1;rounded=0;exitX=0.5;exitY=0;exitDx=0;exitDy=0;" parent="1" source="6It8izAJIYI-ex1_182m-350" edge="1">
          <mxGeometry width="50" height="50" relative="1" as="geometry">
            <mxPoint x="-1010" y="1947" as="sourcePoint" />
            <mxPoint x="-770" y="1907" as="targetPoint" />
            <Array as="points">
              <mxPoint x="-1130" y="1907" />
              <mxPoint x="-1010" y="1907" />
            </Array>
          </mxGeometry>
        </mxCell>
        <mxCell id="6It8izAJIYI-ex1_182m-400" value="" style="endArrow=none;html=1;rounded=0;exitX=0.5;exitY=0;exitDx=0;exitDy=0;" parent="1" edge="1">
          <mxGeometry width="50" height="50" relative="1" as="geometry">
            <mxPoint x="-1070.67" y="1947" as="sourcePoint" />
            <mxPoint x="-1070.67" y="1907" as="targetPoint" />
          </mxGeometry>
        </mxCell>
        <mxCell id="6It8izAJIYI-ex1_182m-401" value="" style="endArrow=none;html=1;rounded=0;exitX=0.5;exitY=0;exitDx=0;exitDy=0;" parent="1" edge="1">
          <mxGeometry width="50" height="50" relative="1" as="geometry">
            <mxPoint x="-1010.6700000000001" y="1947" as="sourcePoint" />
            <mxPoint x="-1010.6700000000001" y="1907" as="targetPoint" />
          </mxGeometry>
        </mxCell>
        <mxCell id="6It8izAJIYI-ex1_182m-402" value="" style="endArrow=none;html=1;rounded=0;exitX=0.5;exitY=0;exitDx=0;exitDy=0;" parent="1" edge="1">
          <mxGeometry width="50" height="50" relative="1" as="geometry">
            <mxPoint x="-950.6700000000001" y="1947" as="sourcePoint" />
            <mxPoint x="-950.6700000000001" y="1907" as="targetPoint" />
          </mxGeometry>
        </mxCell>
        <mxCell id="6It8izAJIYI-ex1_182m-403" value="" style="endArrow=none;html=1;rounded=0;exitX=0.5;exitY=0;exitDx=0;exitDy=0;" parent="1" edge="1">
          <mxGeometry width="50" height="50" relative="1" as="geometry">
            <mxPoint x="-890" y="1947" as="sourcePoint" />
            <mxPoint x="-890" y="1907" as="targetPoint" />
          </mxGeometry>
        </mxCell>
        <mxCell id="6It8izAJIYI-ex1_182m-404" value="" style="endArrow=none;html=1;rounded=0;exitX=0.5;exitY=0;exitDx=0;exitDy=0;" parent="1" edge="1">
          <mxGeometry width="50" height="50" relative="1" as="geometry">
            <mxPoint x="-830.6700000000001" y="1947" as="sourcePoint" />
            <mxPoint x="-830.6700000000001" y="1907" as="targetPoint" />
          </mxGeometry>
        </mxCell>
        <mxCell id="6It8izAJIYI-ex1_182m-405" value="" style="endArrow=none;html=1;rounded=0;exitX=0.5;exitY=0;exitDx=0;exitDy=0;" parent="1" edge="1">
          <mxGeometry width="50" height="50" relative="1" as="geometry">
            <mxPoint x="-770.6700000000001" y="1947" as="sourcePoint" />
            <mxPoint x="-770.6700000000001" y="1907" as="targetPoint" />
          </mxGeometry>
        </mxCell>
        <mxCell id="6It8izAJIYI-ex1_182m-406" value="" style="endArrow=none;html=1;rounded=0;exitX=0.5;exitY=0;exitDx=0;exitDy=0;" parent="1" edge="1">
          <mxGeometry width="50" height="50" relative="1" as="geometry">
            <mxPoint x="-610" y="1947" as="sourcePoint" />
            <mxPoint x="-610" y="1904" as="targetPoint" />
          </mxGeometry>
        </mxCell>
        <mxCell id="6It8izAJIYI-ex1_182m-407" value="" style="endArrow=none;html=1;rounded=0;exitX=0.5;exitY=0;exitDx=0;exitDy=0;" parent="1" edge="1">
          <mxGeometry width="50" height="50" relative="1" as="geometry">
            <mxPoint x="-551.3299999999999" y="1947" as="sourcePoint" />
            <mxPoint x="-551.3299999999999" y="1907" as="targetPoint" />
          </mxGeometry>
        </mxCell>
        <mxCell id="6It8izAJIYI-ex1_182m-408" value="" style="endArrow=none;html=1;rounded=0;exitX=0.5;exitY=0;exitDx=0;exitDy=0;" parent="1" edge="1">
          <mxGeometry width="50" height="50" relative="1" as="geometry">
            <mxPoint x="-490.6700000000001" y="1947" as="sourcePoint" />
            <mxPoint x="-490.6700000000001" y="1907" as="targetPoint" />
          </mxGeometry>
        </mxCell>
        <mxCell id="6It8izAJIYI-ex1_182m-409" value="" style="endArrow=none;html=1;rounded=0;exitX=0.5;exitY=0;exitDx=0;exitDy=0;" parent="1" edge="1">
          <mxGeometry width="50" height="50" relative="1" as="geometry">
            <mxPoint x="-430.6700000000001" y="1947" as="sourcePoint" />
            <mxPoint x="-430.6700000000001" y="1907" as="targetPoint" />
          </mxGeometry>
        </mxCell>
        <mxCell id="6It8izAJIYI-ex1_182m-410" value="" style="endArrow=none;html=1;rounded=0;exitX=0.5;exitY=0;exitDx=0;exitDy=0;" parent="1" edge="1">
          <mxGeometry width="50" height="50" relative="1" as="geometry">
            <mxPoint x="-370.6700000000001" y="1947" as="sourcePoint" />
            <mxPoint x="-370.6700000000001" y="1907" as="targetPoint" />
          </mxGeometry>
        </mxCell>
        <mxCell id="6It8izAJIYI-ex1_182m-411" value="" style="endArrow=none;html=1;rounded=0;exitX=0.5;exitY=0;exitDx=0;exitDy=0;" parent="1" edge="1">
          <mxGeometry width="50" height="50" relative="1" as="geometry">
            <mxPoint x="-310" y="1947" as="sourcePoint" />
            <mxPoint x="-310" y="1907" as="targetPoint" />
          </mxGeometry>
        </mxCell>
        <mxCell id="6It8izAJIYI-ex1_182m-415" value="&lt;font style=&quot;font-size: 20px;&quot;&gt;用户界面层&lt;/font&gt;" style="whiteSpace=wrap;html=1;aspect=fixed;" parent="1" vertex="1">
          <mxGeometry x="-1160" y="2200" width="120" height="120" as="geometry" />
        </mxCell>
        <mxCell id="6It8izAJIYI-ex1_182m-416" value="&lt;font style=&quot;font-size: 20px;&quot;&gt;业务逻辑层&lt;/font&gt;" style="whiteSpace=wrap;html=1;aspect=fixed;" parent="1" vertex="1">
          <mxGeometry x="-1160" y="2600" width="120" height="120" as="geometry" />
        </mxCell>
        <mxCell id="6It8izAJIYI-ex1_182m-417" value="&lt;font style=&quot;font-size: 19px;&quot;&gt;数据处理层&lt;/font&gt;" style="whiteSpace=wrap;html=1;aspect=fixed;" parent="1" vertex="1">
          <mxGeometry x="-1160" y="2400" width="120" height="120" as="geometry" />
        </mxCell>
        <mxCell id="6It8izAJIYI-ex1_182m-420" value="&lt;font style=&quot;font-size: 20px;&quot;&gt;数据库&lt;/font&gt;" style="whiteSpace=wrap;html=1;aspect=fixed;" parent="1" vertex="1">
          <mxGeometry x="-1160" y="2800" width="120" height="120" as="geometry" />
        </mxCell>
        <mxCell id="6It8izAJIYI-ex1_182m-421" value="" style="rounded=0;whiteSpace=wrap;html=1;" parent="1" vertex="1">
          <mxGeometry x="-1010" y="2200" width="610" height="120" as="geometry" />
        </mxCell>
        <mxCell id="6It8izAJIYI-ex1_182m-422" value="" style="rounded=0;whiteSpace=wrap;html=1;" parent="1" vertex="1">
          <mxGeometry x="-1000" y="2600" width="600" height="120" as="geometry" />
        </mxCell>
        <mxCell id="6It8izAJIYI-ex1_182m-424" value="" style="rounded=0;whiteSpace=wrap;html=1;" parent="1" vertex="1">
          <mxGeometry x="-1000" y="2800" width="600" height="120" as="geometry" />
        </mxCell>
        <mxCell id="6It8izAJIYI-ex1_182m-426" value="&lt;font style=&quot;font-size: 16px;&quot;&gt;志愿者服务网站前台&lt;/font&gt;" style="rounded=0;whiteSpace=wrap;html=1;" parent="1" vertex="1">
          <mxGeometry x="-990" y="2230" width="150" height="60" as="geometry" />
        </mxCell>
        <mxCell id="6It8izAJIYI-ex1_182m-427" value="&lt;font style=&quot;font-size: 16px;&quot;&gt;团队管理员后台&lt;/font&gt;" style="rounded=0;whiteSpace=wrap;html=1;" parent="1" vertex="1">
          <mxGeometry x="-780" y="2230" width="150" height="60" as="geometry" />
        </mxCell>
        <mxCell id="6It8izAJIYI-ex1_182m-428" value="&lt;font style=&quot;font-size: 16px;&quot;&gt;系统管理员后台&lt;/font&gt;" style="rounded=0;whiteSpace=wrap;html=1;" parent="1" vertex="1">
          <mxGeometry x="-570" y="2230" width="150" height="60" as="geometry" />
        </mxCell>
        <mxCell id="6It8izAJIYI-ex1_182m-429" value="&lt;font style=&quot;font-size: 16px;&quot;&gt;注册登录&lt;/font&gt;" style="rounded=0;whiteSpace=wrap;html=1;" parent="1" vertex="1">
          <mxGeometry x="-990" y="2609" width="120" height="40" as="geometry" />
        </mxCell>
        <mxCell id="6It8izAJIYI-ex1_182m-432" value="&lt;font style=&quot;font-size: 16px;&quot;&gt;权限分配&lt;/font&gt;" style="rounded=0;whiteSpace=wrap;html=1;" parent="1" vertex="1">
          <mxGeometry x="-990" y="2669" width="120" height="40" as="geometry" />
        </mxCell>
        <mxCell id="6It8izAJIYI-ex1_182m-433" value="&lt;font style=&quot;font-size: 16px;&quot;&gt;发布动态&lt;/font&gt;" style="rounded=0;whiteSpace=wrap;html=1;" parent="1" vertex="1">
          <mxGeometry x="-710" y="2609" width="120" height="40" as="geometry" />
        </mxCell>
        <mxCell id="6It8izAJIYI-ex1_182m-434" value="&lt;font style=&quot;font-size: 16px;&quot;&gt;发布活动&lt;/font&gt;" style="rounded=0;whiteSpace=wrap;html=1;" parent="1" vertex="1">
          <mxGeometry x="-850" y="2609" width="120" height="40" as="geometry" />
        </mxCell>
        <mxCell id="6It8izAJIYI-ex1_182m-435" value="&lt;font style=&quot;font-size: 16px;&quot;&gt;参加活动&lt;/font&gt;" style="rounded=0;whiteSpace=wrap;html=1;" parent="1" vertex="1">
          <mxGeometry x="-850" y="2669" width="120" height="40" as="geometry" />
        </mxCell>
        <mxCell id="6It8izAJIYI-ex1_182m-437" value="&lt;font style=&quot;font-size: 16px;&quot;&gt;创建团体&lt;/font&gt;" style="rounded=0;whiteSpace=wrap;html=1;" parent="1" vertex="1">
          <mxGeometry x="-570" y="2609" width="120" height="40" as="geometry" />
        </mxCell>
        <mxCell id="6It8izAJIYI-ex1_182m-438" value="&lt;font style=&quot;font-size: 16px;&quot;&gt;加入团体&lt;/font&gt;" style="rounded=0;whiteSpace=wrap;html=1;" parent="1" vertex="1">
          <mxGeometry x="-570" y="2669" width="120" height="40" as="geometry" />
        </mxCell>
        <mxCell id="6It8izAJIYI-ex1_182m-439" value="&lt;font style=&quot;font-size: 16px;&quot;&gt;评论动态&lt;/font&gt;" style="rounded=0;whiteSpace=wrap;html=1;" parent="1" vertex="1">
          <mxGeometry x="-710" y="2669" width="120" height="40" as="geometry" />
        </mxCell>
        <mxCell id="6It8izAJIYI-ex1_182m-440" style="edgeStyle=orthogonalEdgeStyle;rounded=0;orthogonalLoop=1;jettySize=auto;html=1;exitX=0.5;exitY=1;exitDx=0;exitDy=0;" parent="1" source="6It8izAJIYI-ex1_182m-439" target="6It8izAJIYI-ex1_182m-439" edge="1">
          <mxGeometry relative="1" as="geometry" />
        </mxCell>
        <mxCell id="6It8izAJIYI-ex1_182m-443" value="&lt;font style=&quot;font-size: 20px;&quot;&gt;...&lt;/font&gt;" style="text;html=1;align=center;verticalAlign=middle;resizable=0;points=[];autosize=1;strokeColor=none;fillColor=none;" parent="1" vertex="1">
          <mxGeometry x="-450" y="2640" width="40" height="40" as="geometry" />
        </mxCell>
        <mxCell id="6It8izAJIYI-ex1_182m-447" value="" style="rounded=0;whiteSpace=wrap;html=1;" parent="1" vertex="1">
          <mxGeometry x="-1000" y="2400" width="600" height="120" as="geometry" />
        </mxCell>
        <mxCell id="6It8izAJIYI-ex1_182m-456" style="edgeStyle=orthogonalEdgeStyle;rounded=0;orthogonalLoop=1;jettySize=auto;html=1;exitX=0.5;exitY=1;exitDx=0;exitDy=0;" parent="1" edge="1">
          <mxGeometry relative="1" as="geometry">
            <mxPoint x="-725" y="2509" as="sourcePoint" />
            <mxPoint x="-725" y="2509" as="targetPoint" />
          </mxGeometry>
        </mxCell>
        <mxCell id="6It8izAJIYI-ex1_182m-468" style="edgeStyle=orthogonalEdgeStyle;rounded=0;orthogonalLoop=1;jettySize=auto;html=1;exitX=1;exitY=0.5;exitDx=0;exitDy=0;entryX=0;entryY=0.5;entryDx=0;entryDy=0;" parent="1" source="6It8izAJIYI-ex1_182m-458" target="6It8izAJIYI-ex1_182m-459" edge="1">
          <mxGeometry relative="1" as="geometry" />
        </mxCell>
        <mxCell id="6It8izAJIYI-ex1_182m-458" value="&lt;font style=&quot;font-size: 18px;&quot;&gt;中间件（Middlewares）&lt;/font&gt;" style="rounded=0;whiteSpace=wrap;html=1;" parent="1" vertex="1">
          <mxGeometry x="-990" y="2430" width="120" height="60" as="geometry" />
        </mxCell>
        <mxCell id="6It8izAJIYI-ex1_182m-469" style="edgeStyle=orthogonalEdgeStyle;rounded=0;orthogonalLoop=1;jettySize=auto;html=1;exitX=1;exitY=0.5;exitDx=0;exitDy=0;entryX=0;entryY=0.5;entryDx=0;entryDy=0;" parent="1" source="6It8izAJIYI-ex1_182m-459" target="6It8izAJIYI-ex1_182m-464" edge="1">
          <mxGeometry relative="1" as="geometry" />
        </mxCell>
        <mxCell id="6It8izAJIYI-ex1_182m-459" value="&lt;font style=&quot;font-size: 18px;&quot;&gt;管道&lt;br&gt;（Pipes）&lt;/font&gt;" style="rounded=0;whiteSpace=wrap;html=1;" parent="1" vertex="1">
          <mxGeometry x="-840" y="2430" width="120" height="60" as="geometry" />
        </mxCell>
        <mxCell id="6It8izAJIYI-ex1_182m-470" style="edgeStyle=orthogonalEdgeStyle;rounded=0;orthogonalLoop=1;jettySize=auto;html=1;exitX=1;exitY=0.5;exitDx=0;exitDy=0;entryX=0;entryY=0.5;entryDx=0;entryDy=0;" parent="1" source="6It8izAJIYI-ex1_182m-464" target="6It8izAJIYI-ex1_182m-465" edge="1">
          <mxGeometry relative="1" as="geometry" />
        </mxCell>
        <mxCell id="6It8izAJIYI-ex1_182m-464" value="&lt;font style=&quot;font-size: 18px;&quot;&gt;卫兵（Guards）&lt;/font&gt;" style="rounded=0;whiteSpace=wrap;html=1;" parent="1" vertex="1">
          <mxGeometry x="-690" y="2430" width="120" height="60" as="geometry" />
        </mxCell>
        <mxCell id="6It8izAJIYI-ex1_182m-465" value="&lt;font style=&quot;font-size: 18px;&quot;&gt;拦截器（Interceptors）&lt;/font&gt;" style="rounded=0;whiteSpace=wrap;html=1;" parent="1" vertex="1">
          <mxGeometry x="-540" y="2430" width="120" height="60" as="geometry" />
        </mxCell>
        <mxCell id="6It8izAJIYI-ex1_182m-471" value="&lt;span style=&quot;font-size: 18px;&quot;&gt;数据表&lt;/span&gt;" style="rounded=0;whiteSpace=wrap;html=1;" parent="1" vertex="1">
          <mxGeometry x="-750" y="2830" width="100" height="60" as="geometry" />
        </mxCell>
        <mxCell id="6It8izAJIYI-ex1_182m-472" value="&lt;span style=&quot;font-size: 18px;&quot;&gt;实体&lt;/span&gt;" style="rounded=0;whiteSpace=wrap;html=1;" parent="1" vertex="1">
          <mxGeometry x="-990" y="2830" width="100" height="60" as="geometry" />
        </mxCell>
        <mxCell id="6It8izAJIYI-ex1_182m-473" value="&lt;span style=&quot;font-size: 18px;&quot;&gt;关系&lt;/span&gt;" style="rounded=0;whiteSpace=wrap;html=1;" parent="1" vertex="1">
          <mxGeometry x="-870" y="2830" width="100" height="60" as="geometry" />
        </mxCell>
        <mxCell id="6It8izAJIYI-ex1_182m-474" value="&lt;span style=&quot;font-size: 18px;&quot;&gt;查询构造器&lt;/span&gt;" style="rounded=0;whiteSpace=wrap;html=1;" parent="1" vertex="1">
          <mxGeometry x="-630" y="2830" width="100" height="60" as="geometry" />
        </mxCell>
        <mxCell id="6It8izAJIYI-ex1_182m-475" value="&lt;span style=&quot;font-size: 18px;&quot;&gt;备份与恢复&lt;/span&gt;" style="rounded=0;whiteSpace=wrap;html=1;" parent="1" vertex="1">
          <mxGeometry x="-510" y="2830" width="100" height="60" as="geometry" />
        </mxCell>
        <mxCell id="X2F0OqijtuFbvCYJFwav-1" value="浏览器" style="rounded=0;whiteSpace=wrap;html=1;fontSize=16;" parent="1" vertex="1">
          <mxGeometry x="-1160" y="3000" width="120" height="280" as="geometry" />
        </mxCell>
        <mxCell id="X2F0OqijtuFbvCYJFwav-2" value="服务器" style="rounded=0;whiteSpace=wrap;html=1;fontSize=16;" parent="1" vertex="1">
          <mxGeometry x="-520" y="3000" width="120" height="280" as="geometry" />
        </mxCell>
        <mxCell id="X2F0OqijtuFbvCYJFwav-3" value="" style="shape=flexArrow;endArrow=classic;html=1;rounded=0;fontSize=12;startSize=8;endSize=11.17;curved=1;width=29;" parent="1" edge="1">
          <mxGeometry width="50" height="50" relative="1" as="geometry">
            <mxPoint x="-1030" y="3020" as="sourcePoint" />
            <mxPoint x="-530" y="3020" as="targetPoint" />
            <Array as="points" />
          </mxGeometry>
        </mxCell>
        <mxCell id="X2F0OqijtuFbvCYJFwav-7" value="1.POST /user/login 输入用户名和密码进行登录" style="edgeLabel;html=1;align=center;verticalAlign=middle;resizable=0;points=[];fontSize=16;" parent="X2F0OqijtuFbvCYJFwav-3" vertex="1" connectable="0">
          <mxGeometry x="-0.892" y="5" relative="1" as="geometry">
            <mxPoint x="213" y="5" as="offset" />
          </mxGeometry>
        </mxCell>
        <mxCell id="X2F0OqijtuFbvCYJFwav-8" value="2.服务器端使用密钥创建JWT" style="rounded=0;whiteSpace=wrap;html=1;fontSize=16;" parent="1" vertex="1">
          <mxGeometry x="-510" y="3010" width="100" height="80" as="geometry" />
        </mxCell>
        <mxCell id="X2F0OqijtuFbvCYJFwav-9" value="" style="shape=flexArrow;endArrow=classic;html=1;rounded=0;fontSize=12;startSize=8;endSize=8;curved=1;endWidth=26;width=29;" parent="1" edge="1">
          <mxGeometry width="50" height="50" relative="1" as="geometry">
            <mxPoint x="-530" y="3080" as="sourcePoint" />
            <mxPoint x="-1030" y="3080" as="targetPoint" />
          </mxGeometry>
        </mxCell>
        <mxCell id="X2F0OqijtuFbvCYJFwav-10" value="3.把JWT返回给浏览器" style="edgeLabel;html=1;align=center;verticalAlign=middle;resizable=0;points=[];fontSize=16;" parent="X2F0OqijtuFbvCYJFwav-9" vertex="1" connectable="0">
          <mxGeometry x="-0.152" y="3" relative="1" as="geometry">
            <mxPoint x="-38" y="-3" as="offset" />
          </mxGeometry>
        </mxCell>
        <mxCell id="X2F0OqijtuFbvCYJFwav-11" value="" style="shape=flexArrow;endArrow=classic;html=1;rounded=0;fontSize=12;startSize=8;endSize=11.17;curved=1;width=29;" parent="1" edge="1">
          <mxGeometry width="50" height="50" relative="1" as="geometry">
            <mxPoint x="-1030" y="3190" as="sourcePoint" />
            <mxPoint x="-530" y="3190" as="targetPoint" />
            <Array as="points" />
          </mxGeometry>
        </mxCell>
        <mxCell id="X2F0OqijtuFbvCYJFwav-12" value="4.在发送服务器的请求头中加上JWT" style="edgeLabel;html=1;align=center;verticalAlign=middle;resizable=0;points=[];fontSize=16;" parent="X2F0OqijtuFbvCYJFwav-11" vertex="1" connectable="0">
          <mxGeometry x="-0.892" y="5" relative="1" as="geometry">
            <mxPoint x="213" y="5" as="offset" />
          </mxGeometry>
        </mxCell>
        <mxCell id="X2F0OqijtuFbvCYJFwav-13" value="" style="shape=flexArrow;endArrow=classic;html=1;rounded=0;fontSize=12;startSize=8;endSize=8;curved=1;endWidth=26;width=29;" parent="1" edge="1">
          <mxGeometry width="50" height="50" relative="1" as="geometry">
            <mxPoint x="-530" y="3240" as="sourcePoint" />
            <mxPoint x="-1030" y="3240" as="targetPoint" />
          </mxGeometry>
        </mxCell>
        <mxCell id="X2F0OqijtuFbvCYJFwav-14" value="6.把响应发送给浏览器" style="edgeLabel;html=1;align=center;verticalAlign=middle;resizable=0;points=[];fontSize=16;" parent="X2F0OqijtuFbvCYJFwav-13" vertex="1" connectable="0">
          <mxGeometry x="-0.152" y="3" relative="1" as="geometry">
            <mxPoint x="-38" y="-3" as="offset" />
          </mxGeometry>
        </mxCell>
        <mxCell id="X2F0OqijtuFbvCYJFwav-15" value="5.检查JWT的签名，获得用户信息" style="rounded=0;whiteSpace=wrap;html=1;fontSize=16;" parent="1" vertex="1">
          <mxGeometry x="-510" y="3180" width="100" height="80" as="geometry" />
        </mxCell>
        <mxCell id="ZuzFnm_H6nYWUV70ZURN-14" value="Database" style="strokeWidth=2;html=1;shape=mxgraph.flowchart.database;whiteSpace=wrap;fillColor=#f5f5f5;gradientColor=#b3b3b3;strokeColor=#666666;" parent="1" vertex="1">
          <mxGeometry x="-280" y="4000" width="140" height="90" as="geometry" />
        </mxCell>
        <mxCell id="ZuzFnm_H6nYWUV70ZURN-16" value="" style="rounded=0;whiteSpace=wrap;html=1;fillColor=#fff2cc;strokeColor=#d6b656;" parent="1" vertex="1">
          <mxGeometry x="-750" y="3760" width="430" height="390" as="geometry" />
        </mxCell>
        <mxCell id="ZuzFnm_H6nYWUV70ZURN-2" value="&lt;font style=&quot;font-size: 12px;&quot;&gt;&lt;b&gt;EventModule&lt;/b&gt;&lt;/font&gt;" style="text;html=1;strokeColor=none;fillColor=none;align=center;verticalAlign=middle;whiteSpace=wrap;rounded=0;" parent="1" vertex="1">
          <mxGeometry x="-570" y="3770" width="60" height="30" as="geometry" />
        </mxCell>
        <mxCell id="ZuzFnm_H6nYWUV70ZURN-3" value="" style="rounded=0;whiteSpace=wrap;html=1;fillColor=#9fc5e7;strokeColor=#6c8ebf;" parent="1" vertex="1">
          <mxGeometry x="-740" y="3830" width="160" height="300" as="geometry" />
        </mxCell>
        <mxCell id="ZuzFnm_H6nYWUV70ZURN-19" style="edgeStyle=orthogonalEdgeStyle;rounded=0;orthogonalLoop=1;jettySize=auto;html=1;entryX=-0.018;entryY=0.263;entryDx=0;entryDy=0;entryPerimeter=0;" parent="1" source="ZuzFnm_H6nYWUV70ZURN-5" target="ZuzFnm_H6nYWUV70ZURN-15" edge="1">
          <mxGeometry relative="1" as="geometry">
            <mxPoint x="-505" y="3860" as="targetPoint" />
            <Array as="points" />
          </mxGeometry>
        </mxCell>
        <mxCell id="ZuzFnm_H6nYWUV70ZURN-5" value="EventService" style="rounded=0;whiteSpace=wrap;html=1;fillColor=#d5e8d4;strokeColor=#82b366;" parent="1" vertex="1">
          <mxGeometry x="-720" y="3880" width="120" height="40" as="geometry" />
        </mxCell>
        <mxCell id="ZuzFnm_H6nYWUV70ZURN-6" value="findAll" style="rounded=0;whiteSpace=wrap;html=1;fillColor=#dae8fc;strokeColor=#6c8ebf;" parent="1" vertex="1">
          <mxGeometry x="-720" y="3930" width="120" height="40" as="geometry" />
        </mxCell>
        <mxCell id="ZuzFnm_H6nYWUV70ZURN-7" value="findOne" style="rounded=0;whiteSpace=wrap;html=1;fillColor=#dae8fc;strokeColor=#6c8ebf;" parent="1" vertex="1">
          <mxGeometry x="-720" y="3980" width="120" height="40" as="geometry" />
        </mxCell>
        <mxCell id="ZuzFnm_H6nYWUV70ZURN-8" value="update" style="rounded=0;whiteSpace=wrap;html=1;fillColor=#dae8fc;strokeColor=#6c8ebf;" parent="1" vertex="1">
          <mxGeometry x="-720" y="4030" width="120" height="40" as="geometry" />
        </mxCell>
        <mxCell id="ZuzFnm_H6nYWUV70ZURN-9" value="delete" style="rounded=0;whiteSpace=wrap;html=1;fillColor=#dae8fc;strokeColor=#6c8ebf;" parent="1" vertex="1">
          <mxGeometry x="-720" y="4080" width="120" height="40" as="geometry" />
        </mxCell>
        <mxCell id="ZuzFnm_H6nYWUV70ZURN-17" value="/api/events/" style="text;whiteSpace=wrap;html=1;" parent="1" vertex="1">
          <mxGeometry x="-740" y="3800" width="90" height="40" as="geometry" />
        </mxCell>
        <mxCell id="ZuzFnm_H6nYWUV70ZURN-15" value="" style="rounded=0;whiteSpace=wrap;html=1;fillColor=#d5e8d4;strokeColor=#82b366;" parent="1" vertex="1">
          <mxGeometry x="-500" y="3860" width="140" height="150" as="geometry" />
        </mxCell>
        <mxCell id="ZuzFnm_H6nYWUV70ZURN-12" value="Database Config" style="rounded=0;whiteSpace=wrap;html=1;fillColor=#fff2cc;strokeColor=#d6b656;" parent="1" vertex="1">
          <mxGeometry x="-490" y="3910" width="120" height="40" as="geometry" />
        </mxCell>
        <mxCell id="ZuzFnm_H6nYWUV70ZURN-18" style="edgeStyle=orthogonalEdgeStyle;rounded=0;orthogonalLoop=1;jettySize=auto;html=1;" parent="1" source="ZuzFnm_H6nYWUV70ZURN-13" edge="1">
          <mxGeometry relative="1" as="geometry">
            <mxPoint x="-280" y="4050" as="targetPoint" />
            <Array as="points">
              <mxPoint x="-420" y="4050" />
              <mxPoint x="-282" y="4050" />
            </Array>
          </mxGeometry>
        </mxCell>
        <mxCell id="ZuzFnm_H6nYWUV70ZURN-13" value="Event Repository" style="rounded=0;whiteSpace=wrap;html=1;fillColor=#fff2cc;strokeColor=#d6b656;" parent="1" vertex="1">
          <mxGeometry x="-490" y="3960" width="120" height="40" as="geometry" />
        </mxCell>
        <mxCell id="ZuzFnm_H6nYWUV70ZURN-11" value="EventService" style="text;html=1;strokeColor=none;fillColor=none;align=center;verticalAlign=middle;whiteSpace=wrap;rounded=0;" parent="1" vertex="1">
          <mxGeometry x="-460" y="3870" width="60" height="30" as="geometry" />
        </mxCell>
        <mxCell id="ZuzFnm_H6nYWUV70ZURN-20" value="EventController" style="text;html=1;strokeColor=none;fillColor=none;align=center;verticalAlign=middle;whiteSpace=wrap;rounded=0;" parent="1" vertex="1">
          <mxGeometry x="-690" y="3840" width="60" height="30" as="geometry" />
        </mxCell>
        <mxCell id="TiAltM_BMlW-H81lQEW8-1" value="用户1" style="ellipse;whiteSpace=wrap;html=1;" parent="1" vertex="1">
          <mxGeometry x="-1080" y="3390" width="120" height="50" as="geometry" />
        </mxCell>
        <mxCell id="TiAltM_BMlW-H81lQEW8-2" value="用户2" style="ellipse;whiteSpace=wrap;html=1;" parent="1" vertex="1">
          <mxGeometry x="-1080" y="3470" width="120" height="50" as="geometry" />
        </mxCell>
        <mxCell id="TiAltM_BMlW-H81lQEW8-3" value="用户3" style="ellipse;whiteSpace=wrap;html=1;" parent="1" vertex="1">
          <mxGeometry x="-1080" y="3560" width="120" height="50" as="geometry" />
        </mxCell>
        <mxCell id="TiAltM_BMlW-H81lQEW8-4" value="角色1" style="rounded=0;whiteSpace=wrap;html=1;" parent="1" vertex="1">
          <mxGeometry x="-880" y="3360" width="110" height="40" as="geometry" />
        </mxCell>
        <mxCell id="TiAltM_BMlW-H81lQEW8-6" value="角色2" style="rounded=0;whiteSpace=wrap;html=1;" parent="1" vertex="1">
          <mxGeometry x="-880" y="3440" width="110" height="40" as="geometry" />
        </mxCell>
        <mxCell id="TiAltM_BMlW-H81lQEW8-7" value="角色3" style="rounded=0;whiteSpace=wrap;html=1;" parent="1" vertex="1">
          <mxGeometry x="-880" y="3520" width="110" height="40" as="geometry" />
        </mxCell>
        <mxCell id="TiAltM_BMlW-H81lQEW8-8" value="角色n" style="rounded=0;whiteSpace=wrap;html=1;" parent="1" vertex="1">
          <mxGeometry x="-880" y="3600" width="110" height="40" as="geometry" />
        </mxCell>
        <mxCell id="TiAltM_BMlW-H81lQEW8-12" value="权限1" style="rounded=1;whiteSpace=wrap;html=1;" parent="1" vertex="1">
          <mxGeometry x="-680" y="3380" width="120" height="30" as="geometry" />
        </mxCell>
        <mxCell id="TiAltM_BMlW-H81lQEW8-14" value="权限2" style="rounded=1;whiteSpace=wrap;html=1;" parent="1" vertex="1">
          <mxGeometry x="-680" y="3430" width="120" height="30" as="geometry" />
        </mxCell>
        <mxCell id="TiAltM_BMlW-H81lQEW8-15" value="权限3" style="rounded=1;whiteSpace=wrap;html=1;" parent="1" vertex="1">
          <mxGeometry x="-680" y="3480" width="120" height="30" as="geometry" />
        </mxCell>
        <mxCell id="TiAltM_BMlW-H81lQEW8-16" value="权限4" style="rounded=1;whiteSpace=wrap;html=1;" parent="1" vertex="1">
          <mxGeometry x="-680" y="3530" width="120" height="30" as="geometry" />
        </mxCell>
        <mxCell id="TiAltM_BMlW-H81lQEW8-18" value="权限n" style="rounded=1;whiteSpace=wrap;html=1;" parent="1" vertex="1">
          <mxGeometry x="-680" y="3580" width="120" height="30" as="geometry" />
        </mxCell>
        <mxCell id="TiAltM_BMlW-H81lQEW8-19" value="" style="endArrow=classic;html=1;rounded=0;entryX=-0.014;entryY=0.463;entryDx=0;entryDy=0;entryPerimeter=0;" parent="1" target="TiAltM_BMlW-H81lQEW8-4" edge="1">
          <mxGeometry width="50" height="50" relative="1" as="geometry">
            <mxPoint x="-960" y="3410" as="sourcePoint" />
            <mxPoint x="-910" y="3360" as="targetPoint" />
          </mxGeometry>
        </mxCell>
        <mxCell id="TiAltM_BMlW-H81lQEW8-20" value="" style="endArrow=classic;html=1;rounded=0;" parent="1" edge="1">
          <mxGeometry width="50" height="50" relative="1" as="geometry">
            <mxPoint x="-960" y="3490" as="sourcePoint" />
            <mxPoint x="-880" y="3380" as="targetPoint" />
          </mxGeometry>
        </mxCell>
        <mxCell id="TiAltM_BMlW-H81lQEW8-21" value="" style="endArrow=classic;html=1;rounded=0;entryX=-0.036;entryY=0.488;entryDx=0;entryDy=0;entryPerimeter=0;" parent="1" target="TiAltM_BMlW-H81lQEW8-8" edge="1">
          <mxGeometry width="50" height="50" relative="1" as="geometry">
            <mxPoint x="-960" y="3490" as="sourcePoint" />
            <mxPoint x="-910" y="3440" as="targetPoint" />
          </mxGeometry>
        </mxCell>
        <mxCell id="TiAltM_BMlW-H81lQEW8-22" value="" style="endArrow=classic;html=1;rounded=0;entryX=-0.027;entryY=0.563;entryDx=0;entryDy=0;entryPerimeter=0;" parent="1" target="TiAltM_BMlW-H81lQEW8-6" edge="1">
          <mxGeometry width="50" height="50" relative="1" as="geometry">
            <mxPoint x="-960" y="3580" as="sourcePoint" />
            <mxPoint x="-886" y="3466" as="targetPoint" />
          </mxGeometry>
        </mxCell>
        <mxCell id="TiAltM_BMlW-H81lQEW8-23" value="" style="endArrow=classic;html=1;rounded=0;entryX=-0.025;entryY=0.433;entryDx=0;entryDy=0;entryPerimeter=0;" parent="1" target="TiAltM_BMlW-H81lQEW8-12" edge="1">
          <mxGeometry width="50" height="50" relative="1" as="geometry">
            <mxPoint x="-770" y="3380" as="sourcePoint" />
            <mxPoint x="-720" y="3330" as="targetPoint" />
          </mxGeometry>
        </mxCell>
        <mxCell id="TiAltM_BMlW-H81lQEW8-24" value="" style="endArrow=classic;html=1;rounded=0;entryX=-0.017;entryY=0.65;entryDx=0;entryDy=0;entryPerimeter=0;" parent="1" target="TiAltM_BMlW-H81lQEW8-14" edge="1">
          <mxGeometry width="50" height="50" relative="1" as="geometry">
            <mxPoint x="-770" y="3380" as="sourcePoint" />
            <mxPoint x="-720" y="3330" as="targetPoint" />
          </mxGeometry>
        </mxCell>
        <mxCell id="TiAltM_BMlW-H81lQEW8-25" value="" style="endArrow=classic;html=1;rounded=0;entryX=0;entryY=0.617;entryDx=0;entryDy=0;entryPerimeter=0;" parent="1" target="TiAltM_BMlW-H81lQEW8-15" edge="1">
          <mxGeometry width="50" height="50" relative="1" as="geometry">
            <mxPoint x="-770" y="3460" as="sourcePoint" />
            <mxPoint x="-720" y="3410" as="targetPoint" />
          </mxGeometry>
        </mxCell>
        <mxCell id="TiAltM_BMlW-H81lQEW8-26" value="" style="endArrow=classic;html=1;rounded=0;" parent="1" edge="1">
          <mxGeometry width="50" height="50" relative="1" as="geometry">
            <mxPoint x="-770" y="3540" as="sourcePoint" />
            <mxPoint x="-680" y="3594" as="targetPoint" />
          </mxGeometry>
        </mxCell>
        <mxCell id="TiAltM_BMlW-H81lQEW8-27" value="" style="endArrow=classic;html=1;rounded=0;entryX=0.013;entryY=0.633;entryDx=0;entryDy=0;entryPerimeter=0;" parent="1" target="TiAltM_BMlW-H81lQEW8-18" edge="1">
          <mxGeometry width="50" height="50" relative="1" as="geometry">
            <mxPoint x="-770" y="3620" as="sourcePoint" />
            <mxPoint x="-680" y="3590" as="targetPoint" />
          </mxGeometry>
        </mxCell>
        <mxCell id="TiAltM_BMlW-H81lQEW8-28" value="" style="endArrow=classic;html=1;rounded=0;entryX=-0.042;entryY=0.767;entryDx=0;entryDy=0;entryPerimeter=0;" parent="1" target="TiAltM_BMlW-H81lQEW8-12" edge="1">
          <mxGeometry width="50" height="50" relative="1" as="geometry">
            <mxPoint x="-770" y="3540" as="sourcePoint" />
            <mxPoint x="-720" y="3490" as="targetPoint" />
          </mxGeometry>
        </mxCell>
        <mxCell id="pwB6OSFCZt8ZQGtAufXG-1" value="Header" style="rounded=0;whiteSpace=wrap;html=1;strokeColor=#3333FF;" parent="1" vertex="1">
          <mxGeometry x="-1080" y="3700" width="280" height="40" as="geometry" />
        </mxCell>
        <mxCell id="pwB6OSFCZt8ZQGtAufXG-2" value="" style="rounded=0;whiteSpace=wrap;html=1;strokeColor=#3333FF;" parent="1" vertex="1">
          <mxGeometry x="-1080" y="3760" width="280" height="100" as="geometry" />
        </mxCell>
        <mxCell id="pwB6OSFCZt8ZQGtAufXG-3" value="Footer" style="rounded=0;whiteSpace=wrap;html=1;strokeColor=#3333FF;" parent="1" vertex="1">
          <mxGeometry x="-1080" y="3880" width="280" height="40" as="geometry" />
        </mxCell>
        <mxCell id="pwB6OSFCZt8ZQGtAufXG-4" value="Page-One" style="whiteSpace=wrap;html=1;aspect=fixed;strokeColor=#3333FF;" parent="1" vertex="1">
          <mxGeometry x="-1070" y="3770" width="80" height="80" as="geometry" />
        </mxCell>
        <mxCell id="pwB6OSFCZt8ZQGtAufXG-5" value="Page-Two" style="whiteSpace=wrap;html=1;aspect=fixed;strokeColor=#3333FF;" parent="1" vertex="1">
          <mxGeometry x="-980" y="3770" width="80" height="80" as="geometry" />
        </mxCell>
        <mxCell id="pwB6OSFCZt8ZQGtAufXG-6" value="Page-Three" style="whiteSpace=wrap;html=1;aspect=fixed;strokeColor=#3333FF;" parent="1" vertex="1">
          <mxGeometry x="-890" y="3770" width="80" height="80" as="geometry" />
        </mxCell>
        <mxCell id="HDfOtEftV60nVhhCIzRP-1" value="客户端" style="whiteSpace=wrap;html=1;aspect=fixed;" parent="1" vertex="1">
          <mxGeometry x="-1120" y="4320" width="80" height="80" as="geometry" />
        </mxCell>
        <mxCell id="HDfOtEftV60nVhhCIzRP-2" value="" style="endArrow=none;dashed=1;html=1;rounded=0;" parent="1" edge="1">
          <mxGeometry width="50" height="50" relative="1" as="geometry">
            <mxPoint x="-960" y="4240" as="sourcePoint" />
            <mxPoint x="-840" y="4240" as="targetPoint" />
          </mxGeometry>
        </mxCell>
        <mxCell id="HDfOtEftV60nVhhCIzRP-3" value="1.解析HTTP请求&lt;br&gt;2.请求服务器RESTFUL方法" style="whiteSpace=wrap;html=1;aspect=fixed;" parent="1" vertex="1">
          <mxGeometry x="-940" y="4260" width="80" height="80" as="geometry" />
        </mxCell>
        <mxCell id="HDfOtEftV60nVhhCIzRP-4" value="渲染JSON+模板" style="whiteSpace=wrap;html=1;aspect=fixed;" parent="1" vertex="1">
          <mxGeometry x="-940" y="4370" width="80" height="80" as="geometry" />
        </mxCell>
        <mxCell id="HDfOtEftV60nVhhCIzRP-5" value="" style="endArrow=none;dashed=1;html=1;rounded=0;" parent="1" edge="1">
          <mxGeometry width="50" height="50" relative="1" as="geometry">
            <mxPoint x="-960" y="4470" as="sourcePoint" />
            <mxPoint x="-960" y="4240" as="targetPoint" />
          </mxGeometry>
        </mxCell>
        <mxCell id="HDfOtEftV60nVhhCIzRP-6" value="" style="endArrow=none;dashed=1;html=1;rounded=0;" parent="1" edge="1">
          <mxGeometry width="50" height="50" relative="1" as="geometry">
            <mxPoint x="-840" y="4240" as="sourcePoint" />
            <mxPoint x="-840" y="4470" as="targetPoint" />
          </mxGeometry>
        </mxCell>
        <mxCell id="HDfOtEftV60nVhhCIzRP-7" value="" style="endArrow=none;dashed=1;html=1;rounded=0;" parent="1" edge="1">
          <mxGeometry width="50" height="50" relative="1" as="geometry">
            <mxPoint x="-960" y="4470" as="sourcePoint" />
            <mxPoint x="-840" y="4470" as="targetPoint" />
          </mxGeometry>
        </mxCell>
        <mxCell id="HDfOtEftV60nVhhCIzRP-12" value="" style="endArrow=none;dashed=1;html=1;rounded=0;" parent="1" edge="1">
          <mxGeometry width="50" height="50" relative="1" as="geometry">
            <mxPoint x="-720" y="4240" as="sourcePoint" />
            <mxPoint x="-600" y="4240" as="targetPoint" />
          </mxGeometry>
        </mxCell>
        <mxCell id="HDfOtEftV60nVhhCIzRP-13" value="执行RESTFUL方法" style="whiteSpace=wrap;html=1;aspect=fixed;" parent="1" vertex="1">
          <mxGeometry x="-700" y="4260" width="80" height="80" as="geometry" />
        </mxCell>
        <mxCell id="HDfOtEftV60nVhhCIzRP-14" value="对数据进行逻辑处理" style="whiteSpace=wrap;html=1;aspect=fixed;" parent="1" vertex="1">
          <mxGeometry x="-700" y="4370" width="80" height="80" as="geometry" />
        </mxCell>
        <mxCell id="HDfOtEftV60nVhhCIzRP-15" value="" style="endArrow=none;dashed=1;html=1;rounded=0;" parent="1" edge="1">
          <mxGeometry width="50" height="50" relative="1" as="geometry">
            <mxPoint x="-720" y="4470" as="sourcePoint" />
            <mxPoint x="-720" y="4240" as="targetPoint" />
          </mxGeometry>
        </mxCell>
        <mxCell id="HDfOtEftV60nVhhCIzRP-16" value="" style="endArrow=none;dashed=1;html=1;rounded=0;" parent="1" edge="1">
          <mxGeometry width="50" height="50" relative="1" as="geometry">
            <mxPoint x="-600" y="4240" as="sourcePoint" />
            <mxPoint x="-600" y="4470" as="targetPoint" />
          </mxGeometry>
        </mxCell>
        <mxCell id="HDfOtEftV60nVhhCIzRP-17" value="" style="endArrow=none;dashed=1;html=1;rounded=0;" parent="1" edge="1">
          <mxGeometry width="50" height="50" relative="1" as="geometry">
            <mxPoint x="-720" y="4470" as="sourcePoint" />
            <mxPoint x="-600" y="4470" as="targetPoint" />
          </mxGeometry>
        </mxCell>
        <mxCell id="HDfOtEftV60nVhhCIzRP-18" value="" style="endArrow=classic;html=1;rounded=0;entryX=0.469;entryY=-0.025;entryDx=0;entryDy=0;entryPerimeter=0;" parent="1" target="HDfOtEftV60nVhhCIzRP-3" edge="1">
          <mxGeometry width="50" height="50" relative="1" as="geometry">
            <mxPoint x="-1080" y="4320" as="sourcePoint" />
            <mxPoint x="-1050" y="4140" as="targetPoint" />
            <Array as="points">
              <mxPoint x="-1080" y="4210" />
              <mxPoint x="-902" y="4210" />
            </Array>
          </mxGeometry>
        </mxCell>
        <mxCell id="HDfOtEftV60nVhhCIzRP-25" value="HTTP请求" style="edgeLabel;html=1;align=center;verticalAlign=middle;resizable=0;points=[];" parent="HDfOtEftV60nVhhCIzRP-18" vertex="1" connectable="0">
          <mxGeometry x="-0.0268" relative="1" as="geometry">
            <mxPoint x="27" as="offset" />
          </mxGeometry>
        </mxCell>
        <mxCell id="HDfOtEftV60nVhhCIzRP-19" value="数据库" style="whiteSpace=wrap;html=1;aspect=fixed;" parent="1" vertex="1">
          <mxGeometry x="-520" y="4310" width="80" height="80" as="geometry" />
        </mxCell>
        <mxCell id="HDfOtEftV60nVhhCIzRP-20" value="" style="endArrow=classic;html=1;rounded=0;entryX=-0.012;entryY=0.506;entryDx=0;entryDy=0;entryPerimeter=0;" parent="1" target="HDfOtEftV60nVhhCIzRP-13" edge="1">
          <mxGeometry width="50" height="50" relative="1" as="geometry">
            <mxPoint x="-860" y="4300" as="sourcePoint" />
            <mxPoint x="-810" y="4250" as="targetPoint" />
          </mxGeometry>
        </mxCell>
        <mxCell id="HDfOtEftV60nVhhCIzRP-26" value="call/api" style="edgeLabel;html=1;align=center;verticalAlign=middle;resizable=0;points=[];" parent="HDfOtEftV60nVhhCIzRP-20" vertex="1" connectable="0">
          <mxGeometry x="-0.2643" y="-1" relative="1" as="geometry">
            <mxPoint x="21" y="-1" as="offset" />
          </mxGeometry>
        </mxCell>
        <mxCell id="HDfOtEftV60nVhhCIzRP-21" value="" style="endArrow=classic;html=1;rounded=0;" parent="1" edge="1">
          <mxGeometry width="50" height="50" relative="1" as="geometry">
            <mxPoint x="-666" y="4260" as="sourcePoint" />
            <mxPoint x="-480" y="4310" as="targetPoint" />
            <Array as="points">
              <mxPoint x="-666" y="4210" />
              <mxPoint x="-480" y="4210" />
            </Array>
          </mxGeometry>
        </mxCell>
        <mxCell id="HDfOtEftV60nVhhCIzRP-32" value="读写数据" style="edgeLabel;html=1;align=center;verticalAlign=middle;resizable=0;points=[];" parent="HDfOtEftV60nVhhCIzRP-21" vertex="1" connectable="0">
          <mxGeometry x="-0.0685" y="1" relative="1" as="geometry">
            <mxPoint as="offset" />
          </mxGeometry>
        </mxCell>
        <mxCell id="HDfOtEftV60nVhhCIzRP-22" value="" style="endArrow=classic;html=1;rounded=0;entryX=0.513;entryY=1.025;entryDx=0;entryDy=0;entryPerimeter=0;strokeColor=#a33f3d;" parent="1" target="HDfOtEftV60nVhhCIzRP-14" edge="1">
          <mxGeometry width="50" height="50" relative="1" as="geometry">
            <mxPoint x="-480" y="4390" as="sourcePoint" />
            <mxPoint x="-430" y="4340" as="targetPoint" />
            <Array as="points">
              <mxPoint x="-480" y="4500" />
              <mxPoint x="-659" y="4500" />
            </Array>
          </mxGeometry>
        </mxCell>
        <mxCell id="HDfOtEftV60nVhhCIzRP-31" value="数据" style="edgeLabel;html=1;align=center;verticalAlign=middle;resizable=0;points=[];" parent="HDfOtEftV60nVhhCIzRP-22" vertex="1" connectable="0">
          <mxGeometry x="0.1246" y="1" relative="1" as="geometry">
            <mxPoint x="-1" as="offset" />
          </mxGeometry>
        </mxCell>
        <mxCell id="HDfOtEftV60nVhhCIzRP-23" value="" style="endArrow=classic;html=1;rounded=0;strokeColor=#A33F3D;" parent="1" edge="1">
          <mxGeometry width="50" height="50" relative="1" as="geometry">
            <mxPoint x="-700" y="4410" as="sourcePoint" />
            <mxPoint x="-860" y="4410" as="targetPoint" />
          </mxGeometry>
        </mxCell>
        <mxCell id="HDfOtEftV60nVhhCIzRP-27" value="JSON" style="edgeLabel;html=1;align=center;verticalAlign=middle;resizable=0;points=[];" parent="HDfOtEftV60nVhhCIzRP-23" vertex="1" connectable="0">
          <mxGeometry x="0.1563" y="3" relative="1" as="geometry">
            <mxPoint x="13" y="-3" as="offset" />
          </mxGeometry>
        </mxCell>
        <mxCell id="HDfOtEftV60nVhhCIzRP-24" value="" style="endArrow=classic;html=1;rounded=0;strokeColor=#A33F3D;" parent="1" edge="1">
          <mxGeometry width="50" height="50" relative="1" as="geometry">
            <mxPoint x="-896" y="4450" as="sourcePoint" />
            <mxPoint x="-1080" y="4400" as="targetPoint" />
            <Array as="points">
              <mxPoint x="-896" y="4500" />
              <mxPoint x="-1080" y="4500" />
            </Array>
          </mxGeometry>
        </mxCell>
        <mxCell id="HDfOtEftV60nVhhCIzRP-30" value="HTML" style="edgeLabel;html=1;align=center;verticalAlign=middle;resizable=0;points=[];" parent="HDfOtEftV60nVhhCIzRP-24" vertex="1" connectable="0">
          <mxGeometry x="-0.0749" y="3" relative="1" as="geometry">
            <mxPoint as="offset" />
          </mxGeometry>
        </mxCell>
        <mxCell id="HDfOtEftV60nVhhCIzRP-28" value="Web服务器" style="text;html=1;align=center;verticalAlign=middle;resizable=0;points=[];autosize=1;strokeColor=none;fillColor=none;" parent="1" vertex="1">
          <mxGeometry x="-940" y="4338" width="80" height="30" as="geometry" />
        </mxCell>
        <mxCell id="HDfOtEftV60nVhhCIzRP-29" value="应用服务器" style="text;html=1;align=center;verticalAlign=middle;resizable=0;points=[];autosize=1;strokeColor=none;fillColor=none;" parent="1" vertex="1">
          <mxGeometry x="-695" y="4338" width="80" height="30" as="geometry" />
        </mxCell>
        <mxCell id="HDfOtEftV60nVhhCIzRP-33" value="" style="ellipse;whiteSpace=wrap;html=1;" parent="1" vertex="1">
          <mxGeometry x="-1180" y="4720" width="200" height="40" as="geometry" />
        </mxCell>
        <mxCell id="HDfOtEftV60nVhhCIzRP-34" value="发起访问请求" style="rounded=1;whiteSpace=wrap;html=1;" parent="1" vertex="1">
          <mxGeometry x="-815" y="4520" width="120" height="40" as="geometry" />
        </mxCell>
        <mxCell id="HDfOtEftV60nVhhCIzRP-35" value="服务器" style="rounded=0;whiteSpace=wrap;html=1;" parent="1" vertex="1">
          <mxGeometry x="-815" y="4610" width="125" height="40" as="geometry" />
        </mxCell>
        <mxCell id="HDfOtEftV60nVhhCIzRP-36" value="路由层" style="rhombus;whiteSpace=wrap;html=1;" parent="1" vertex="1">
          <mxGeometry x="-800" y="4700" width="80" height="60" as="geometry" />
        </mxCell>
        <mxCell id="HDfOtEftV60nVhhCIzRP-37" value="GET" style="rounded=0;whiteSpace=wrap;html=1;" parent="1" vertex="1">
          <mxGeometry x="-950" y="4820" width="80" height="30" as="geometry" />
        </mxCell>
        <mxCell id="HDfOtEftV60nVhhCIzRP-38" value="POST" style="rounded=0;whiteSpace=wrap;html=1;" parent="1" vertex="1">
          <mxGeometry x="-850" y="4820" width="80" height="30" as="geometry" />
        </mxCell>
        <mxCell id="HDfOtEftV60nVhhCIzRP-39" value="PUT" style="rounded=0;whiteSpace=wrap;html=1;" parent="1" vertex="1">
          <mxGeometry x="-745" y="4820" width="80" height="30" as="geometry" />
        </mxCell>
        <mxCell id="HDfOtEftV60nVhhCIzRP-40" value="DELETE" style="rounded=0;whiteSpace=wrap;html=1;" parent="1" vertex="1">
          <mxGeometry x="-640" y="4820" width="80" height="30" as="geometry" />
        </mxCell>
        <mxCell id="HDfOtEftV60nVhhCIzRP-41" value="视图" style="rounded=0;whiteSpace=wrap;html=1;" parent="1" vertex="1">
          <mxGeometry x="-960" y="4900" width="100" height="48" as="geometry" />
        </mxCell>
        <mxCell id="HDfOtEftV60nVhhCIzRP-42" value="状态视图" style="rounded=0;whiteSpace=wrap;html=1;" parent="1" vertex="1">
          <mxGeometry x="-750" y="4900" width="100" height="48" as="geometry" />
        </mxCell>
        <mxCell id="HDfOtEftV60nVhhCIzRP-43" value="" style="endArrow=classic;html=1;rounded=0;entryX=0.204;entryY=0.038;entryDx=0;entryDy=0;entryPerimeter=0;" parent="1" target="HDfOtEftV60nVhhCIzRP-35" edge="1">
          <mxGeometry width="50" height="50" relative="1" as="geometry">
            <mxPoint x="-790" y="4560" as="sourcePoint" />
            <mxPoint x="-740" y="4510" as="targetPoint" />
          </mxGeometry>
        </mxCell>
        <mxCell id="HDfOtEftV60nVhhCIzRP-47" value="请求" style="edgeLabel;html=1;align=center;verticalAlign=middle;resizable=0;points=[];" parent="HDfOtEftV60nVhhCIzRP-43" vertex="1" connectable="0">
          <mxGeometry x="-0.534" relative="1" as="geometry">
            <mxPoint y="8" as="offset" />
          </mxGeometry>
        </mxCell>
        <mxCell id="HDfOtEftV60nVhhCIzRP-44" value="" style="endArrow=classic;html=1;rounded=0;" parent="1" edge="1">
          <mxGeometry width="50" height="50" relative="1" as="geometry">
            <mxPoint x="-720" y="4610" as="sourcePoint" />
            <mxPoint x="-720" y="4560" as="targetPoint" />
          </mxGeometry>
        </mxCell>
        <mxCell id="HDfOtEftV60nVhhCIzRP-46" value="返回" style="edgeLabel;html=1;align=center;verticalAlign=middle;resizable=0;points=[];" parent="HDfOtEftV60nVhhCIzRP-44" vertex="1" connectable="0">
          <mxGeometry x="0.44" y="1" relative="1" as="geometry">
            <mxPoint x="1" y="6" as="offset" />
          </mxGeometry>
        </mxCell>
        <mxCell id="HDfOtEftV60nVhhCIzRP-48" value="" style="endArrow=classic;html=1;rounded=0;" parent="1" edge="1">
          <mxGeometry width="50" height="50" relative="1" as="geometry">
            <mxPoint x="-760" y="4650" as="sourcePoint" />
            <mxPoint x="-760" y="4700" as="targetPoint" />
          </mxGeometry>
        </mxCell>
        <mxCell id="HDfOtEftV60nVhhCIzRP-49" value="执行请求" style="edgeLabel;html=1;align=center;verticalAlign=middle;resizable=0;points=[];" parent="HDfOtEftV60nVhhCIzRP-48" vertex="1" connectable="0">
          <mxGeometry x="-0.4" relative="1" as="geometry">
            <mxPoint y="5" as="offset" />
          </mxGeometry>
        </mxCell>
        <mxCell id="HDfOtEftV60nVhhCIzRP-50" value="" style="endArrow=none;html=1;rounded=0;" parent="1" edge="1">
          <mxGeometry width="50" height="50" relative="1" as="geometry">
            <mxPoint x="-1200" y="4620" as="sourcePoint" />
            <mxPoint x="-1150" y="4570" as="targetPoint" />
          </mxGeometry>
        </mxCell>
        <mxCell id="HDfOtEftV60nVhhCIzRP-51" value="" style="endArrow=classic;html=1;rounded=0;" parent="1" edge="1">
          <mxGeometry width="50" height="50" relative="1" as="geometry">
            <mxPoint x="-760" y="4760" as="sourcePoint" />
            <mxPoint x="-913" y="4820" as="targetPoint" />
            <Array as="points">
              <mxPoint x="-760" y="4790" />
              <mxPoint x="-913" y="4790" />
            </Array>
          </mxGeometry>
        </mxCell>
        <mxCell id="HDfOtEftV60nVhhCIzRP-52" value="" style="endArrow=classic;html=1;rounded=0;" parent="1" edge="1">
          <mxGeometry width="50" height="50" relative="1" as="geometry">
            <mxPoint x="-810" y="4790" as="sourcePoint" />
            <mxPoint x="-810" y="4820" as="targetPoint" />
          </mxGeometry>
        </mxCell>
        <mxCell id="HDfOtEftV60nVhhCIzRP-53" value="" style="endArrow=classic;html=1;rounded=0;" parent="1" edge="1">
          <mxGeometry width="50" height="50" relative="1" as="geometry">
            <mxPoint x="-760" y="4790" as="sourcePoint" />
            <mxPoint x="-600" y="4820" as="targetPoint" />
            <Array as="points">
              <mxPoint x="-601" y="4790" />
            </Array>
          </mxGeometry>
        </mxCell>
        <mxCell id="HDfOtEftV60nVhhCIzRP-54" value="" style="endArrow=classic;html=1;rounded=0;" parent="1" edge="1">
          <mxGeometry width="50" height="50" relative="1" as="geometry">
            <mxPoint x="-710" y="4790" as="sourcePoint" />
            <mxPoint x="-710" y="4820" as="targetPoint" />
          </mxGeometry>
        </mxCell>
        <mxCell id="HDfOtEftV60nVhhCIzRP-55" value="" style="endArrow=classic;html=1;rounded=0;" parent="1" target="HDfOtEftV60nVhhCIzRP-41" edge="1">
          <mxGeometry width="50" height="50" relative="1" as="geometry">
            <mxPoint x="-910" y="4850" as="sourcePoint" />
            <mxPoint x="-860" y="4800" as="targetPoint" />
          </mxGeometry>
        </mxCell>
        <mxCell id="HDfOtEftV60nVhhCIzRP-56" value="" style="endArrow=classic;html=1;rounded=0;exitX=0.488;exitY=1.05;exitDx=0;exitDy=0;exitPerimeter=0;" parent="1" source="HDfOtEftV60nVhhCIzRP-38" edge="1">
          <mxGeometry width="50" height="50" relative="1" as="geometry">
            <mxPoint x="-500" y="4810" as="sourcePoint" />
            <mxPoint x="-701" y="4900" as="targetPoint" />
            <Array as="points">
              <mxPoint x="-811" y="4880" />
              <mxPoint x="-701" y="4880" />
            </Array>
          </mxGeometry>
        </mxCell>
        <mxCell id="HDfOtEftV60nVhhCIzRP-58" value="" style="endArrow=none;html=1;rounded=0;" parent="1" edge="1">
          <mxGeometry width="50" height="50" relative="1" as="geometry">
            <mxPoint x="-700" y="4880" as="sourcePoint" />
            <mxPoint x="-600" y="4850" as="targetPoint" />
            <Array as="points">
              <mxPoint x="-600" y="4880" />
            </Array>
          </mxGeometry>
        </mxCell>
        <mxCell id="HDfOtEftV60nVhhCIzRP-59" value="" style="endArrow=none;html=1;rounded=0;" parent="1" edge="1">
          <mxGeometry width="50" height="50" relative="1" as="geometry">
            <mxPoint x="-701" y="4850" as="sourcePoint" />
            <mxPoint x="-701" y="4880" as="targetPoint" />
          </mxGeometry>
        </mxCell>
        <mxCell id="HDfOtEftV60nVhhCIzRP-60" value="" style="endArrow=classic;html=1;rounded=0;" parent="1" edge="1">
          <mxGeometry width="50" height="50" relative="1" as="geometry">
            <mxPoint x="-910.5" y="4948" as="sourcePoint" />
            <mxPoint x="-690" y="4624" as="targetPoint" />
            <Array as="points">
              <mxPoint x="-910" y="5000" />
              <mxPoint x="-520" y="5000" />
              <mxPoint x="-520" y="4710" />
              <mxPoint x="-520" y="4624" />
            </Array>
          </mxGeometry>
        </mxCell>
        <mxCell id="HDfOtEftV60nVhhCIzRP-61" value="输出视图" style="edgeLabel;html=1;align=center;verticalAlign=middle;resizable=0;points=[];" parent="HDfOtEftV60nVhhCIzRP-60" vertex="1" connectable="0">
          <mxGeometry x="0.0972" y="4" relative="1" as="geometry">
            <mxPoint x="4" y="-20" as="offset" />
          </mxGeometry>
        </mxCell>
        <mxCell id="HDfOtEftV60nVhhCIzRP-62" value="" style="endArrow=none;html=1;rounded=0;" parent="1" edge="1">
          <mxGeometry width="50" height="50" relative="1" as="geometry">
            <mxPoint x="-650" y="4920" as="sourcePoint" />
            <mxPoint x="-520" y="4920" as="targetPoint" />
          </mxGeometry>
        </mxCell>
        <mxCell id="ExdCjsC6E9U98bdPJGLs-1" value="" style="rounded=0;whiteSpace=wrap;html=1;" vertex="1" parent="1">
          <mxGeometry x="-1120" y="5080" width="240" height="120" as="geometry" />
        </mxCell>
        <mxCell id="ExdCjsC6E9U98bdPJGLs-2" value="Singleton" style="swimlane;fontStyle=0;childLayout=stackLayout;horizontal=1;startSize=26;horizontalStack=0;resizeParent=1;resizeParentMax=0;resizeLast=0;collapsible=1;marginBottom=0;align=center;fontSize=14;" vertex="1" parent="1">
          <mxGeometry x="-1080" y="5280" width="240" height="116" as="geometry" />
        </mxCell>
        <mxCell id="ExdCjsC6E9U98bdPJGLs-3" value="-instance：Singleton" style="text;strokeColor=none;fillColor=none;spacingLeft=4;spacingRight=4;overflow=hidden;rotatable=0;points=[[0,0.5],[1,0.5]];portConstraint=eastwest;fontSize=12;whiteSpace=wrap;html=1;" vertex="1" parent="ExdCjsC6E9U98bdPJGLs-2">
          <mxGeometry y="26" width="240" height="30" as="geometry" />
        </mxCell>
        <mxCell id="ExdCjsC6E9U98bdPJGLs-4" value="-Singleton()" style="text;strokeColor=none;fillColor=none;spacingLeft=4;spacingRight=4;overflow=hidden;rotatable=0;points=[[0,0.5],[1,0.5]];portConstraint=eastwest;fontSize=12;whiteSpace=wrap;html=1;" vertex="1" parent="ExdCjsC6E9U98bdPJGLs-2">
          <mxGeometry y="56" width="240" height="30" as="geometry" />
        </mxCell>
        <mxCell id="ExdCjsC6E9U98bdPJGLs-5" value="+getInstance():instance:Singleton&lt;br&gt;" style="text;strokeColor=none;fillColor=none;spacingLeft=4;spacingRight=4;overflow=hidden;rotatable=0;points=[[0,0.5],[1,0.5]];portConstraint=eastwest;fontSize=12;whiteSpace=wrap;html=1;" vertex="1" parent="ExdCjsC6E9U98bdPJGLs-2">
          <mxGeometry y="86" width="240" height="30" as="geometry" />
        </mxCell>
        <mxCell id="ExdCjsC6E9U98bdPJGLs-6" value="" style="rhombus;whiteSpace=wrap;html=1;direction=west;" vertex="1" parent="1">
          <mxGeometry x="-840" y="5320" width="30" height="10" as="geometry" />
        </mxCell>
        <mxCell id="ExdCjsC6E9U98bdPJGLs-7" value="" style="endArrow=classic;html=1;rounded=0;entryX=0.5;entryY=-0.034;entryDx=0;entryDy=0;entryPerimeter=0;" edge="1" parent="1" target="ExdCjsC6E9U98bdPJGLs-2">
          <mxGeometry width="50" height="50" relative="1" as="geometry">
            <mxPoint x="-810" y="5324" as="sourcePoint" />
            <mxPoint x="-960" y="5240" as="targetPoint" />
            <Array as="points">
              <mxPoint x="-770" y="5324" />
              <mxPoint x="-770" y="5240" />
              <mxPoint x="-960" y="5240" />
            </Array>
          </mxGeometry>
        </mxCell>
      </root>
    </mxGraphModel>
  </diagram>
  <diagram id="ZBHR0ReJNAIE4WUMpD7F" name="第 2 页">
    <mxGraphModel dx="2082" dy="635" grid="0" gridSize="10" guides="1" tooltips="1" connect="1" arrows="1" fold="1" page="0" pageScale="1" pageWidth="827" pageHeight="1169" math="0" shadow="0">
      <root>
        <mxCell id="0" />
        <mxCell id="1" parent="0" />
        <mxCell id="Am5VoBLF8I1c0vKJ-CCn-1" value="登录开始" style="strokeWidth=2;html=1;shape=mxgraph.flowchart.start_1;whiteSpace=wrap;" parent="1" vertex="1">
          <mxGeometry x="40" y="50" width="100" height="40" as="geometry" />
        </mxCell>
        <mxCell id="Am5VoBLF8I1c0vKJ-CCn-2" value="" style="endArrow=classic;html=1;rounded=0;exitX=0.5;exitY=1;exitDx=0;exitDy=0;exitPerimeter=0;" parent="1" source="Am5VoBLF8I1c0vKJ-CCn-1" edge="1">
          <mxGeometry width="50" height="50" relative="1" as="geometry">
            <mxPoint x="70" y="170" as="sourcePoint" />
            <mxPoint x="90" y="160" as="targetPoint" />
          </mxGeometry>
        </mxCell>
        <mxCell id="Am5VoBLF8I1c0vKJ-CCn-3" value="用户输入" style="shape=parallelogram;html=1;strokeWidth=2;perimeter=parallelogramPerimeter;whiteSpace=wrap;rounded=1;arcSize=12;size=0.23;" parent="1" vertex="1">
          <mxGeometry x="40" y="160" width="100" height="60" as="geometry" />
        </mxCell>
        <mxCell id="Am5VoBLF8I1c0vKJ-CCn-4" value="" style="endArrow=classic;html=1;rounded=0;" parent="1" edge="1">
          <mxGeometry width="50" height="50" relative="1" as="geometry">
            <mxPoint x="90" y="220" as="sourcePoint" />
            <mxPoint x="90" y="280" as="targetPoint" />
          </mxGeometry>
        </mxCell>
        <mxCell id="Am5VoBLF8I1c0vKJ-CCn-5" value="验证表单" style="rounded=1;whiteSpace=wrap;html=1;absoluteArcSize=1;arcSize=14;strokeWidth=2;" parent="1" vertex="1">
          <mxGeometry x="40" y="280" width="100" height="40" as="geometry" />
        </mxCell>
        <mxCell id="Am5VoBLF8I1c0vKJ-CCn-6" value="" style="endArrow=classic;html=1;rounded=0;entryX=0.5;entryY=0;entryDx=0;entryDy=0;entryPerimeter=0;exitX=0.5;exitY=1;exitDx=0;exitDy=0;" parent="1" source="Am5VoBLF8I1c0vKJ-CCn-5" target="Am5VoBLF8I1c0vKJ-CCn-8" edge="1">
          <mxGeometry width="50" height="50" relative="1" as="geometry">
            <mxPoint x="94" y="320" as="sourcePoint" />
            <mxPoint x="94" y="400" as="targetPoint" />
          </mxGeometry>
        </mxCell>
        <mxCell id="Am5VoBLF8I1c0vKJ-CCn-7" value="" style="edgeStyle=orthogonalEdgeStyle;rounded=0;orthogonalLoop=1;jettySize=auto;html=1;" parent="1" source="Am5VoBLF8I1c0vKJ-CCn-8" target="Am5VoBLF8I1c0vKJ-CCn-10" edge="1">
          <mxGeometry relative="1" as="geometry" />
        </mxCell>
        <mxCell id="Am5VoBLF8I1c0vKJ-CCn-8" value="表单字段验证通过" style="strokeWidth=2;html=1;shape=mxgraph.flowchart.decision;whiteSpace=wrap;" parent="1" vertex="1">
          <mxGeometry x="40" y="400" width="100" height="100" as="geometry" />
        </mxCell>
        <mxCell id="Am5VoBLF8I1c0vKJ-CCn-9" value="" style="edgeStyle=orthogonalEdgeStyle;rounded=0;orthogonalLoop=1;jettySize=auto;html=1;" parent="1" source="Am5VoBLF8I1c0vKJ-CCn-10" target="Am5VoBLF8I1c0vKJ-CCn-13" edge="1">
          <mxGeometry relative="1" as="geometry" />
        </mxCell>
        <mxCell id="Am5VoBLF8I1c0vKJ-CCn-10" value="发送HTTP请求" style="whiteSpace=wrap;html=1;strokeWidth=2;" parent="1" vertex="1">
          <mxGeometry x="30" y="560" width="120" height="60" as="geometry" />
        </mxCell>
        <mxCell id="Am5VoBLF8I1c0vKJ-CCn-11" value="Y" style="text;html=1;align=center;verticalAlign=middle;resizable=0;points=[];autosize=1;strokeColor=none;fillColor=none;" parent="1" vertex="1">
          <mxGeometry x="90" y="510" width="30" height="30" as="geometry" />
        </mxCell>
        <mxCell id="Am5VoBLF8I1c0vKJ-CCn-12" value="" style="edgeStyle=orthogonalEdgeStyle;rounded=0;orthogonalLoop=1;jettySize=auto;html=1;exitX=0.5;exitY=1;exitDx=0;exitDy=0;" parent="1" source="Am5VoBLF8I1c0vKJ-CCn-13" target="Am5VoBLF8I1c0vKJ-CCn-44" edge="1">
          <mxGeometry relative="1" as="geometry" />
        </mxCell>
        <mxCell id="Am5VoBLF8I1c0vKJ-CCn-13" value="邮箱是否已经注册" style="rhombus;whiteSpace=wrap;html=1;strokeWidth=2;" parent="1" vertex="1">
          <mxGeometry x="40" y="670" width="100" height="90" as="geometry" />
        </mxCell>
        <mxCell id="Am5VoBLF8I1c0vKJ-CCn-14" value="" style="edgeStyle=orthogonalEdgeStyle;rounded=0;orthogonalLoop=1;jettySize=auto;html=1;entryX=0.5;entryY=1;entryDx=0;entryDy=0;" parent="1" source="Am5VoBLF8I1c0vKJ-CCn-44" target="Am5VoBLF8I1c0vKJ-CCn-23" edge="1">
          <mxGeometry relative="1" as="geometry">
            <mxPoint x="450" y="783" as="targetPoint" />
          </mxGeometry>
        </mxCell>
        <mxCell id="Am5VoBLF8I1c0vKJ-CCn-18" value="Y" style="text;html=1;align=center;verticalAlign=middle;resizable=0;points=[];autosize=1;strokeColor=none;fillColor=none;" parent="1" vertex="1">
          <mxGeometry x="160" y="745" width="30" height="30" as="geometry" />
        </mxCell>
        <mxCell id="Am5VoBLF8I1c0vKJ-CCn-19" value="Y" style="text;html=1;align=center;verticalAlign=middle;resizable=0;points=[];autosize=1;strokeColor=none;fillColor=none;" parent="1" vertex="1">
          <mxGeometry x="399" y="745" width="30" height="30" as="geometry" />
        </mxCell>
        <mxCell id="RZhJoWlprxQnowh1hvSg-2" style="edgeStyle=orthogonalEdgeStyle;rounded=0;orthogonalLoop=1;jettySize=auto;html=1;exitX=0.5;exitY=0;exitDx=0;exitDy=0;entryX=1;entryY=0.5;entryDx=0;entryDy=0;" parent="1" source="Am5VoBLF8I1c0vKJ-CCn-23" target="Am5VoBLF8I1c0vKJ-CCn-40" edge="1">
          <mxGeometry relative="1" as="geometry">
            <mxPoint x="580" y="360" as="targetPoint" />
            <Array as="points">
              <mxPoint x="520" y="495" />
              <mxPoint x="590" y="495" />
              <mxPoint x="590" y="350" />
            </Array>
          </mxGeometry>
        </mxCell>
        <mxCell id="Am5VoBLF8I1c0vKJ-CCn-23" value="返回token" style="rounded=1;whiteSpace=wrap;html=1;strokeWidth=2;" parent="1" vertex="1">
          <mxGeometry x="460" y="610" width="120" height="40" as="geometry" />
        </mxCell>
        <mxCell id="Am5VoBLF8I1c0vKJ-CCn-24" value="登录成功" style="strokeWidth=2;html=1;shape=mxgraph.flowchart.start_1;whiteSpace=wrap;" parent="1" vertex="1">
          <mxGeometry x="280" y="50" width="100" height="40" as="geometry" />
        </mxCell>
        <mxCell id="Am5VoBLF8I1c0vKJ-CCn-25" value="重新输入" style="rounded=1;whiteSpace=wrap;html=1;absoluteArcSize=1;arcSize=14;strokeWidth=2;" parent="1" vertex="1">
          <mxGeometry x="160" y="350" width="100" height="50" as="geometry" />
        </mxCell>
        <mxCell id="Am5VoBLF8I1c0vKJ-CCn-26" value="" style="endArrow=classic;html=1;rounded=0;" parent="1" edge="1">
          <mxGeometry width="50" height="50" relative="1" as="geometry">
            <mxPoint x="140" y="450" as="sourcePoint" />
            <mxPoint x="200" y="400" as="targetPoint" />
            <Array as="points">
              <mxPoint x="200" y="450" />
            </Array>
          </mxGeometry>
        </mxCell>
        <mxCell id="Am5VoBLF8I1c0vKJ-CCn-27" value="N" style="text;html=1;align=center;verticalAlign=middle;resizable=0;points=[];autosize=1;strokeColor=none;fillColor=none;" parent="1" vertex="1">
          <mxGeometry x="150" y="418" width="30" height="30" as="geometry" />
        </mxCell>
        <mxCell id="Am5VoBLF8I1c0vKJ-CCn-28" value="" style="endArrow=classic;html=1;rounded=0;entryX=1;entryY=0.5;entryDx=0;entryDy=0;" parent="1" target="Am5VoBLF8I1c0vKJ-CCn-5" edge="1">
          <mxGeometry width="50" height="50" relative="1" as="geometry">
            <mxPoint x="200" y="350" as="sourcePoint" />
            <mxPoint x="250" y="300" as="targetPoint" />
            <Array as="points">
              <mxPoint x="200" y="300" />
            </Array>
          </mxGeometry>
        </mxCell>
        <mxCell id="Am5VoBLF8I1c0vKJ-CCn-29" style="edgeStyle=orthogonalEdgeStyle;rounded=0;orthogonalLoop=1;jettySize=auto;html=1;exitX=0.5;exitY=0;exitDx=0;exitDy=0;entryX=0.5;entryY=1;entryDx=0;entryDy=0;" parent="1" source="Am5VoBLF8I1c0vKJ-CCn-30" target="Am5VoBLF8I1c0vKJ-CCn-40" edge="1">
          <mxGeometry relative="1" as="geometry" />
        </mxCell>
        <mxCell id="Am5VoBLF8I1c0vKJ-CCn-30" value="抛出错误" style="rounded=1;whiteSpace=wrap;html=1;absoluteArcSize=1;arcSize=14;strokeWidth=2;" parent="1" vertex="1">
          <mxGeometry x="280" y="480" width="150" height="40" as="geometry" />
        </mxCell>
        <mxCell id="Am5VoBLF8I1c0vKJ-CCn-31" value="" style="endArrow=classic;html=1;rounded=0;exitX=1;exitY=0.5;exitDx=0;exitDy=0;" parent="1" source="Am5VoBLF8I1c0vKJ-CCn-13" edge="1">
          <mxGeometry width="50" height="50" relative="1" as="geometry">
            <mxPoint x="220" y="610" as="sourcePoint" />
            <mxPoint x="280" y="497" as="targetPoint" />
            <Array as="points">
              <mxPoint x="240" y="715" />
              <mxPoint x="240" y="497" />
            </Array>
          </mxGeometry>
        </mxCell>
        <mxCell id="Am5VoBLF8I1c0vKJ-CCn-32" value="N" style="text;html=1;align=center;verticalAlign=middle;resizable=0;points=[];autosize=1;strokeColor=none;fillColor=none;" parent="1" vertex="1">
          <mxGeometry x="160" y="680" width="30" height="30" as="geometry" />
        </mxCell>
        <mxCell id="Am5VoBLF8I1c0vKJ-CCn-33" value="" style="endArrow=classic;html=1;rounded=0;exitX=0.5;exitY=0;exitDx=0;exitDy=0;entryX=0.203;entryY=1;entryDx=0;entryDy=0;entryPerimeter=0;" parent="1" source="Am5VoBLF8I1c0vKJ-CCn-44" target="Am5VoBLF8I1c0vKJ-CCn-30" edge="1">
          <mxGeometry width="50" height="50" relative="1" as="geometry">
            <mxPoint x="150" y="855" as="sourcePoint" />
            <mxPoint x="310" y="530" as="targetPoint" />
            <Array as="points" />
          </mxGeometry>
        </mxCell>
        <mxCell id="Am5VoBLF8I1c0vKJ-CCn-34" value="N" style="text;html=1;align=center;verticalAlign=middle;resizable=0;points=[];autosize=1;strokeColor=none;fillColor=none;" parent="1" vertex="1">
          <mxGeometry x="320" y="680" width="30" height="30" as="geometry" />
        </mxCell>
        <mxCell id="Am5VoBLF8I1c0vKJ-CCn-36" style="edgeStyle=orthogonalEdgeStyle;rounded=0;orthogonalLoop=1;jettySize=auto;html=1;exitX=0.5;exitY=0;exitDx=0;exitDy=0;entryX=0.5;entryY=1;entryDx=0;entryDy=0;entryPerimeter=0;" parent="1" source="Am5VoBLF8I1c0vKJ-CCn-38" target="Am5VoBLF8I1c0vKJ-CCn-24" edge="1">
          <mxGeometry relative="1" as="geometry" />
        </mxCell>
        <mxCell id="Am5VoBLF8I1c0vKJ-CCn-37" style="edgeStyle=orthogonalEdgeStyle;rounded=0;orthogonalLoop=1;jettySize=auto;html=1;exitX=1;exitY=0.5;exitDx=0;exitDy=0;entryX=0;entryY=0.5;entryDx=0;entryDy=0;entryPerimeter=0;" parent="1" source="Am5VoBLF8I1c0vKJ-CCn-38" target="Am5VoBLF8I1c0vKJ-CCn-41" edge="1">
          <mxGeometry relative="1" as="geometry" />
        </mxCell>
        <mxCell id="Am5VoBLF8I1c0vKJ-CCn-38" value="状态码是否为200" style="rhombus;whiteSpace=wrap;html=1;" parent="1" vertex="1">
          <mxGeometry x="280" y="160" width="100" height="90" as="geometry" />
        </mxCell>
        <mxCell id="Am5VoBLF8I1c0vKJ-CCn-39" style="edgeStyle=orthogonalEdgeStyle;rounded=0;orthogonalLoop=1;jettySize=auto;html=1;entryX=0.5;entryY=1;entryDx=0;entryDy=0;" parent="1" source="Am5VoBLF8I1c0vKJ-CCn-40" target="Am5VoBLF8I1c0vKJ-CCn-38" edge="1">
          <mxGeometry relative="1" as="geometry" />
        </mxCell>
        <mxCell id="Am5VoBLF8I1c0vKJ-CCn-40" value="接收HTTP响应" style="shape=parallelogram;html=1;strokeWidth=2;perimeter=parallelogramPerimeter;whiteSpace=wrap;rounded=1;arcSize=12;size=0.23;" parent="1" vertex="1">
          <mxGeometry x="420" y="320" width="110" height="60" as="geometry" />
        </mxCell>
        <mxCell id="Am5VoBLF8I1c0vKJ-CCn-41" value="登录失败" style="strokeWidth=2;html=1;shape=mxgraph.flowchart.start_1;whiteSpace=wrap;" parent="1" vertex="1">
          <mxGeometry x="470" y="185.5" width="100" height="39" as="geometry" />
        </mxCell>
        <mxCell id="Am5VoBLF8I1c0vKJ-CCn-42" value="Y" style="text;html=1;align=center;verticalAlign=middle;resizable=0;points=[];autosize=1;strokeColor=none;fillColor=none;" parent="1" vertex="1">
          <mxGeometry x="330" y="110" width="30" height="30" as="geometry" />
        </mxCell>
        <mxCell id="Am5VoBLF8I1c0vKJ-CCn-43" value="N" style="text;html=1;align=center;verticalAlign=middle;resizable=0;points=[];autosize=1;strokeColor=none;fillColor=none;" parent="1" vertex="1">
          <mxGeometry x="399" y="175" width="30" height="30" as="geometry" />
        </mxCell>
        <mxCell id="Am5VoBLF8I1c0vKJ-CCn-44" value="验证密码是否正确" style="rhombus;whiteSpace=wrap;html=1;strokeWidth=2;" parent="1" vertex="1">
          <mxGeometry x="250" y="738" width="120" height="90" as="geometry" />
        </mxCell>
        <mxCell id="RZhJoWlprxQnowh1hvSg-42" value="" style="edgeStyle=orthogonalEdgeStyle;rounded=0;orthogonalLoop=1;jettySize=auto;html=1;" parent="1" source="RZhJoWlprxQnowh1hvSg-3" target="RZhJoWlprxQnowh1hvSg-41" edge="1">
          <mxGeometry relative="1" as="geometry" />
        </mxCell>
        <mxCell id="RZhJoWlprxQnowh1hvSg-3" value="开始发布文章" style="strokeWidth=2;html=1;shape=mxgraph.flowchart.start_1;whiteSpace=wrap;" parent="1" vertex="1">
          <mxGeometry x="70" y="850" width="100" height="40" as="geometry" />
        </mxCell>
        <mxCell id="RZhJoWlprxQnowh1hvSg-5" value="用户提交文章" style="shape=parallelogram;html=1;strokeWidth=2;perimeter=parallelogramPerimeter;whiteSpace=wrap;rounded=1;arcSize=12;size=0.23;" parent="1" vertex="1">
          <mxGeometry x="70" y="1080" width="100" height="60" as="geometry" />
        </mxCell>
        <mxCell id="RZhJoWlprxQnowh1hvSg-6" value="" style="endArrow=classic;html=1;rounded=0;" parent="1" edge="1">
          <mxGeometry width="50" height="50" relative="1" as="geometry">
            <mxPoint x="120" y="1140" as="sourcePoint" />
            <mxPoint x="120" y="1200" as="targetPoint" />
          </mxGeometry>
        </mxCell>
        <mxCell id="RZhJoWlprxQnowh1hvSg-9" value="" style="edgeStyle=orthogonalEdgeStyle;rounded=0;orthogonalLoop=1;jettySize=auto;html=1;" parent="1" source="RZhJoWlprxQnowh1hvSg-10" target="RZhJoWlprxQnowh1hvSg-12" edge="1">
          <mxGeometry relative="1" as="geometry" />
        </mxCell>
        <mxCell id="RZhJoWlprxQnowh1hvSg-10" value="验证通过" style="strokeWidth=2;html=1;shape=mxgraph.flowchart.decision;whiteSpace=wrap;" parent="1" vertex="1">
          <mxGeometry x="70" y="1200" width="100" height="100" as="geometry" />
        </mxCell>
        <mxCell id="RZhJoWlprxQnowh1hvSg-11" value="" style="edgeStyle=orthogonalEdgeStyle;rounded=0;orthogonalLoop=1;jettySize=auto;html=1;" parent="1" source="RZhJoWlprxQnowh1hvSg-12" target="RZhJoWlprxQnowh1hvSg-15" edge="1">
          <mxGeometry relative="1" as="geometry" />
        </mxCell>
        <mxCell id="RZhJoWlprxQnowh1hvSg-12" value="发送HTTP请求" style="whiteSpace=wrap;html=1;strokeWidth=2;" parent="1" vertex="1">
          <mxGeometry x="60" y="1370" width="120" height="60" as="geometry" />
        </mxCell>
        <mxCell id="RZhJoWlprxQnowh1hvSg-53" style="edgeStyle=orthogonalEdgeStyle;rounded=0;orthogonalLoop=1;jettySize=auto;html=1;exitX=0.5;exitY=1;exitDx=0;exitDy=0;entryX=0.443;entryY=1.05;entryDx=0;entryDy=0;entryPerimeter=0;" parent="1" source="RZhJoWlprxQnowh1hvSg-15" target="RZhJoWlprxQnowh1hvSg-27" edge="1">
          <mxGeometry relative="1" as="geometry">
            <mxPoint x="557" y="1490" as="targetPoint" />
          </mxGeometry>
        </mxCell>
        <mxCell id="RZhJoWlprxQnowh1hvSg-15" value="验证文章是否符合规定" style="rhombus;whiteSpace=wrap;html=1;strokeWidth=2;" parent="1" vertex="1">
          <mxGeometry x="70" y="1500" width="100" height="90" as="geometry" />
        </mxCell>
        <mxCell id="RZhJoWlprxQnowh1hvSg-16" value="" style="edgeStyle=orthogonalEdgeStyle;rounded=0;orthogonalLoop=1;jettySize=auto;html=1;entryX=0.5;entryY=1;entryDx=0;entryDy=0;exitX=1;exitY=0.5;exitDx=0;exitDy=0;" parent="1" source="RZhJoWlprxQnowh1hvSg-15" target="RZhJoWlprxQnowh1hvSg-20" edge="1">
          <mxGeometry relative="1" as="geometry">
            <mxPoint x="480" y="1703" as="targetPoint" />
            <mxPoint x="410" y="1685" as="sourcePoint" />
          </mxGeometry>
        </mxCell>
        <mxCell id="RZhJoWlprxQnowh1hvSg-18" value="Y" style="text;html=1;align=center;verticalAlign=middle;resizable=0;points=[];autosize=1;strokeColor=none;fillColor=none;" parent="1" vertex="1">
          <mxGeometry x="195" y="1510" width="30" height="30" as="geometry" />
        </mxCell>
        <mxCell id="RZhJoWlprxQnowh1hvSg-51" style="edgeStyle=orthogonalEdgeStyle;rounded=0;orthogonalLoop=1;jettySize=auto;html=1;exitX=0.5;exitY=0;exitDx=0;exitDy=0;entryX=0.368;entryY=0.942;entryDx=0;entryDy=0;entryPerimeter=0;" parent="1" source="RZhJoWlprxQnowh1hvSg-20" target="RZhJoWlprxQnowh1hvSg-36" edge="1">
          <mxGeometry relative="1" as="geometry" />
        </mxCell>
        <mxCell id="RZhJoWlprxQnowh1hvSg-20" value="返回文章id" style="rounded=1;whiteSpace=wrap;html=1;strokeWidth=2;" parent="1" vertex="1">
          <mxGeometry x="280" y="1450" width="120" height="40" as="geometry" />
        </mxCell>
        <mxCell id="RZhJoWlprxQnowh1hvSg-21" value="发布成功" style="strokeWidth=2;html=1;shape=mxgraph.flowchart.start_1;whiteSpace=wrap;" parent="1" vertex="1">
          <mxGeometry x="300" y="840" width="100" height="40" as="geometry" />
        </mxCell>
        <mxCell id="RZhJoWlprxQnowh1hvSg-22" value="重新输入" style="rounded=1;whiteSpace=wrap;html=1;absoluteArcSize=1;arcSize=14;strokeWidth=2;" parent="1" vertex="1">
          <mxGeometry x="180" y="1150" width="100" height="50" as="geometry" />
        </mxCell>
        <mxCell id="RZhJoWlprxQnowh1hvSg-23" value="" style="endArrow=classic;html=1;rounded=0;" parent="1" edge="1">
          <mxGeometry width="50" height="50" relative="1" as="geometry">
            <mxPoint x="170" y="1250" as="sourcePoint" />
            <mxPoint x="230" y="1200" as="targetPoint" />
            <Array as="points">
              <mxPoint x="230" y="1250" />
            </Array>
          </mxGeometry>
        </mxCell>
        <mxCell id="RZhJoWlprxQnowh1hvSg-24" value="N" style="text;html=1;align=center;verticalAlign=middle;resizable=0;points=[];autosize=1;strokeColor=none;fillColor=none;" parent="1" vertex="1">
          <mxGeometry x="180" y="1220" width="30" height="30" as="geometry" />
        </mxCell>
        <mxCell id="RZhJoWlprxQnowh1hvSg-25" value="" style="endArrow=classic;html=1;rounded=0;entryX=1;entryY=0.5;entryDx=0;entryDy=0;" parent="1" edge="1">
          <mxGeometry width="50" height="50" relative="1" as="geometry">
            <mxPoint x="230" y="1150" as="sourcePoint" />
            <mxPoint x="170" y="1100" as="targetPoint" />
            <Array as="points">
              <mxPoint x="230" y="1100" />
            </Array>
          </mxGeometry>
        </mxCell>
        <mxCell id="RZhJoWlprxQnowh1hvSg-61" style="edgeStyle=orthogonalEdgeStyle;rounded=0;orthogonalLoop=1;jettySize=auto;html=1;exitX=1;exitY=0.5;exitDx=0;exitDy=0;entryX=1;entryY=0.5;entryDx=0;entryDy=0;" parent="1" source="RZhJoWlprxQnowh1hvSg-27" target="RZhJoWlprxQnowh1hvSg-36" edge="1">
          <mxGeometry relative="1" as="geometry">
            <mxPoint x="450" y="1290" as="targetPoint" />
            <Array as="points">
              <mxPoint x="534" y="1470" />
              <mxPoint x="534" y="1270" />
            </Array>
          </mxGeometry>
        </mxCell>
        <mxCell id="RZhJoWlprxQnowh1hvSg-27" value="抛出错误" style="rounded=1;whiteSpace=wrap;html=1;absoluteArcSize=1;arcSize=14;strokeWidth=2;" parent="1" vertex="1">
          <mxGeometry x="459" y="1450" width="150" height="40" as="geometry" />
        </mxCell>
        <mxCell id="RZhJoWlprxQnowh1hvSg-29" value="N" style="text;html=1;align=center;verticalAlign=middle;resizable=0;points=[];autosize=1;strokeColor=none;fillColor=none;" parent="1" vertex="1">
          <mxGeometry x="210" y="1580" width="30" height="30" as="geometry" />
        </mxCell>
        <mxCell id="RZhJoWlprxQnowh1hvSg-33" style="edgeStyle=orthogonalEdgeStyle;rounded=0;orthogonalLoop=1;jettySize=auto;html=1;exitX=1;exitY=0.5;exitDx=0;exitDy=0;entryX=0;entryY=0.5;entryDx=0;entryDy=0;entryPerimeter=0;" parent="1" source="RZhJoWlprxQnowh1hvSg-34" target="RZhJoWlprxQnowh1hvSg-37" edge="1">
          <mxGeometry relative="1" as="geometry" />
        </mxCell>
        <mxCell id="RZhJoWlprxQnowh1hvSg-59" style="edgeStyle=orthogonalEdgeStyle;rounded=0;orthogonalLoop=1;jettySize=auto;html=1;exitX=0.5;exitY=0;exitDx=0;exitDy=0;entryX=0.5;entryY=1;entryDx=0;entryDy=0;" parent="1" source="RZhJoWlprxQnowh1hvSg-34" target="RZhJoWlprxQnowh1hvSg-58" edge="1">
          <mxGeometry relative="1" as="geometry" />
        </mxCell>
        <mxCell id="RZhJoWlprxQnowh1hvSg-34" value="状态码是否为200" style="rhombus;whiteSpace=wrap;html=1;" parent="1" vertex="1">
          <mxGeometry x="305" y="1035" width="100" height="90" as="geometry" />
        </mxCell>
        <mxCell id="RZhJoWlprxQnowh1hvSg-35" style="edgeStyle=orthogonalEdgeStyle;rounded=0;orthogonalLoop=1;jettySize=auto;html=1;entryX=0.5;entryY=1;entryDx=0;entryDy=0;" parent="1" source="RZhJoWlprxQnowh1hvSg-36" target="RZhJoWlprxQnowh1hvSg-34" edge="1">
          <mxGeometry relative="1" as="geometry" />
        </mxCell>
        <mxCell id="RZhJoWlprxQnowh1hvSg-36" value="接收HTTP响应" style="shape=parallelogram;html=1;strokeWidth=2;perimeter=parallelogramPerimeter;whiteSpace=wrap;rounded=1;arcSize=12;size=0.23;" parent="1" vertex="1">
          <mxGeometry x="300" y="1240" width="110" height="60" as="geometry" />
        </mxCell>
        <mxCell id="RZhJoWlprxQnowh1hvSg-37" value="发布失败" style="strokeWidth=2;html=1;shape=mxgraph.flowchart.start_1;whiteSpace=wrap;" parent="1" vertex="1">
          <mxGeometry x="530" y="1060.5" width="100" height="39" as="geometry" />
        </mxCell>
        <mxCell id="RZhJoWlprxQnowh1hvSg-38" value="Y" style="text;html=1;align=center;verticalAlign=middle;resizable=0;points=[];autosize=1;strokeColor=none;fillColor=none;" parent="1" vertex="1">
          <mxGeometry x="360" y="1000" width="30" height="30" as="geometry" />
        </mxCell>
        <mxCell id="RZhJoWlprxQnowh1hvSg-39" value="N" style="text;html=1;align=center;verticalAlign=middle;resizable=0;points=[];autosize=1;strokeColor=none;fillColor=none;" parent="1" vertex="1">
          <mxGeometry x="429" y="1035" width="30" height="30" as="geometry" />
        </mxCell>
        <mxCell id="RZhJoWlprxQnowh1hvSg-43" style="edgeStyle=orthogonalEdgeStyle;rounded=0;orthogonalLoop=1;jettySize=auto;html=1;exitX=0.5;exitY=1;exitDx=0;exitDy=0;entryX=0.5;entryY=0;entryDx=0;entryDy=0;" parent="1" source="RZhJoWlprxQnowh1hvSg-41" target="RZhJoWlprxQnowh1hvSg-5" edge="1">
          <mxGeometry relative="1" as="geometry" />
        </mxCell>
        <mxCell id="RZhJoWlprxQnowh1hvSg-63" style="edgeStyle=orthogonalEdgeStyle;rounded=0;orthogonalLoop=1;jettySize=auto;html=1;exitX=0;exitY=0.5;exitDx=0;exitDy=0;" parent="1" source="RZhJoWlprxQnowh1hvSg-41" edge="1">
          <mxGeometry relative="1" as="geometry">
            <mxPoint x="20" y="979.6666666666667" as="targetPoint" />
          </mxGeometry>
        </mxCell>
        <mxCell id="RZhJoWlprxQnowh1hvSg-41" value="用户是否登录" style="rhombus;whiteSpace=wrap;html=1;strokeWidth=2;" parent="1" vertex="1">
          <mxGeometry x="80" y="940" width="80" height="80" as="geometry" />
        </mxCell>
        <mxCell id="RZhJoWlprxQnowh1hvSg-44" value="Y" style="text;html=1;align=center;verticalAlign=middle;resizable=0;points=[];autosize=1;strokeColor=none;fillColor=none;" parent="1" vertex="1">
          <mxGeometry x="120" y="1320" width="30" height="30" as="geometry" />
        </mxCell>
        <mxCell id="RZhJoWlprxQnowh1hvSg-60" style="edgeStyle=orthogonalEdgeStyle;rounded=0;orthogonalLoop=1;jettySize=auto;html=1;exitX=0.5;exitY=0;exitDx=0;exitDy=0;entryX=0.555;entryY=1.263;entryDx=0;entryDy=0;entryPerimeter=0;" parent="1" source="RZhJoWlprxQnowh1hvSg-58" target="RZhJoWlprxQnowh1hvSg-21" edge="1">
          <mxGeometry relative="1" as="geometry" />
        </mxCell>
        <mxCell id="RZhJoWlprxQnowh1hvSg-58" value="跳转文章详情页" style="rounded=1;whiteSpace=wrap;html=1;absoluteArcSize=1;arcSize=14;strokeWidth=2;" parent="1" vertex="1">
          <mxGeometry x="305" y="940" width="100" height="40" as="geometry" />
        </mxCell>
        <mxCell id="RZhJoWlprxQnowh1hvSg-62" value="Y" style="text;html=1;align=center;verticalAlign=middle;resizable=0;points=[];autosize=1;strokeColor=none;fillColor=none;" parent="1" vertex="1">
          <mxGeometry x="125" y="1028" width="30" height="30" as="geometry" />
        </mxCell>
        <mxCell id="RZhJoWlprxQnowh1hvSg-64" value="跳转登录" style="rounded=1;whiteSpace=wrap;html=1;absoluteArcSize=1;arcSize=14;strokeWidth=2;" parent="1" vertex="1">
          <mxGeometry x="-120" y="960" width="130" height="40" as="geometry" />
        </mxCell>
        <mxCell id="RZhJoWlprxQnowh1hvSg-65" value="N" style="text;html=1;align=center;verticalAlign=middle;resizable=0;points=[];autosize=1;strokeColor=none;fillColor=none;" parent="1" vertex="1">
          <mxGeometry x="45" y="948" width="30" height="30" as="geometry" />
        </mxCell>
        <mxCell id="RZhJoWlprxQnowh1hvSg-105" value="" style="edgeStyle=orthogonalEdgeStyle;rounded=0;orthogonalLoop=1;jettySize=auto;html=1;" parent="1" source="RZhJoWlprxQnowh1hvSg-106" target="RZhJoWlprxQnowh1hvSg-137" edge="1">
          <mxGeometry relative="1" as="geometry" />
        </mxCell>
        <mxCell id="RZhJoWlprxQnowh1hvSg-106" value="开始发布活动" style="strokeWidth=2;html=1;shape=mxgraph.flowchart.start_1;whiteSpace=wrap;" parent="1" vertex="1">
          <mxGeometry x="230" y="1860" width="100" height="40" as="geometry" />
        </mxCell>
        <mxCell id="RZhJoWlprxQnowh1hvSg-107" value="&lt;font style=&quot;font-size: 11px;&quot;&gt;团队管理员发布活动&lt;/font&gt;" style="shape=parallelogram;html=1;strokeWidth=2;perimeter=parallelogramPerimeter;whiteSpace=wrap;rounded=1;arcSize=12;size=0.23;align=center;" parent="1" vertex="1">
          <mxGeometry x="190" y="2230" width="160" height="60" as="geometry" />
        </mxCell>
        <mxCell id="RZhJoWlprxQnowh1hvSg-108" value="" style="endArrow=classic;html=1;rounded=0;" parent="1" edge="1">
          <mxGeometry width="50" height="50" relative="1" as="geometry">
            <mxPoint x="280" y="2290" as="sourcePoint" />
            <mxPoint x="280" y="2350" as="targetPoint" />
          </mxGeometry>
        </mxCell>
        <mxCell id="RZhJoWlprxQnowh1hvSg-109" value="" style="edgeStyle=orthogonalEdgeStyle;rounded=0;orthogonalLoop=1;jettySize=auto;html=1;" parent="1" source="RZhJoWlprxQnowh1hvSg-110" target="RZhJoWlprxQnowh1hvSg-112" edge="1">
          <mxGeometry relative="1" as="geometry" />
        </mxCell>
        <mxCell id="RZhJoWlprxQnowh1hvSg-152" style="edgeStyle=orthogonalEdgeStyle;rounded=0;orthogonalLoop=1;jettySize=auto;html=1;exitX=1;exitY=0.5;exitDx=0;exitDy=0;exitPerimeter=0;entryX=0.5;entryY=1;entryDx=0;entryDy=0;" parent="1" source="RZhJoWlprxQnowh1hvSg-110" target="RZhJoWlprxQnowh1hvSg-120" edge="1">
          <mxGeometry relative="1" as="geometry">
            <Array as="points">
              <mxPoint x="385" y="2400" />
            </Array>
          </mxGeometry>
        </mxCell>
        <mxCell id="RZhJoWlprxQnowh1hvSg-110" value="验证通过" style="strokeWidth=2;html=1;shape=mxgraph.flowchart.decision;whiteSpace=wrap;" parent="1" vertex="1">
          <mxGeometry x="230" y="2350" width="100" height="100" as="geometry" />
        </mxCell>
        <mxCell id="RZhJoWlprxQnowh1hvSg-111" value="" style="edgeStyle=orthogonalEdgeStyle;rounded=0;orthogonalLoop=1;jettySize=auto;html=1;" parent="1" source="RZhJoWlprxQnowh1hvSg-112" target="RZhJoWlprxQnowh1hvSg-114" edge="1">
          <mxGeometry relative="1" as="geometry" />
        </mxCell>
        <mxCell id="RZhJoWlprxQnowh1hvSg-112" value="发送HTTP请求" style="whiteSpace=wrap;html=1;strokeWidth=2;" parent="1" vertex="1">
          <mxGeometry x="220" y="2520" width="120" height="60" as="geometry" />
        </mxCell>
        <mxCell id="RZhJoWlprxQnowh1hvSg-113" style="edgeStyle=orthogonalEdgeStyle;rounded=0;orthogonalLoop=1;jettySize=auto;html=1;exitX=0.5;exitY=1;exitDx=0;exitDy=0;entryX=0.443;entryY=1.05;entryDx=0;entryDy=0;entryPerimeter=0;" parent="1" source="RZhJoWlprxQnowh1hvSg-114" target="RZhJoWlprxQnowh1hvSg-125" edge="1">
          <mxGeometry relative="1" as="geometry">
            <mxPoint x="717" y="2640" as="targetPoint" />
          </mxGeometry>
        </mxCell>
        <mxCell id="RZhJoWlprxQnowh1hvSg-114" value="验证活动是否符合规定" style="rhombus;whiteSpace=wrap;html=1;strokeWidth=2;" parent="1" vertex="1">
          <mxGeometry x="230" y="2650" width="100" height="90" as="geometry" />
        </mxCell>
        <mxCell id="RZhJoWlprxQnowh1hvSg-115" value="" style="edgeStyle=orthogonalEdgeStyle;rounded=0;orthogonalLoop=1;jettySize=auto;html=1;entryX=0.5;entryY=1;entryDx=0;entryDy=0;exitX=1;exitY=0.5;exitDx=0;exitDy=0;" parent="1" source="RZhJoWlprxQnowh1hvSg-114" target="RZhJoWlprxQnowh1hvSg-118" edge="1">
          <mxGeometry relative="1" as="geometry">
            <mxPoint x="640" y="2853" as="targetPoint" />
            <mxPoint x="570" y="2835" as="sourcePoint" />
          </mxGeometry>
        </mxCell>
        <mxCell id="RZhJoWlprxQnowh1hvSg-116" value="Y" style="text;html=1;align=center;verticalAlign=middle;resizable=0;points=[];autosize=1;strokeColor=none;fillColor=none;" parent="1" vertex="1">
          <mxGeometry x="355" y="2660" width="30" height="30" as="geometry" />
        </mxCell>
        <mxCell id="RZhJoWlprxQnowh1hvSg-117" style="edgeStyle=orthogonalEdgeStyle;rounded=0;orthogonalLoop=1;jettySize=auto;html=1;exitX=0.5;exitY=0;exitDx=0;exitDy=0;entryX=0.368;entryY=0.942;entryDx=0;entryDy=0;entryPerimeter=0;" parent="1" source="RZhJoWlprxQnowh1hvSg-118" target="RZhJoWlprxQnowh1hvSg-131" edge="1">
          <mxGeometry relative="1" as="geometry" />
        </mxCell>
        <mxCell id="RZhJoWlprxQnowh1hvSg-118" value="返回活动id" style="rounded=1;whiteSpace=wrap;html=1;strokeWidth=2;" parent="1" vertex="1">
          <mxGeometry x="440" y="2600" width="120" height="40" as="geometry" />
        </mxCell>
        <mxCell id="RZhJoWlprxQnowh1hvSg-119" value="发布成功" style="strokeWidth=2;html=1;shape=mxgraph.flowchart.start_1;whiteSpace=wrap;" parent="1" vertex="1">
          <mxGeometry x="460" y="1990" width="100" height="40" as="geometry" />
        </mxCell>
        <mxCell id="RZhJoWlprxQnowh1hvSg-121" value="" style="endArrow=classic;html=1;rounded=0;" parent="1" source="RZhJoWlprxQnowh1hvSg-120" edge="1">
          <mxGeometry width="50" height="50" relative="1" as="geometry">
            <mxPoint x="330" y="2400" as="sourcePoint" />
            <mxPoint x="390" y="2350" as="targetPoint" />
            <Array as="points" />
          </mxGeometry>
        </mxCell>
        <mxCell id="RZhJoWlprxQnowh1hvSg-122" value="N" style="text;html=1;align=center;verticalAlign=middle;resizable=0;points=[];autosize=1;strokeColor=none;fillColor=none;" parent="1" vertex="1">
          <mxGeometry x="340" y="2370" width="30" height="30" as="geometry" />
        </mxCell>
        <mxCell id="RZhJoWlprxQnowh1hvSg-123" value="" style="endArrow=classic;html=1;rounded=0;entryX=1;entryY=0.5;entryDx=0;entryDy=0;" parent="1" edge="1">
          <mxGeometry width="50" height="50" relative="1" as="geometry">
            <mxPoint x="390" y="2310" as="sourcePoint" />
            <mxPoint x="330" y="2260" as="targetPoint" />
            <Array as="points">
              <mxPoint x="390" y="2260" />
            </Array>
          </mxGeometry>
        </mxCell>
        <mxCell id="RZhJoWlprxQnowh1hvSg-124" style="edgeStyle=orthogonalEdgeStyle;rounded=0;orthogonalLoop=1;jettySize=auto;html=1;exitX=1;exitY=0.5;exitDx=0;exitDy=0;entryX=1;entryY=0.5;entryDx=0;entryDy=0;" parent="1" source="RZhJoWlprxQnowh1hvSg-125" target="RZhJoWlprxQnowh1hvSg-131" edge="1">
          <mxGeometry relative="1" as="geometry">
            <mxPoint x="610" y="2440" as="targetPoint" />
            <Array as="points">
              <mxPoint x="694" y="2620" />
              <mxPoint x="694" y="2420" />
            </Array>
          </mxGeometry>
        </mxCell>
        <mxCell id="RZhJoWlprxQnowh1hvSg-125" value="抛出错误" style="rounded=1;whiteSpace=wrap;html=1;absoluteArcSize=1;arcSize=14;strokeWidth=2;" parent="1" vertex="1">
          <mxGeometry x="619" y="2600" width="150" height="40" as="geometry" />
        </mxCell>
        <mxCell id="RZhJoWlprxQnowh1hvSg-126" value="N" style="text;html=1;align=center;verticalAlign=middle;resizable=0;points=[];autosize=1;strokeColor=none;fillColor=none;" parent="1" vertex="1">
          <mxGeometry x="370" y="2730" width="30" height="30" as="geometry" />
        </mxCell>
        <mxCell id="RZhJoWlprxQnowh1hvSg-127" style="edgeStyle=orthogonalEdgeStyle;rounded=0;orthogonalLoop=1;jettySize=auto;html=1;exitX=1;exitY=0.5;exitDx=0;exitDy=0;entryX=0;entryY=0.5;entryDx=0;entryDy=0;entryPerimeter=0;" parent="1" source="RZhJoWlprxQnowh1hvSg-129" target="RZhJoWlprxQnowh1hvSg-132" edge="1">
          <mxGeometry relative="1" as="geometry" />
        </mxCell>
        <mxCell id="RZhJoWlprxQnowh1hvSg-128" style="edgeStyle=orthogonalEdgeStyle;rounded=0;orthogonalLoop=1;jettySize=auto;html=1;exitX=0.5;exitY=0;exitDx=0;exitDy=0;entryX=0.5;entryY=1;entryDx=0;entryDy=0;" parent="1" source="RZhJoWlprxQnowh1hvSg-129" target="RZhJoWlprxQnowh1hvSg-140" edge="1">
          <mxGeometry relative="1" as="geometry" />
        </mxCell>
        <mxCell id="RZhJoWlprxQnowh1hvSg-129" value="状态码是否为200" style="rhombus;whiteSpace=wrap;html=1;" parent="1" vertex="1">
          <mxGeometry x="465" y="2185" width="100" height="90" as="geometry" />
        </mxCell>
        <mxCell id="RZhJoWlprxQnowh1hvSg-130" style="edgeStyle=orthogonalEdgeStyle;rounded=0;orthogonalLoop=1;jettySize=auto;html=1;entryX=0.5;entryY=1;entryDx=0;entryDy=0;" parent="1" source="RZhJoWlprxQnowh1hvSg-131" target="RZhJoWlprxQnowh1hvSg-129" edge="1">
          <mxGeometry relative="1" as="geometry" />
        </mxCell>
        <mxCell id="RZhJoWlprxQnowh1hvSg-131" value="接收HTTP响应" style="shape=parallelogram;html=1;strokeWidth=2;perimeter=parallelogramPerimeter;whiteSpace=wrap;rounded=1;arcSize=12;size=0.23;" parent="1" vertex="1">
          <mxGeometry x="460" y="2390" width="110" height="60" as="geometry" />
        </mxCell>
        <mxCell id="RZhJoWlprxQnowh1hvSg-132" value="发布失败" style="strokeWidth=2;html=1;shape=mxgraph.flowchart.start_1;whiteSpace=wrap;" parent="1" vertex="1">
          <mxGeometry x="690" y="2210.5" width="100" height="39" as="geometry" />
        </mxCell>
        <mxCell id="RZhJoWlprxQnowh1hvSg-133" value="Y" style="text;html=1;align=center;verticalAlign=middle;resizable=0;points=[];autosize=1;strokeColor=none;fillColor=none;" parent="1" vertex="1">
          <mxGeometry x="520" y="2150" width="30" height="30" as="geometry" />
        </mxCell>
        <mxCell id="RZhJoWlprxQnowh1hvSg-134" value="N" style="text;html=1;align=center;verticalAlign=middle;resizable=0;points=[];autosize=1;strokeColor=none;fillColor=none;" parent="1" vertex="1">
          <mxGeometry x="589" y="2185" width="30" height="30" as="geometry" />
        </mxCell>
        <mxCell id="RZhJoWlprxQnowh1hvSg-135" style="edgeStyle=orthogonalEdgeStyle;rounded=0;orthogonalLoop=1;jettySize=auto;html=1;exitX=0.5;exitY=1;exitDx=0;exitDy=0;" parent="1" source="RZhJoWlprxQnowh1hvSg-137" edge="1">
          <mxGeometry relative="1" as="geometry">
            <mxPoint x="280" y="2080" as="targetPoint" />
          </mxGeometry>
        </mxCell>
        <mxCell id="RZhJoWlprxQnowh1hvSg-136" style="edgeStyle=orthogonalEdgeStyle;rounded=0;orthogonalLoop=1;jettySize=auto;html=1;exitX=0;exitY=0.5;exitDx=0;exitDy=0;entryX=1;entryY=0.25;entryDx=0;entryDy=0;" parent="1" source="RZhJoWlprxQnowh1hvSg-137" target="RZhJoWlprxQnowh1hvSg-142" edge="1">
          <mxGeometry relative="1" as="geometry">
            <mxPoint x="180" y="2129.666666666667" as="targetPoint" />
          </mxGeometry>
        </mxCell>
        <mxCell id="RZhJoWlprxQnowh1hvSg-137" value="用户是否登录" style="rhombus;whiteSpace=wrap;html=1;strokeWidth=2;" parent="1" vertex="1">
          <mxGeometry x="240" y="1950" width="80" height="80" as="geometry" />
        </mxCell>
        <mxCell id="RZhJoWlprxQnowh1hvSg-138" value="Y" style="text;html=1;align=center;verticalAlign=middle;resizable=0;points=[];autosize=1;strokeColor=none;fillColor=none;" parent="1" vertex="1">
          <mxGeometry x="280" y="2470" width="30" height="30" as="geometry" />
        </mxCell>
        <mxCell id="RZhJoWlprxQnowh1hvSg-139" style="edgeStyle=orthogonalEdgeStyle;rounded=0;orthogonalLoop=1;jettySize=auto;html=1;exitX=0.5;exitY=0;exitDx=0;exitDy=0;entryX=0.555;entryY=1.263;entryDx=0;entryDy=0;entryPerimeter=0;" parent="1" source="RZhJoWlprxQnowh1hvSg-140" target="RZhJoWlprxQnowh1hvSg-119" edge="1">
          <mxGeometry relative="1" as="geometry" />
        </mxCell>
        <mxCell id="RZhJoWlprxQnowh1hvSg-140" value="跳转活动详情页" style="rounded=1;whiteSpace=wrap;html=1;absoluteArcSize=1;arcSize=14;strokeWidth=2;" parent="1" vertex="1">
          <mxGeometry x="465" y="2090" width="100" height="40" as="geometry" />
        </mxCell>
        <mxCell id="RZhJoWlprxQnowh1hvSg-141" value="Y" style="text;html=1;align=center;verticalAlign=middle;resizable=0;points=[];autosize=1;strokeColor=none;fillColor=none;" parent="1" vertex="1">
          <mxGeometry x="290" y="2030" width="30" height="30" as="geometry" />
        </mxCell>
        <mxCell id="RZhJoWlprxQnowh1hvSg-142" value="跳转登录" style="rounded=1;whiteSpace=wrap;html=1;absoluteArcSize=1;arcSize=14;strokeWidth=2;" parent="1" vertex="1">
          <mxGeometry y="1980" width="130" height="40" as="geometry" />
        </mxCell>
        <mxCell id="RZhJoWlprxQnowh1hvSg-143" value="N" style="text;html=1;align=center;verticalAlign=middle;resizable=0;points=[];autosize=1;strokeColor=none;fillColor=none;" parent="1" vertex="1">
          <mxGeometry x="165" y="1960" width="30" height="30" as="geometry" />
        </mxCell>
        <mxCell id="RZhJoWlprxQnowh1hvSg-145" style="edgeStyle=orthogonalEdgeStyle;rounded=0;orthogonalLoop=1;jettySize=auto;html=1;exitX=0.5;exitY=1;exitDx=0;exitDy=0;" parent="1" source="RZhJoWlprxQnowh1hvSg-147" edge="1">
          <mxGeometry relative="1" as="geometry">
            <mxPoint x="280" y="2230" as="targetPoint" />
            <Array as="points">
              <mxPoint x="280" y="2200" />
              <mxPoint x="280" y="2200" />
            </Array>
          </mxGeometry>
        </mxCell>
        <mxCell id="RZhJoWlprxQnowh1hvSg-146" style="edgeStyle=orthogonalEdgeStyle;rounded=0;orthogonalLoop=1;jettySize=auto;html=1;exitX=0;exitY=0.5;exitDx=0;exitDy=0;entryX=1;entryY=0.5;entryDx=0;entryDy=0;" parent="1" source="RZhJoWlprxQnowh1hvSg-147" target="RZhJoWlprxQnowh1hvSg-149" edge="1">
          <mxGeometry relative="1" as="geometry">
            <mxPoint x="140" y="2110.166666666667" as="targetPoint" />
          </mxGeometry>
        </mxCell>
        <mxCell id="RZhJoWlprxQnowh1hvSg-147" value="用户是否为团队管理员" style="rhombus;whiteSpace=wrap;html=1;strokeWidth=2;" parent="1" vertex="1">
          <mxGeometry x="235" y="2078.5" width="90" height="90" as="geometry" />
        </mxCell>
        <mxCell id="RZhJoWlprxQnowh1hvSg-148" value="Y" style="text;html=1;align=center;verticalAlign=middle;resizable=0;points=[];autosize=1;strokeColor=none;fillColor=none;" parent="1" vertex="1">
          <mxGeometry x="295" y="2180" width="30" height="30" as="geometry" />
        </mxCell>
        <mxCell id="RZhJoWlprxQnowh1hvSg-149" value="跳转404页面" style="rounded=1;whiteSpace=wrap;html=1;absoluteArcSize=1;arcSize=14;strokeWidth=2;" parent="1" vertex="1">
          <mxGeometry y="2103.5" width="125" height="40" as="geometry" />
        </mxCell>
        <mxCell id="RZhJoWlprxQnowh1hvSg-150" value="N" style="text;html=1;align=center;verticalAlign=middle;resizable=0;points=[];autosize=1;strokeColor=none;fillColor=none;" parent="1" vertex="1">
          <mxGeometry x="165" y="2078.5" width="30" height="30" as="geometry" />
        </mxCell>
        <mxCell id="RZhJoWlprxQnowh1hvSg-120" value="重新输入" style="rounded=1;whiteSpace=wrap;html=1;absoluteArcSize=1;arcSize=14;strokeWidth=2;" parent="1" vertex="1">
          <mxGeometry x="335" y="2310" width="100" height="50" as="geometry" />
        </mxCell>
        <mxCell id="RZhJoWlprxQnowh1hvSg-199" value="" style="edgeStyle=orthogonalEdgeStyle;rounded=0;orthogonalLoop=1;jettySize=auto;html=1;" parent="1" source="RZhJoWlprxQnowh1hvSg-200" target="RZhJoWlprxQnowh1hvSg-231" edge="1">
          <mxGeometry relative="1" as="geometry" />
        </mxCell>
        <mxCell id="RZhJoWlprxQnowh1hvSg-200" value="参与活动" style="strokeWidth=2;html=1;shape=mxgraph.flowchart.start_1;whiteSpace=wrap;" parent="1" vertex="1">
          <mxGeometry x="-600" y="1940" width="100" height="40" as="geometry" />
        </mxCell>
        <mxCell id="RZhJoWlprxQnowh1hvSg-253" style="edgeStyle=orthogonalEdgeStyle;rounded=0;orthogonalLoop=1;jettySize=auto;html=1;exitX=0.5;exitY=1;exitDx=0;exitDy=0;entryX=0.5;entryY=0;entryDx=0;entryDy=0;entryPerimeter=0;" parent="1" source="RZhJoWlprxQnowh1hvSg-201" target="RZhJoWlprxQnowh1hvSg-205" edge="1">
          <mxGeometry relative="1" as="geometry" />
        </mxCell>
        <mxCell id="RZhJoWlprxQnowh1hvSg-201" value="&lt;span style=&quot;font-size: 11px;&quot;&gt;用户提交报名信息&lt;/span&gt;" style="shape=parallelogram;html=1;strokeWidth=2;perimeter=parallelogramPerimeter;whiteSpace=wrap;rounded=1;arcSize=12;size=0.23;align=center;" parent="1" vertex="1">
          <mxGeometry x="-630" y="2470" width="160" height="60" as="geometry" />
        </mxCell>
        <mxCell id="RZhJoWlprxQnowh1hvSg-202" value="" style="endArrow=classic;html=1;rounded=0;" parent="1" edge="1">
          <mxGeometry width="50" height="50" relative="1" as="geometry">
            <mxPoint x="-550" y="2370" as="sourcePoint" />
            <mxPoint x="-550" y="2460" as="targetPoint" />
          </mxGeometry>
        </mxCell>
        <mxCell id="RZhJoWlprxQnowh1hvSg-203" value="" style="edgeStyle=orthogonalEdgeStyle;rounded=0;orthogonalLoop=1;jettySize=auto;html=1;" parent="1" source="RZhJoWlprxQnowh1hvSg-205" target="RZhJoWlprxQnowh1hvSg-207" edge="1">
          <mxGeometry relative="1" as="geometry" />
        </mxCell>
        <mxCell id="RZhJoWlprxQnowh1hvSg-255" style="edgeStyle=orthogonalEdgeStyle;rounded=0;orthogonalLoop=1;jettySize=auto;html=1;exitX=1;exitY=0.5;exitDx=0;exitDy=0;exitPerimeter=0;entryX=0.5;entryY=1;entryDx=0;entryDy=0;" parent="1" source="RZhJoWlprxQnowh1hvSg-205" target="RZhJoWlprxQnowh1hvSg-244" edge="1">
          <mxGeometry relative="1" as="geometry" />
        </mxCell>
        <mxCell id="RZhJoWlprxQnowh1hvSg-205" value="验证通过" style="strokeWidth=2;html=1;shape=mxgraph.flowchart.decision;whiteSpace=wrap;" parent="1" vertex="1">
          <mxGeometry x="-600" y="2610" width="100" height="100" as="geometry" />
        </mxCell>
        <mxCell id="RZhJoWlprxQnowh1hvSg-206" value="" style="edgeStyle=orthogonalEdgeStyle;rounded=0;orthogonalLoop=1;jettySize=auto;html=1;" parent="1" source="RZhJoWlprxQnowh1hvSg-207" target="RZhJoWlprxQnowh1hvSg-209" edge="1">
          <mxGeometry relative="1" as="geometry" />
        </mxCell>
        <mxCell id="RZhJoWlprxQnowh1hvSg-207" value="发送HTTP请求" style="whiteSpace=wrap;html=1;strokeWidth=2;" parent="1" vertex="1">
          <mxGeometry x="-610" y="2795" width="120" height="60" as="geometry" />
        </mxCell>
        <mxCell id="RZhJoWlprxQnowh1hvSg-257" style="edgeStyle=orthogonalEdgeStyle;rounded=0;orthogonalLoop=1;jettySize=auto;html=1;exitX=1;exitY=0.5;exitDx=0;exitDy=0;entryX=0.488;entryY=1.3;entryDx=0;entryDy=0;entryPerimeter=0;" parent="1" source="RZhJoWlprxQnowh1hvSg-209" target="RZhJoWlprxQnowh1hvSg-219" edge="1">
          <mxGeometry relative="1" as="geometry" />
        </mxCell>
        <mxCell id="RZhJoWlprxQnowh1hvSg-258" style="edgeStyle=orthogonalEdgeStyle;rounded=0;orthogonalLoop=1;jettySize=auto;html=1;exitX=0.5;exitY=1;exitDx=0;exitDy=0;" parent="1" source="RZhJoWlprxQnowh1hvSg-209" target="RZhJoWlprxQnowh1hvSg-213" edge="1">
          <mxGeometry relative="1" as="geometry" />
        </mxCell>
        <mxCell id="RZhJoWlprxQnowh1hvSg-209" value="验证报名信息" style="rhombus;whiteSpace=wrap;html=1;strokeWidth=2;" parent="1" vertex="1">
          <mxGeometry x="-600" y="2923" width="100" height="90" as="geometry" />
        </mxCell>
        <mxCell id="RZhJoWlprxQnowh1hvSg-264" style="edgeStyle=orthogonalEdgeStyle;rounded=0;orthogonalLoop=1;jettySize=auto;html=1;entryX=1;entryY=0.5;entryDx=0;entryDy=0;" parent="1" source="RZhJoWlprxQnowh1hvSg-213" target="RZhJoWlprxQnowh1hvSg-225" edge="1">
          <mxGeometry relative="1" as="geometry">
            <Array as="points">
              <mxPoint x="-100" y="2580" />
            </Array>
          </mxGeometry>
        </mxCell>
        <mxCell id="RZhJoWlprxQnowh1hvSg-213" value="返回已报名状态" style="rounded=1;whiteSpace=wrap;html=1;strokeWidth=2;" parent="1" vertex="1">
          <mxGeometry x="-160" y="2720" width="120" height="40" as="geometry" />
        </mxCell>
        <mxCell id="RZhJoWlprxQnowh1hvSg-216" value="N" style="text;html=1;align=center;verticalAlign=middle;resizable=0;points=[];autosize=1;strokeColor=none;fillColor=none;" parent="1" vertex="1">
          <mxGeometry x="-540" y="2410" width="30" height="30" as="geometry" />
        </mxCell>
        <mxCell id="RZhJoWlprxQnowh1hvSg-263" style="edgeStyle=orthogonalEdgeStyle;rounded=0;orthogonalLoop=1;jettySize=auto;html=1;exitX=0.5;exitY=0;exitDx=0;exitDy=0;entryX=0.5;entryY=1;entryDx=0;entryDy=0;" parent="1" source="RZhJoWlprxQnowh1hvSg-219" target="RZhJoWlprxQnowh1hvSg-225" edge="1">
          <mxGeometry relative="1" as="geometry" />
        </mxCell>
        <mxCell id="RZhJoWlprxQnowh1hvSg-219" value="抛出错误" style="rounded=1;whiteSpace=wrap;html=1;absoluteArcSize=1;arcSize=14;strokeWidth=2;" parent="1" vertex="1">
          <mxGeometry x="-370" y="2730" width="150" height="40" as="geometry" />
        </mxCell>
        <mxCell id="RZhJoWlprxQnowh1hvSg-221" style="edgeStyle=orthogonalEdgeStyle;rounded=0;orthogonalLoop=1;jettySize=auto;html=1;exitX=1;exitY=0.5;exitDx=0;exitDy=0;entryX=0;entryY=0.5;entryDx=0;entryDy=0;entryPerimeter=0;" parent="1" source="RZhJoWlprxQnowh1hvSg-223" target="RZhJoWlprxQnowh1hvSg-226" edge="1">
          <mxGeometry relative="1" as="geometry" />
        </mxCell>
        <mxCell id="RZhJoWlprxQnowh1hvSg-222" style="edgeStyle=orthogonalEdgeStyle;rounded=0;orthogonalLoop=1;jettySize=auto;html=1;exitX=0.5;exitY=0;exitDx=0;exitDy=0;entryX=0.5;entryY=1;entryDx=0;entryDy=0;" parent="1" source="RZhJoWlprxQnowh1hvSg-223" target="RZhJoWlprxQnowh1hvSg-234" edge="1">
          <mxGeometry relative="1" as="geometry" />
        </mxCell>
        <mxCell id="RZhJoWlprxQnowh1hvSg-223" value="状态码是否为200" style="rhombus;whiteSpace=wrap;html=1;" parent="1" vertex="1">
          <mxGeometry x="-365" y="2265" width="100" height="90" as="geometry" />
        </mxCell>
        <mxCell id="RZhJoWlprxQnowh1hvSg-224" style="edgeStyle=orthogonalEdgeStyle;rounded=0;orthogonalLoop=1;jettySize=auto;html=1;entryX=0.5;entryY=1;entryDx=0;entryDy=0;" parent="1" source="RZhJoWlprxQnowh1hvSg-225" target="RZhJoWlprxQnowh1hvSg-223" edge="1">
          <mxGeometry relative="1" as="geometry" />
        </mxCell>
        <mxCell id="RZhJoWlprxQnowh1hvSg-225" value="接收HTTP响应" style="shape=parallelogram;html=1;strokeWidth=2;perimeter=parallelogramPerimeter;whiteSpace=wrap;rounded=1;arcSize=12;size=0.23;" parent="1" vertex="1">
          <mxGeometry x="-260" y="2550" width="110" height="60" as="geometry" />
        </mxCell>
        <mxCell id="RZhJoWlprxQnowh1hvSg-226" value="报名失败" style="strokeWidth=2;html=1;shape=mxgraph.flowchart.start_1;whiteSpace=wrap;" parent="1" vertex="1">
          <mxGeometry x="-140" y="2290.5" width="100" height="39" as="geometry" />
        </mxCell>
        <mxCell id="RZhJoWlprxQnowh1hvSg-227" value="Y" style="text;html=1;align=center;verticalAlign=middle;resizable=0;points=[];autosize=1;strokeColor=none;fillColor=none;" parent="1" vertex="1">
          <mxGeometry x="-310" y="2230" width="30" height="30" as="geometry" />
        </mxCell>
        <mxCell id="RZhJoWlprxQnowh1hvSg-228" value="N" style="text;html=1;align=center;verticalAlign=middle;resizable=0;points=[];autosize=1;strokeColor=none;fillColor=none;" parent="1" vertex="1">
          <mxGeometry x="-241" y="2265" width="30" height="30" as="geometry" />
        </mxCell>
        <mxCell id="RZhJoWlprxQnowh1hvSg-229" style="edgeStyle=orthogonalEdgeStyle;rounded=0;orthogonalLoop=1;jettySize=auto;html=1;exitX=0.5;exitY=1;exitDx=0;exitDy=0;" parent="1" source="RZhJoWlprxQnowh1hvSg-231" edge="1">
          <mxGeometry relative="1" as="geometry">
            <mxPoint x="-550" y="2160" as="targetPoint" />
          </mxGeometry>
        </mxCell>
        <mxCell id="RZhJoWlprxQnowh1hvSg-230" style="edgeStyle=orthogonalEdgeStyle;rounded=0;orthogonalLoop=1;jettySize=auto;html=1;exitX=0;exitY=0.5;exitDx=0;exitDy=0;entryX=1;entryY=0.25;entryDx=0;entryDy=0;" parent="1" source="RZhJoWlprxQnowh1hvSg-231" target="RZhJoWlprxQnowh1hvSg-236" edge="1">
          <mxGeometry relative="1" as="geometry">
            <mxPoint x="-650" y="2209.666666666667" as="targetPoint" />
          </mxGeometry>
        </mxCell>
        <mxCell id="RZhJoWlprxQnowh1hvSg-231" value="用户是否登录" style="rhombus;whiteSpace=wrap;html=1;strokeWidth=2;" parent="1" vertex="1">
          <mxGeometry x="-590" y="2030" width="80" height="80" as="geometry" />
        </mxCell>
        <mxCell id="RZhJoWlprxQnowh1hvSg-232" value="Y" style="text;html=1;align=center;verticalAlign=middle;resizable=0;points=[];autosize=1;strokeColor=none;fillColor=none;" parent="1" vertex="1">
          <mxGeometry x="-535" y="2725" width="30" height="30" as="geometry" />
        </mxCell>
        <mxCell id="RZhJoWlprxQnowh1hvSg-266" value="" style="edgeStyle=orthogonalEdgeStyle;rounded=0;orthogonalLoop=1;jettySize=auto;html=1;" parent="1" source="RZhJoWlprxQnowh1hvSg-234" target="RZhJoWlprxQnowh1hvSg-265" edge="1">
          <mxGeometry relative="1" as="geometry" />
        </mxCell>
        <mxCell id="RZhJoWlprxQnowh1hvSg-234" value="跳转活动详情页" style="rounded=1;whiteSpace=wrap;html=1;absoluteArcSize=1;arcSize=14;strokeWidth=2;" parent="1" vertex="1">
          <mxGeometry x="-365" y="2170" width="100" height="40" as="geometry" />
        </mxCell>
        <mxCell id="RZhJoWlprxQnowh1hvSg-235" value="Y" style="text;html=1;align=center;verticalAlign=middle;resizable=0;points=[];autosize=1;strokeColor=none;fillColor=none;" parent="1" vertex="1">
          <mxGeometry x="-540" y="2110" width="30" height="30" as="geometry" />
        </mxCell>
        <mxCell id="RZhJoWlprxQnowh1hvSg-236" value="跳转登录" style="rounded=1;whiteSpace=wrap;html=1;absoluteArcSize=1;arcSize=14;strokeWidth=2;" parent="1" vertex="1">
          <mxGeometry x="-830" y="2060" width="130" height="40" as="geometry" />
        </mxCell>
        <mxCell id="RZhJoWlprxQnowh1hvSg-237" value="N" style="text;html=1;align=center;verticalAlign=middle;resizable=0;points=[];autosize=1;strokeColor=none;fillColor=none;" parent="1" vertex="1">
          <mxGeometry x="-665" y="2040" width="30" height="30" as="geometry" />
        </mxCell>
        <mxCell id="RZhJoWlprxQnowh1hvSg-238" style="edgeStyle=orthogonalEdgeStyle;rounded=0;orthogonalLoop=1;jettySize=auto;html=1;exitX=0.5;exitY=1;exitDx=0;exitDy=0;" parent="1" source="RZhJoWlprxQnowh1hvSg-240" edge="1">
          <mxGeometry relative="1" as="geometry">
            <mxPoint x="-550" y="2310" as="targetPoint" />
            <Array as="points">
              <mxPoint x="-550" y="2280" />
              <mxPoint x="-550" y="2280" />
            </Array>
          </mxGeometry>
        </mxCell>
        <mxCell id="RZhJoWlprxQnowh1hvSg-239" style="edgeStyle=orthogonalEdgeStyle;rounded=0;orthogonalLoop=1;jettySize=auto;html=1;exitX=0;exitY=0.5;exitDx=0;exitDy=0;entryX=1;entryY=0.5;entryDx=0;entryDy=0;" parent="1" source="RZhJoWlprxQnowh1hvSg-240" target="RZhJoWlprxQnowh1hvSg-242" edge="1">
          <mxGeometry relative="1" as="geometry">
            <mxPoint x="-690" y="2190.166666666667" as="targetPoint" />
          </mxGeometry>
        </mxCell>
        <mxCell id="RZhJoWlprxQnowh1hvSg-240" value="活动报名是否截止" style="rhombus;whiteSpace=wrap;html=1;strokeWidth=2;" parent="1" vertex="1">
          <mxGeometry x="-595" y="2158.5" width="90" height="90" as="geometry" />
        </mxCell>
        <mxCell id="RZhJoWlprxQnowh1hvSg-241" value="Y" style="text;html=1;align=center;verticalAlign=middle;resizable=0;points=[];autosize=1;strokeColor=none;fillColor=none;" parent="1" vertex="1">
          <mxGeometry x="-665" y="2158.5" width="30" height="30" as="geometry" />
        </mxCell>
        <mxCell id="RZhJoWlprxQnowh1hvSg-242" value="禁止报名" style="rounded=1;whiteSpace=wrap;html=1;absoluteArcSize=1;arcSize=14;strokeWidth=2;" parent="1" vertex="1">
          <mxGeometry x="-830" y="2183.5" width="125" height="40" as="geometry" />
        </mxCell>
        <mxCell id="RZhJoWlprxQnowh1hvSg-243" value="N" style="text;html=1;align=center;verticalAlign=middle;resizable=0;points=[];autosize=1;strokeColor=none;fillColor=none;" parent="1" vertex="1">
          <mxGeometry x="-525" y="2250" width="30" height="30" as="geometry" />
        </mxCell>
        <mxCell id="RZhJoWlprxQnowh1hvSg-256" style="edgeStyle=orthogonalEdgeStyle;rounded=0;orthogonalLoop=1;jettySize=auto;html=1;exitX=0.5;exitY=0;exitDx=0;exitDy=0;" parent="1" source="RZhJoWlprxQnowh1hvSg-244" edge="1">
          <mxGeometry relative="1" as="geometry">
            <mxPoint x="-480" y="2490" as="targetPoint" />
            <Array as="points">
              <mxPoint x="-420" y="2490" />
            </Array>
          </mxGeometry>
        </mxCell>
        <mxCell id="RZhJoWlprxQnowh1hvSg-244" value="重新输入" style="rounded=1;whiteSpace=wrap;html=1;absoluteArcSize=1;arcSize=14;strokeWidth=2;" parent="1" vertex="1">
          <mxGeometry x="-470" y="2550" width="100" height="50" as="geometry" />
        </mxCell>
        <mxCell id="RZhJoWlprxQnowh1hvSg-247" style="edgeStyle=orthogonalEdgeStyle;rounded=0;orthogonalLoop=1;jettySize=auto;html=1;exitX=0;exitY=0.5;exitDx=0;exitDy=0;entryX=1;entryY=0.5;entryDx=0;entryDy=0;" parent="1" source="RZhJoWlprxQnowh1hvSg-248" target="RZhJoWlprxQnowh1hvSg-250" edge="1">
          <mxGeometry relative="1" as="geometry">
            <mxPoint x="-690" y="2341.666666666667" as="targetPoint" />
          </mxGeometry>
        </mxCell>
        <mxCell id="RZhJoWlprxQnowh1hvSg-248" value="用户是否报名" style="rhombus;whiteSpace=wrap;html=1;strokeWidth=2;" parent="1" vertex="1">
          <mxGeometry x="-595" y="2310" width="90" height="90" as="geometry" />
        </mxCell>
        <mxCell id="RZhJoWlprxQnowh1hvSg-249" value="Y" style="text;html=1;align=center;verticalAlign=middle;resizable=0;points=[];autosize=1;strokeColor=none;fillColor=none;" parent="1" vertex="1">
          <mxGeometry x="-665" y="2320" width="30" height="30" as="geometry" />
        </mxCell>
        <mxCell id="RZhJoWlprxQnowh1hvSg-250" value="禁止报名" style="rounded=1;whiteSpace=wrap;html=1;absoluteArcSize=1;arcSize=14;strokeWidth=2;" parent="1" vertex="1">
          <mxGeometry x="-830" y="2335" width="125" height="40" as="geometry" />
        </mxCell>
        <mxCell id="RZhJoWlprxQnowh1hvSg-251" value="N" style="text;html=1;align=center;verticalAlign=middle;resizable=0;points=[];autosize=1;strokeColor=none;fillColor=none;" parent="1" vertex="1">
          <mxGeometry x="-480" y="2620" width="30" height="30" as="geometry" />
        </mxCell>
        <mxCell id="RZhJoWlprxQnowh1hvSg-261" value="N" style="text;html=1;align=center;verticalAlign=middle;resizable=0;points=[];autosize=1;strokeColor=none;fillColor=none;" parent="1" vertex="1">
          <mxGeometry x="-465" y="2918" width="30" height="30" as="geometry" />
        </mxCell>
        <mxCell id="RZhJoWlprxQnowh1hvSg-262" value="Y" style="text;html=1;align=center;verticalAlign=middle;resizable=0;points=[];autosize=1;strokeColor=none;fillColor=none;" parent="1" vertex="1">
          <mxGeometry x="-465" y="2988" width="30" height="30" as="geometry" />
        </mxCell>
        <mxCell id="RZhJoWlprxQnowh1hvSg-270" style="edgeStyle=orthogonalEdgeStyle;rounded=0;orthogonalLoop=1;jettySize=auto;html=1;exitX=0.5;exitY=0;exitDx=0;exitDy=0;entryX=0.5;entryY=1;entryDx=0;entryDy=0;entryPerimeter=0;" parent="1" source="RZhJoWlprxQnowh1hvSg-265" target="RZhJoWlprxQnowh1hvSg-269" edge="1">
          <mxGeometry relative="1" as="geometry" />
        </mxCell>
        <mxCell id="RZhJoWlprxQnowh1hvSg-265" value="更新活动页数据" style="rounded=1;whiteSpace=wrap;html=1;absoluteArcSize=1;arcSize=14;strokeWidth=2;" parent="1" vertex="1">
          <mxGeometry x="-365" y="2050" width="100" height="40" as="geometry" />
        </mxCell>
        <mxCell id="RZhJoWlprxQnowh1hvSg-269" value="报名成功" style="strokeWidth=2;html=1;shape=mxgraph.flowchart.start_1;whiteSpace=wrap;" parent="1" vertex="1">
          <mxGeometry x="-365" y="1941" width="100" height="39" as="geometry" />
        </mxCell>
      </root>
    </mxGraphModel>
  </diagram>
</mxfile>
